<svg width="60" height="60" viewBox="0 0 60 60" fill="none" xmlns="http://www.w3.org/2000/svg">
<circle cx="30" cy="30" r="30" fill="#FF9900"/>
<g filter="url(#filter0_di)">
<path fill-rule="evenodd" clip-rule="evenodd" d="M43.6032 25.6628C43.5512 25.6628 43.4993 25.6634 43.4476 25.6646C43.0367 23.9519 41.4954 22.679 39.6567 22.679C38.7971 22.679 38.0024 22.9573 37.3579 23.4287C35.6165 19.6348 31.784 17 27.3362 17C23.2987 17 19.7682 19.1712 17.8487 22.4096C17.6601 22.3968 17.4697 22.3903 17.2778 22.3903C12.7061 22.3903 9 26.0964 9 30.6681C9 35.2277 12.6866 38.9264 17.2417 38.9458L17.2415 38.946H25.5555V38.899C26.1198 38.9907 26.6985 39.0395 27.2881 39.042L27.288 39.0421H27.3155L27.3362 39.0421L27.357 39.0421H36.9136H38.3572H43.6325L43.6324 39.042C47.3136 39.0263 50.2929 36.0373 50.2929 32.3525C50.2929 28.6579 47.2978 25.6628 43.6032 25.6628Z" fill="#D4F0FF"/>
</g>
<defs>
<filter id="filter0_di" x="5" y="14" width="49.2929" height="30.0421" filterUnits="userSpaceOnUse" color-interpolation-filters="sRGB">
<feFlood flood-opacity="0" result="BackgroundImageFix"/>
<feColorMatrix in="SourceAlpha" type="matrix" values="0 0 0 0 0 0 0 0 0 0 0 0 0 0 0 0 0 0 127 0" result="hardAlpha"/>
<feOffset dy="1"/>
<feGaussianBlur stdDeviation="2"/>
<feComposite in2="hardAlpha" operator="out"/>
<feColorMatrix type="matrix" values="0 0 0 0 0.533333 0 0 0 0 0.533333 0 0 0 0 0.533333 0 0 0 0.25 0"/>
<feBlend mode="normal" in2="BackgroundImageFix" result="effect1_dropShadow"/>
<feBlend mode="normal" in="SourceGraphic" in2="effect1_dropShadow" result="shape"/>
<feColorMatrix in="SourceAlpha" type="matrix" values="0 0 0 0 0 0 0 0 0 0 0 0 0 0 0 0 0 0 127 0" result="hardAlpha"/>
<feOffset dy="1"/>
<feGaussianBlur stdDeviation="2"/>
<feComposite in2="hardAlpha" operator="arithmetic" k2="-1" k3="1"/>
<feColorMatrix type="matrix" values="0 0 0 0 0.654902 0 0 0 0 0.827451 0 0 0 0 0.917647 0 0 0 1 0"/>
<feBlend mode="normal" in2="shape" result="effect2_innerShadow"/>
</filter>
</defs>
</svg>
