<svg width="504" height="428" viewBox="0 0 504 428" fill="none" xmlns="http://www.w3.org/2000/svg">
<path d="M232.742 201.06C232.742 201.06 250.149 230.788 267.797 193.388L270.148 190.618L263.66 209.22C263.66 209.22 246.557 225.15 236.65 217.427L232.742 201.06Z" fill="#2C2C2C"/>
<path d="M503.005 417.079C503.005 417.229 399.242 417.355 271.268 417.355C143.295 417.355 39.5031 417.229 39.5031 417.079C39.5031 416.93 143.249 416.804 271.268 416.804C399.288 416.804 503.005 416.93 503.005 417.079Z" fill="#1A2E35"/>
<path d="M297.951 368.238L307.795 400.126L320.127 395.098L315.38 362.198L297.951 368.238Z" fill="#FFBF9D"/>
<path d="M294.359 409.833L304.576 404.856L300.709 396.931L319.823 387.599L328.385 405.126C328.541 405.446 328.633 405.793 328.654 406.148C328.676 406.503 328.628 406.859 328.512 407.195C328.396 407.531 328.215 407.841 327.979 408.107C327.744 408.374 327.458 408.591 327.138 408.747L310.473 416.896L290.29 426.745L289.25 424.682C287.963 422.035 287.777 418.985 288.735 416.202C289.693 413.418 291.715 411.128 294.359 409.833Z" fill="#D4F0FF"/>
<path d="M290.641 427.618L329.937 408.427L328.525 405.535L289.228 424.726L290.641 427.618Z" fill="white"/>
<path d="M303.812 405.747C303.906 405.729 303.993 405.684 304.062 405.618C304.131 405.552 304.18 405.467 304.201 405.374C304.223 405.281 304.218 405.184 304.185 405.094C304.153 405.004 304.095 404.925 304.019 404.867C302.605 403.776 299.761 401.937 299.134 404.201C298.508 406.465 302.019 406.091 303.812 405.747Z" stroke="white" stroke-width="1.18911" stroke-linecap="round" stroke-linejoin="round"/>
<path d="M309.467 402.034C308.088 399.609 305.502 402.868 304.295 404.643C304.211 404.767 304.179 404.918 304.205 405.065C304.23 405.212 304.312 405.343 304.433 405.431C304.493 405.477 304.561 405.511 304.634 405.531C304.707 405.55 304.783 405.555 304.858 405.546C306.938 405.276 310.84 404.442 309.455 402.034" stroke="white" stroke-width="1.18911" stroke-linecap="round" stroke-linejoin="round"/>
<path d="M304.301 405.718C304.301 405.718 305.519 409.074 308.519 409.166" stroke="white" stroke-width="1.18911" stroke-linecap="round" stroke-linejoin="round"/>
<path d="M314.656 402.201C314.996 402.895 315.534 403.473 316.202 403.861C316.87 404.249 317.639 404.431 318.41 404.383C319.181 404.334 319.921 404.058 320.535 403.59C321.15 403.121 321.611 402.481 321.862 401.75C322.113 401.019 322.141 400.23 321.943 399.483C321.746 398.736 321.331 398.064 320.752 397.553C320.172 397.041 319.454 396.713 318.688 396.61C317.923 396.506 317.143 396.632 316.449 396.972C315.988 397.197 315.576 397.512 315.236 397.896C314.896 398.281 314.636 398.729 314.469 399.215C314.303 399.701 314.233 400.214 314.265 400.727C314.298 401.239 314.43 401.74 314.656 402.201Z" fill="white"/>
<path d="M359.567 379.358L355.538 412.493L342.51 409.729L341.338 376.513L359.567 379.358Z" fill="#FFBF9D"/>
<path d="M338.482 402.041L338.292 421.545C338.289 421.9 338.355 422.253 338.487 422.583C338.62 422.913 338.816 423.213 339.065 423.467C339.313 423.721 339.61 423.924 339.937 424.063C340.264 424.203 340.615 424.277 340.97 424.28L359.538 424.464L381.996 424.688V422.39C382.011 420.93 381.739 419.482 381.194 418.129C380.65 416.775 379.844 415.541 378.822 414.499C377.801 413.457 376.584 412.626 375.241 412.054C373.898 411.482 372.456 411.181 370.997 411.166L359.653 411.057L359.745 402.27L338.482 402.041Z" fill="#D4F0FF"/>
<path d="M382.013 422.405L338.282 421.97L338.25 425.188L381.981 425.623L382.013 422.405Z" fill="white"/>
<path d="M360.722 411.557C360.628 411.584 360.529 411.583 360.436 411.554C360.343 411.525 360.261 411.47 360.2 411.394C360.138 411.319 360.101 411.227 360.091 411.13C360.082 411.033 360.101 410.936 360.147 410.85C360.952 409.258 362.727 406.373 364.268 408.149C365.808 409.925 362.486 411.091 360.722 411.557Z" stroke="white" stroke-width="1.18911" stroke-linecap="round" stroke-linejoin="round"/>
<path d="M353.998 410.632C354.199 407.85 357.935 409.678 359.791 410.764C359.891 410.819 359.973 410.902 360.025 411.004C360.078 411.105 360.099 411.22 360.086 411.333C360.073 411.447 360.026 411.554 359.952 411.641C359.878 411.728 359.78 411.791 359.67 411.821C357.676 412.471 353.797 413.396 353.998 410.632Z" stroke="white" stroke-width="1.18911" stroke-linecap="round" stroke-linejoin="round"/>
<path d="M360.257 411.712C360.257 411.712 360.596 415.263 357.958 416.666" stroke="white" stroke-width="1.18911" stroke-linecap="round" stroke-linejoin="round"/>
<path d="M345.723 407.718C346.574 407.565 347.452 407.667 348.245 408.013C349.038 408.358 349.71 408.931 350.178 409.658C350.645 410.386 350.886 411.236 350.871 412.101C350.855 412.966 350.583 413.806 350.09 414.517C349.597 415.227 348.904 415.775 348.099 416.092C347.294 416.408 346.413 416.479 345.568 416.295C344.723 416.111 343.951 415.681 343.351 415.058C342.75 414.436 342.348 413.649 342.194 412.798C342.092 412.233 342.101 411.653 342.223 411.091C342.345 410.53 342.577 409.998 342.904 409.526C343.232 409.054 343.65 408.651 344.133 408.341C344.617 408.031 345.157 407.819 345.723 407.718Z" fill="white"/>
<path d="M362.934 192.245L362.854 211.1L357.446 284.537C357.446 284.537 360.44 320.167 362.285 340.28C363.894 357.756 361.009 388.168 361.009 388.168L332.161 392.501L318.254 292.226L311.99 228.937L303.944 194.405L362.934 192.245Z" fill="#3A3A3A"/>
<path d="M281.308 189.182L267.137 279.779L290.382 379.214L291.256 383.95L318.88 379.835L307.777 289.675L321.696 192.641L281.308 189.182Z" fill="#3A3A3A"/>
<path d="M334.776 201.135C334.626 201.169 334.356 200.485 334.161 199.612C333.965 198.738 333.931 198.003 334.08 197.974C334.23 197.945 334.505 198.623 334.695 199.497C334.885 200.37 334.925 201.094 334.776 201.135Z" fill="#2C2C2C"/>
<path d="M337.982 202.25C337.844 202.296 337.315 201.009 337.074 199.325C336.833 197.641 336.971 196.256 337.114 196.262C337.258 196.268 337.379 197.612 337.62 199.244C337.861 200.876 338.132 202.204 337.982 202.25Z" fill="#2C2C2C"/>
<path d="M298.83 201.134C298.692 201.18 298.255 200.244 298.065 198.997C297.876 197.75 297.974 196.727 298.123 196.727C298.272 196.727 298.41 197.709 298.606 198.91C298.801 200.111 298.991 201.077 298.83 201.134Z" fill="#2C2C2C"/>
<path d="M302.094 201.135C301.944 201.164 301.622 200.146 301.375 198.871C301.128 197.595 301.042 196.526 301.191 196.497C301.341 196.469 301.663 197.486 301.91 198.762C302.157 200.037 302.237 201.1 302.094 201.135Z" fill="#2C2C2C"/>
<path d="M313.771 217.995C313.771 217.995 313.8 218.099 313.673 218.208C313.575 218.277 313.459 218.317 313.339 218.322C313.218 218.327 313.099 218.298 312.995 218.237C312.851 218.127 312.733 217.986 312.65 217.825C312.566 217.664 312.519 217.487 312.513 217.306C312.455 216.898 312.392 216.472 312.323 216.018C312.064 214.116 311.748 211.479 311.409 208.548C311.07 205.617 310.835 202.991 310.651 201.077C310.506 200.045 310.455 199.003 310.496 197.962C310.766 198.967 310.947 199.994 311.036 201.031C311.3 202.933 311.61 205.571 311.949 208.502C312.288 211.433 312.524 214.059 312.708 215.972C312.829 216.915 312.737 217.788 313.11 218.059C313.182 218.11 313.265 218.143 313.353 218.153C313.44 218.163 313.529 218.15 313.61 218.116C313.771 218.064 313.771 217.99 313.771 217.995Z" fill="#2C2C2C"/>
<path d="M316.932 199.336C316.932 199.302 317.087 199.25 317.38 199.296C317.641 199.354 317.888 199.467 318.103 199.627C318.317 199.787 318.496 199.991 318.627 200.224C318.758 200.458 318.838 200.717 318.861 200.984C318.885 201.251 318.852 201.52 318.765 201.773C318.616 202.149 318.363 202.475 318.035 202.713C317.707 202.95 317.319 203.089 316.914 203.112C316.508 203.118 316.108 203 315.77 202.774C315.431 202.549 315.169 202.225 315.018 201.848C314.881 201.552 314.824 201.225 314.853 200.9C314.882 200.575 314.997 200.264 315.185 199.997C315.308 199.821 315.467 199.673 315.651 199.562C315.835 199.451 316.04 199.38 316.254 199.353C316.552 199.353 316.702 199.422 316.696 199.451C316.456 199.487 316.225 199.572 316.02 199.703C315.815 199.834 315.64 200.007 315.507 200.21C315.386 200.429 315.323 200.675 315.323 200.925C315.323 201.175 315.386 201.421 315.507 201.641C315.627 201.915 315.825 202.149 316.076 202.313C316.327 202.478 316.62 202.565 316.92 202.566C317.221 202.545 317.511 202.443 317.759 202.271C318.007 202.099 318.203 201.864 318.328 201.589C318.421 201.358 318.454 201.106 318.422 200.859C318.391 200.612 318.298 200.376 318.15 200.175C317.598 199.411 316.903 199.411 316.932 199.336Z" fill="#2C2C2C"/>
<path d="M290.48 197.543C290.753 198.17 290.869 198.855 290.819 199.537C290.82 201.202 290.346 202.832 289.451 204.235C288.556 205.639 287.277 206.756 285.767 207.456C284.618 207.985 283.825 208.031 283.813 207.991C283.802 207.951 284.532 207.703 285.589 207.112C286.97 206.361 288.138 205.272 288.984 203.947C289.83 202.623 290.327 201.106 290.428 199.537C290.52 198.319 290.393 197.56 290.48 197.543Z" fill="#2C2C2C"/>
<path d="M360.136 213.111C359.864 213.28 359.565 213.399 359.251 213.461C358.406 213.686 357.531 213.773 356.659 213.72C353.751 213.499 351.03 212.202 349.027 210.082C347.104 207.952 345.724 205.389 345.005 202.611C344.763 201.782 344.572 200.94 344.43 200.089C344.355 199.778 344.327 199.459 344.349 199.14C344.441 199.14 344.688 200.451 345.355 202.496C346.158 205.167 347.539 207.627 349.401 209.703C351.323 211.726 353.893 213.011 356.665 213.335C358.82 213.53 360.113 212.996 360.136 213.111Z" fill="#2C2C2C"/>
<path d="M257.993 152.362L267.74 108.652L285.267 131.542L278.095 161.925L257.993 152.362Z" fill="#FFBF9D"/>
<path d="M367.509 137.806L359.015 119.744L363.98 194.038C363.819 195.612 361.164 197.997 359.584 197.992L282.538 197.285C282.172 197.285 281.811 197.208 281.476 197.061C281.142 196.913 280.843 196.696 280.597 196.426C280.351 196.155 280.165 195.836 280.05 195.489C279.935 195.142 279.893 194.775 279.929 194.411C280.963 182.883 282.256 130.525 284.744 109.762L283.813 142.323L254.683 122.98C256.011 122.347 260.832 110.187 261.304 108.797C264.493 99.3721 269.682 83.8502 277.762 79.9654C281.44 78.2011 283.716 77.4943 287.779 77.1552C294.238 76.6208 302.502 75.5921 307.858 75.8277C316.863 76.2128 323.949 75.1611 333.718 75.6496L345.212 76.684C346.878 76.9254 353.062 77.8046 355.607 77.8621C362.274 78.0058 373.916 88.4763 377.508 94.1023C383.927 104.159 391.3 123.365 391.3 123.365L367.509 137.806Z" fill="#FF9900"/>
<path d="M233.944 146.742C234.426 146.972 256.04 165.436 263.919 168.47C264.16 168.562 264.395 168.643 264.631 168.723C267.319 169.561 270.227 169.319 272.74 168.051C275.253 166.782 277.174 164.585 278.096 161.925C278.096 161.925 277.492 155.259 271.429 151.621C265.367 147.983 237.409 136.105 237.409 136.105L233.944 146.742Z" fill="#FFBF9D"/>
<path d="M332.764 29.9978C333.04 31.5798 333.106 33.1914 332.959 34.7906L331.011 59.5532L331.379 76.2187L330.511 82.4482C330.481 84.3623 329.7 86.1878 328.335 87.5307C326.971 88.8736 325.133 89.6261 323.219 89.6258L316.897 89.3328C315.903 89.333 314.919 89.1297 314.005 88.7356C313.092 88.3414 312.269 87.7646 311.587 87.0406C310.905 86.3166 310.379 85.4608 310.04 84.5258C309.701 83.5907 309.557 82.5962 309.616 81.6034L309.898 77.0693L309.697 66.6389C309.697 66.6389 295.043 65.3689 294.945 55.4386C294.893 50.6516 295.594 40.8017 296.336 31.877C296.65 28.0115 298.172 24.3427 300.686 21.3892" fill="#FFBF9D"/>
<path d="M309.702 66.5526C314.285 66.6475 318.793 65.3751 322.65 62.8977C322.65 62.8977 319.604 70.4661 309.697 69.5466L309.702 66.5526Z" fill="#FF9A6C"/>
<path d="M299.272 38.8759C299.267 39.2466 299.408 39.6044 299.663 39.8728C299.919 40.1413 300.269 40.2991 300.64 40.3126C300.82 40.3267 301.001 40.3047 301.173 40.2479C301.345 40.1912 301.504 40.1008 301.64 39.982C301.776 39.8632 301.888 39.7185 301.968 39.5562C302.048 39.3939 302.094 39.2174 302.105 39.0368C302.107 38.667 301.966 38.3109 301.711 38.0431C301.456 37.7752 301.107 37.6165 300.737 37.6002C300.557 37.5861 300.376 37.6081 300.204 37.6649C300.032 37.7216 299.874 37.812 299.737 37.9308C299.601 38.0495 299.489 38.1943 299.41 38.3566C299.33 38.5188 299.283 38.6954 299.272 38.8759Z" fill="#2C2C2C"/>
<path d="M313.696 39.5427C313.692 39.9124 313.831 40.2693 314.086 40.5377C314.34 40.806 314.689 40.9644 315.058 40.9794C315.239 40.9934 315.42 40.9715 315.592 40.9147C315.763 40.8579 315.922 40.7675 316.059 40.6488C316.195 40.53 316.306 40.3853 316.386 40.223C316.466 40.0607 316.513 39.8841 316.524 39.7036C316.529 39.3339 316.389 38.977 316.135 38.7087C315.88 38.4403 315.531 38.2819 315.162 38.2669C314.981 38.2529 314.8 38.2749 314.628 38.3316C314.457 38.3884 314.298 38.4788 314.162 38.5975C314.025 38.7163 313.914 38.861 313.834 39.0233C313.754 39.1856 313.707 39.3622 313.696 39.5427Z" fill="#2C2C2C"/>
<path d="M312.415 49.4787C312.168 49.4787 312.156 51.1223 310.737 52.2946C309.317 53.467 307.553 53.2773 307.542 53.5129C307.542 53.6164 307.933 53.8347 308.691 53.8577C309.661 53.8714 310.605 53.5439 311.358 52.9325C312.069 52.3385 312.522 51.4919 312.622 50.5706C312.708 49.881 312.524 49.473 312.415 49.4787Z" fill="#FF9A6C"/>
<path d="M313.105 31.1348C313.254 31.5486 314.777 31.3532 316.553 31.5773C318.328 31.8015 319.788 32.2842 320.001 31.9164C320.11 31.7382 319.857 31.3417 319.277 30.9452C318.497 30.4551 317.615 30.1487 316.699 30.0492C315.783 29.9496 314.857 30.0595 313.99 30.3705C313.375 30.6119 313.041 30.9394 313.105 31.1348Z" fill="#2C2C2C"/>
<path d="M299.065 32.3822C299.33 32.727 300.381 32.3822 301.646 32.3822C302.91 32.3822 303.979 32.6179 304.226 32.2558C304.335 32.0834 304.168 31.7329 303.703 31.4053C303.078 31.0018 302.343 30.8011 301.6 30.8306C300.858 30.8419 300.139 31.0851 299.542 31.526C299.094 31.8535 298.945 32.2156 299.065 32.3822Z" fill="#2C2C2C"/>
<path d="M329.023 37.9969C329.19 37.9222 335.833 35.9453 335.649 42.7322C335.465 49.5191 328.713 47.9387 328.713 47.7433C328.713 47.5479 329.023 37.9969 329.023 37.9969Z" fill="#FFBF9D"/>
<path d="M330.827 45.2262C330.856 45.2262 330.942 45.3124 331.138 45.4101C331.275 45.475 331.424 45.512 331.576 45.5189C331.728 45.5258 331.88 45.5025 332.023 45.4504C332.747 45.209 333.385 44.0884 333.448 42.8643C333.484 42.2753 333.386 41.6858 333.161 41.1403C333.104 40.9266 332.995 40.7301 332.845 40.5678C332.695 40.4056 332.507 40.2825 332.299 40.2093C332.164 40.1637 332.017 40.1696 331.887 40.2258C331.756 40.2821 331.651 40.3847 331.592 40.5139C331.494 40.6978 331.534 40.8357 331.5 40.8472C331.465 40.8587 331.356 40.7323 331.419 40.4507C331.461 40.2834 331.558 40.1354 331.695 40.0312C331.887 39.8954 332.124 39.8398 332.356 39.876C332.633 39.9397 332.889 40.0728 333.1 40.2628C333.311 40.4528 333.471 40.6935 333.563 40.9622C333.835 41.5578 333.957 42.2107 333.919 42.8643C333.839 44.2321 333.103 45.4963 332.115 45.7377C331.932 45.7868 331.74 45.7936 331.554 45.7578C331.367 45.722 331.192 45.6444 331.04 45.5308C330.833 45.3986 330.804 45.2377 330.827 45.2262Z" fill="#FF9A6C"/>
<path d="M228.863 136.197C228.794 136.197 228.691 135.162 228.972 133.525C229.041 133.075 229.136 132.629 229.26 132.191C229.427 131.678 229.675 131.195 229.995 130.76C230.345 130.283 230.761 129.857 231.231 129.496C231.75 129.089 232.37 128.829 233.024 128.743C233.692 128.649 234.372 128.776 234.96 129.105C235.482 129.437 235.907 129.901 236.19 130.45C236.635 131.328 236.952 132.264 237.133 133.232C237.472 134.858 237.449 135.887 237.386 135.892C237.322 135.898 237.184 134.887 236.759 133.323C236.534 132.413 236.198 131.533 235.759 130.703C235.504 130.245 235.133 129.86 234.685 129.588C234.198 129.32 233.636 129.221 233.087 129.307C231.992 129.523 231.026 130.16 230.398 131.082C229.843 131.827 229.482 132.698 229.346 133.617C228.978 135.18 228.944 136.197 228.863 136.197Z" fill="#1A2E35"/>
<path d="M292.439 20.7448C293.617 18.9001 295.945 18.1531 298.324 18.5956C296.203 14.366 295.956 9.8433 298.025 6.15391C301.933 -0.701934 312.512 -2.02943 321.656 3.18285C325.356 5.23534 328.42 8.26747 330.511 11.9466C331.067 12.3152 331.594 12.7264 332.086 13.1764C333.942 11.7742 336.965 11.8087 339.557 13.4695C342.717 15.4808 344.016 19.084 342.47 21.5149C342.418 21.5896 342.35 21.6413 342.298 21.716C344.47 23.963 344.803 27.6754 342.907 30.6579C341.934 32.2044 340.443 33.3551 338.7 33.9048C340.643 35.9219 341.269 38.6229 340.039 40.5883C338.516 43.0421 334.701 43.4214 331.523 41.4445C328.345 39.4677 327.006 35.876 328.529 33.3991C328.763 33.0419 329.052 32.7238 329.385 32.4567C328.713 31.2488 328.137 29.9903 327.661 28.6926C322.627 32.0946 314.645 32.0199 307.513 27.957C306.938 27.6237 306.364 27.2559 305.789 26.8823H304.346C304.234 27.2758 304.065 27.6512 303.846 27.9972C302.197 30.589 298.301 31.0602 295.14 29.0489C291.979 27.0375 290.784 23.3366 292.439 20.7448Z" fill="#2C2C2C"/>
<path d="M306.421 38.9622L304.082 46.6916C304.055 46.7747 304.047 46.8629 304.059 46.9495C304.071 47.0362 304.102 47.1189 304.151 47.1915C304.502 47.7375 305.617 48.9155 308.565 48.2949" stroke="#FF9A6C" stroke-width="1.58548" stroke-miterlimit="10"/>
<path d="M259.459 145.783L272.941 152.679C272.941 152.679 268.372 148.558 259.459 145.783Z" fill="#FF8B2E"/>
<path d="M236.627 217.426C232.554 212.029 230.293 205.481 230.168 198.721C230.03 187.538 228.858 136.438 228.858 136.438H237.414L236.627 217.426Z" fill="#3A3A3A"/>
<path d="M262.321 209.973C262.321 209.973 272.285 206.933 271.067 179.515C269.849 152.098 270.74 131.243 270.74 131.243H263.953L263.022 195.215L262.321 209.973Z" fill="#3A3A3A"/>
<path d="M264.315 130.341C264.24 130.341 264.142 129.41 264.315 127.904C264.41 127.012 264.636 126.138 264.987 125.312C265.201 124.802 265.521 124.342 265.924 123.962C266.404 123.557 267.021 123.352 267.648 123.387C268.227 123.45 268.779 123.663 269.25 124.006C269.721 124.349 270.094 124.809 270.332 125.341C270.725 126.149 270.989 127.014 271.113 127.904C271.332 129.404 271.222 130.341 271.159 130.341C271.096 130.341 271.044 129.416 270.734 127.973C270.563 127.14 270.279 126.333 269.889 125.577C269.68 125.128 269.359 124.741 268.956 124.453C268.553 124.165 268.083 123.986 267.59 123.933C267.103 123.905 266.623 124.061 266.246 124.37C265.895 124.694 265.612 125.085 265.412 125.519C265.061 126.296 264.81 127.115 264.665 127.956C264.435 129.416 264.395 130.341 264.315 130.341Z" fill="#3A3A3A"/>
<path d="M235.265 215.961C235.217 215.698 235.196 215.43 235.202 215.162C235.202 214.588 235.167 213.818 235.144 212.864C235.11 210.806 235.07 207.927 235.012 204.399C234.96 197.198 234.886 187.342 234.8 176.458C234.713 165.574 234.759 155.713 234.748 148.512C234.748 144.978 234.782 142.104 234.788 140.047C234.788 139.087 234.823 138.323 234.828 137.748C234.824 137.479 234.841 137.21 234.88 136.944C234.923 137.21 234.943 137.479 234.937 137.748C234.937 138.323 234.978 139.093 235.001 140.047C235.029 142.104 235.075 144.983 235.127 148.512C235.185 155.713 235.259 165.568 235.34 176.452C235.42 187.337 235.386 197.192 235.397 204.393C235.397 207.922 235.363 210.801 235.351 212.858C235.351 213.818 235.322 214.582 235.311 215.157C235.319 215.426 235.304 215.695 235.265 215.961Z" fill="#8E8E8E"/>
<path d="M231.898 206.565C231.748 206.565 231.449 190.969 231.237 171.734C231.024 152.5 230.967 136.892 231.116 136.892C231.265 136.892 231.564 152.483 231.777 171.729C231.99 190.975 232.047 206.565 231.898 206.565Z" fill="#8E8E8E"/>
<path d="M269.97 199.02C269.82 199.02 269.631 183.699 269.55 164.792C269.47 145.886 269.55 130.559 269.677 130.559C269.803 130.559 270.016 145.886 270.096 164.792C270.176 183.699 270.125 199.02 269.97 199.02Z" fill="#8E8E8E"/>
<path d="M264.666 207.732C264.628 207.475 264.614 207.215 264.625 206.956C264.625 206.381 264.625 205.652 264.625 204.726C264.625 202.732 264.671 199.951 264.706 196.537C264.826 189.572 264.987 180.05 265.171 169.528C265.355 159.005 265.631 149.483 265.792 142.518C265.895 139.104 265.982 136.323 266.045 134.329C266.079 133.404 266.114 132.668 266.137 132.105C266.138 131.845 266.161 131.585 266.206 131.329C266.247 131.586 266.261 131.846 266.246 132.105C266.246 132.68 266.246 133.409 266.246 134.335C266.246 136.329 266.2 139.11 266.171 142.524C266.05 149.489 265.884 159.017 265.706 169.533C265.528 180.05 265.24 189.584 265.079 196.543C264.976 199.951 264.89 202.732 264.832 204.726C264.792 205.652 264.757 206.393 264.734 206.95C264.734 207.212 264.711 207.474 264.666 207.732Z" fill="#8E8E8E"/>
<path d="M233.57 126.013C233.57 126.272 233.179 144.978 233.777 145.432C234.375 145.886 238.754 145.955 240.225 145.213L240.943 144.311L268.66 143.983L268.194 123.87L259.499 124.295L257.827 121.956C257.611 121.658 257.324 121.42 256.991 121.263C256.659 121.106 256.292 121.036 255.925 121.06L245.696 121.715L244.736 125.519L241.989 125.582L242.092 123.427C242.092 123.427 233.668 121.382 233.57 126.013Z" fill="#3A3A3A"/>
<path d="M241.489 144.15C241.31 143.153 241.227 142.14 241.242 141.127C241.167 139.26 241.138 136.674 241.213 133.823C241.288 130.973 241.443 128.387 241.61 126.525C241.641 125.514 241.774 124.509 242.006 123.525C242.086 123.525 242.058 124.674 242.006 126.548C241.937 128.594 241.857 131.082 241.77 133.835C241.684 136.587 241.678 139.081 241.638 141.127C241.598 142.989 241.569 144.15 241.489 144.15Z" fill="#8E8E8E"/>
<path d="M260.597 136.335C260.534 136.335 260.723 135.599 260.654 134.283C260.541 132.426 259.811 130.661 258.58 129.266C257.681 128.242 256.54 127.459 255.262 126.99C253.983 126.52 252.606 126.378 251.258 126.577C249.668 126.799 248.182 127.496 246.994 128.577C245.707 129.724 244.821 131.254 244.465 132.941C244.109 134.629 244.303 136.386 245.017 137.955C245.672 139.422 246.751 140.659 248.115 141.507C249.269 142.232 250.586 142.656 251.946 142.741C253.306 142.827 254.666 142.57 255.902 141.995C257.591 141.215 258.971 139.892 259.821 138.237C260.396 137.088 260.534 136.318 260.597 136.335C260.592 136.516 260.563 136.696 260.511 136.869C260.403 137.374 260.235 137.864 260.011 138.329C259.203 140.086 257.809 141.508 256.068 142.352C254.87 142.94 253.548 143.236 252.212 143.214C250.671 143.188 249.165 142.749 247.851 141.944C246.392 141.053 245.237 139.743 244.535 138.185C243.758 136.509 243.543 134.627 243.922 132.819C244.301 131.011 245.253 129.374 246.638 128.151C247.909 127.01 249.496 126.278 251.189 126.054C252.714 125.84 254.267 126.039 255.689 126.629C256.92 127.149 258.01 127.953 258.873 128.973C260.128 130.443 260.833 132.304 260.867 134.237C260.881 134.754 260.837 135.271 260.735 135.777C260.715 135.969 260.668 136.156 260.597 136.335Z" fill="#8E8E8E"/>
<path d="M252.402 140.191C255.49 140.191 257.993 137.688 257.993 134.599C257.993 131.511 255.49 129.008 252.402 129.008C249.314 129.008 246.81 131.511 246.81 134.599C246.81 137.688 249.314 140.191 252.402 140.191Z" fill="#8E8E8E"/>
<path d="M253.287 121.889L247.648 122.314L247.841 124.875L253.48 124.45L253.287 121.889Z" fill="#8E8E8E"/>
<path opacity="0.5" d="M268.343 130.272L268.659 143.983H264.114L264.091 145.782L269.826 145.431V130.272H268.343Z" fill="#232323"/>
<path opacity="0.5" d="M237.403 145.754C237.403 145.754 234.363 145.817 233.777 145.432L233.558 143.904L228.88 144.817C229.162 145.445 229.609 145.984 230.172 146.379C230.736 146.773 231.395 147.008 232.081 147.059L237.386 147.455L237.403 145.754Z" fill="#232323"/>
<path d="M227.789 129.978C227.789 129.978 226.036 127.249 226.036 127.053C226.036 126.858 226.036 124.973 226.915 124.651C227.794 124.329 230.196 124.324 230.196 124.324L236.69 127.772C236.69 127.772 237.506 130.369 235.736 130.467C235.736 130.467 240.391 131.668 240.454 132.904C240.518 134.139 240.454 135.242 240.454 135.242C240.454 135.242 242.144 135.179 241.949 136.392C241.753 137.604 241.69 138.409 241.104 138.409C240.181 138.557 239.27 138.774 238.38 139.058C238.38 139.058 239.61 140.357 238.052 141.782C237.082 142.657 235.927 143.301 234.673 143.667L229.363 144.719C229.025 144.895 228.635 144.945 228.263 144.86C227.891 144.775 227.562 144.56 227.335 144.253C227.091 143.958 226.913 143.614 226.814 143.244C226.715 142.874 226.697 142.487 226.76 142.11C226.76 142.11 226.369 140.748 226.042 139.512C225.714 138.277 226.823 137.041 226.823 137.041C226.496 136.815 226.242 136.498 226.093 136.13C225.944 135.761 225.906 135.357 225.984 134.967C226.3 133.668 226.369 131.519 228.122 130.806L227.789 129.978Z" fill="#FFBF9D"/>
<path d="M238.34 139.318C238.34 139.473 235.955 139.892 233.007 140.467C230.059 141.042 227.674 141.582 227.634 141.427C227.593 141.271 229.932 140.519 232.903 139.932C235.874 139.346 238.322 139.168 238.34 139.318Z" fill="#FF9A6C"/>
<path d="M240.679 135.576C240.679 135.76 237.805 135.576 234.357 135.64C230.909 135.703 228.174 136.616 228.122 136.479C228.643 136.126 229.229 135.88 229.846 135.754C231.307 135.351 232.813 135.129 234.328 135.094C235.832 135.048 237.338 135.103 238.834 135.26C239.461 135.272 240.083 135.378 240.679 135.576Z" fill="#FF9A6C"/>
<path d="M235.346 130.571C235.346 130.72 234.007 130.835 232.352 130.818C230.697 130.8 229.363 130.674 229.369 130.525C229.375 130.375 230.708 130.26 232.357 130.272C234.007 130.283 235.346 130.45 235.346 130.571Z" fill="#FF9A6C"/>
<path d="M233.501 130.582C233.501 130.726 232.254 130.76 230.903 130.117C229.553 129.473 228.777 128.502 228.892 128.393C229.007 128.283 229.875 129.025 231.133 129.605C232.392 130.186 233.518 130.45 233.501 130.582Z" fill="#FF9A6C"/>
<path d="M358.929 120.135L355.602 113.509L360.791 149.782L358.929 120.135Z" fill="#F47E2F"/>
<path d="M283.98 104.682L287.02 110.515L282.371 142.363L283.98 104.682Z" fill="#F47E2F"/>
<path d="M121.428 370.479L114.417 398.437L102.51 395.805L103.59 364.818L121.428 370.479Z" fill="#FFB380"/>
<path d="M101.843 421.045L113.279 421.223C114.238 421.267 115.175 420.928 115.884 420.282C116.593 419.635 117.016 418.733 117.061 417.775L118.21 392.489L99.5734 391.984L99.0562 403.477L91.9015 403.161C88.9183 403.027 86.0038 404.083 83.799 406.097C81.5941 408.111 80.2794 410.918 80.1437 413.902L79.8794 420.085L101.843 421.045Z" fill="#2C2C2C"/>
<path d="M79.7991 421.263L116.842 422.591L117.032 418.407L79.9887 417.08L79.7991 421.263Z" fill="#999595"/>
<path d="M97.8324 395.098L103.125 395.092" stroke="#999595" stroke-width="1.18911" stroke-linecap="round" stroke-linejoin="round"/>
<path d="M97.7633 401.908L102.384 401.828" stroke="#999595" stroke-width="1.18911" stroke-linecap="round" stroke-linejoin="round"/>
<path d="M105.044 413.189C104.343 412.488 103.866 411.595 103.673 410.623C103.479 409.651 103.578 408.643 103.957 407.728C104.337 406.812 104.979 406.029 105.803 405.478C106.627 404.928 107.596 404.634 108.587 404.634C109.578 404.634 110.547 404.928 111.372 405.478C112.196 406.029 112.838 406.812 113.217 407.728C113.596 408.643 113.696 409.651 113.502 410.623C113.309 411.595 112.831 412.488 112.13 413.189C111.665 413.655 111.113 414.024 110.505 414.276C109.897 414.529 109.245 414.658 108.587 414.658C107.929 414.658 107.277 414.529 106.67 414.276C106.062 414.024 105.509 413.655 105.044 413.189Z" fill="#999595"/>
<path d="M97.5277 398.61L102.826 398.604" stroke="#999595" stroke-width="1.18911" stroke-linecap="round" stroke-linejoin="round"/>
<path d="M178.706 367.864L172.597 396.029L160.609 393.776L160.696 362.778L178.706 367.864Z" fill="#FFB380"/>
<path d="M161.259 422.263L172.695 422.091C173.654 422.103 174.579 421.734 175.266 421.065C175.954 420.396 176.348 419.481 176.361 418.522L176.712 393.236L158.069 393.311L157.909 404.804L150.748 404.707C147.762 404.665 144.881 405.812 142.74 407.894C140.598 409.976 139.372 412.823 139.329 415.809L139.243 421.987L161.259 422.263Z" fill="#2C2C2C"/>
<path d="M139.226 423.165L176.292 423.343L176.356 419.154L139.283 418.976L139.226 423.165Z" fill="#999595"/>
<path d="M156.443 396.449L161.736 396.282" stroke="#999595" stroke-width="1.18911" stroke-linecap="round" stroke-linejoin="round"/>
<path d="M156.587 403.265L161.201 403.041" stroke="#999595" stroke-width="1.18911" stroke-linecap="round" stroke-linejoin="round"/>
<path d="M164.213 414.339C163.49 413.66 162.985 412.782 162.762 411.816C162.538 410.851 162.606 409.84 162.956 408.913C163.307 407.986 163.925 407.184 164.732 406.608C165.539 406.032 166.498 405.708 167.489 405.677C168.48 405.647 169.457 405.911 170.298 406.436C171.139 406.961 171.805 407.724 172.212 408.628C172.62 409.531 172.75 410.536 172.586 411.513C172.422 412.491 171.972 413.398 171.293 414.12C170.842 414.6 170.302 414.986 169.702 415.257C169.103 415.527 168.456 415.677 167.798 415.697C167.14 415.717 166.485 415.608 165.87 415.375C165.255 415.142 164.692 414.79 164.213 414.339Z" fill="#999595"/>
<path d="M156.248 399.971L161.54 399.799" stroke="#999595" stroke-width="1.18911" stroke-linecap="round" stroke-linejoin="round"/>
<path d="M402.271 381.731C400.518 384.225 397.099 383.398 395.541 381.869C393.984 380.341 393.306 378.134 392.702 376.025C391.323 371.203 389.932 366.152 390.978 361.25C391.227 359.76 391.884 358.368 392.875 357.227C393.373 356.664 394.011 356.243 394.725 356.006C395.438 355.769 396.201 355.724 396.938 355.877C398.662 356.331 399.713 358.015 400.483 359.612C402.739 364.332 403.917 369.495 403.931 374.726C403.931 377.163 403.644 379.714 402.271 381.72" fill="#FF735D"/>
<path d="M402.271 381.731C400.518 384.225 397.099 383.398 395.541 381.869C393.984 380.341 393.306 378.134 392.702 376.025C391.323 371.203 389.932 366.152 390.978 361.25C391.227 359.76 391.884 358.368 392.875 357.227C393.373 356.664 394.011 356.243 394.725 356.006C395.438 355.769 396.201 355.724 396.938 355.877C398.662 356.331 399.713 358.015 400.483 359.612C402.739 364.332 403.917 369.495 403.931 374.726C403.931 377.163 403.644 379.714 402.271 381.72" fill="#D0F219"/>
<path d="M395.679 394.374C392.806 392.897 389.456 392.696 386.278 393.225C384.554 393.506 382.789 394.012 381.629 395.294C380.468 396.575 380.244 398.828 381.577 399.931C382.435 400.514 383.47 400.778 384.502 400.678C386.99 400.65 389.749 400.219 391.731 401.718C392.881 402.569 393.616 404.017 394.972 404.414C395.65 404.572 396.36 404.505 396.996 404.223C397.632 403.941 398.158 403.459 398.495 402.851C399.139 401.611 399.285 400.172 398.903 398.828C398.746 397.887 398.373 396.995 397.814 396.223C397.255 395.45 396.524 394.817 395.679 394.374Z" fill="#6AF219"/>
<path d="M407.052 385.323C405.156 383.064 404.799 379.777 405.644 376.956C406.489 374.134 408.408 371.732 410.609 369.772C413.209 367.471 416.233 365.698 419.511 364.554C420.778 364.043 422.14 363.812 423.505 363.876C424.186 363.917 424.847 364.124 425.429 364.478C426.012 364.833 426.5 365.325 426.85 365.91C427.781 367.692 426.884 369.853 425.913 371.611C424.2 374.714 422.248 377.679 420.074 380.478C418.321 382.725 416.322 384.943 413.655 385.961C410.989 386.978 408.23 386.851 406.822 385.001" fill="#B9F219"/>
<path d="M402.323 419.419C402.228 419.042 402.174 418.657 402.162 418.269C402.087 417.448 401.984 416.407 401.869 415.172C401.715 413.646 401.483 412.128 401.173 410.626C400.771 408.797 400.222 407.004 399.53 405.264C398.854 403.523 397.935 401.886 396.8 400.403C395.877 399.202 394.699 398.221 393.352 397.529C392.435 397.072 391.452 396.764 390.438 396.616C390.05 396.603 389.665 396.547 389.289 396.449C389.671 396.411 390.056 396.411 390.438 396.449C391.491 396.527 392.522 396.796 393.478 397.242C394.903 397.917 396.151 398.913 397.128 400.15C398.31 401.653 399.265 403.322 399.961 405.104C400.661 406.871 401.207 408.696 401.593 410.557C401.875 412.077 402.066 413.612 402.167 415.155C402.265 416.471 402.3 417.534 402.317 418.269C402.358 418.651 402.36 419.036 402.323 419.419Z" fill="#1A2E35"/>
<path d="M402.11 417.033C402.077 416.859 402.067 416.681 402.081 416.505C402.081 416.108 402.081 415.614 402.081 414.999C402.081 413.695 402.081 411.804 402.018 409.465C401.909 404.793 401.518 398.345 400.748 391.254C399.978 384.162 398.949 377.783 398.007 373.203C397.788 372.054 397.564 371.025 397.352 370.123C397.139 369.221 396.978 368.433 396.811 367.824C396.645 367.215 396.559 366.744 396.467 366.359C396.412 366.192 396.381 366.017 396.375 365.842C396.452 365.999 396.511 366.165 396.553 366.336L396.99 367.778C397.185 368.405 397.38 369.18 397.604 370.077C397.829 370.973 398.087 372.008 398.334 373.151C399.615 379.118 400.574 385.149 401.208 391.219C401.978 398.322 402.323 404.793 402.357 409.476C402.357 411.821 402.357 413.712 402.271 415.022C402.231 415.637 402.202 416.131 402.173 416.528C402.174 416.698 402.153 416.868 402.11 417.033Z" fill="#1A2E35"/>
<path d="M402.093 404.569C402.055 404.045 402.055 403.519 402.093 402.994C402.15 401.989 402.294 400.523 402.581 398.736C403.369 394.071 404.72 389.519 406.604 385.18C408.411 380.793 411.001 376.772 414.247 373.313C414.81 372.719 415.411 372.163 416.046 371.646C416.321 371.416 416.563 371.181 416.81 370.997L417.505 370.52C417.923 370.201 418.367 369.919 418.833 369.675C418.907 369.778 416.954 370.922 414.488 373.543C411.343 377.029 408.817 381.027 407.017 385.364C405.984 387.731 405.106 390.163 404.391 392.645C403.707 394.943 403.242 397.024 402.909 398.794C402.575 400.564 402.391 402.012 402.276 403.012C402.259 403.535 402.198 404.056 402.093 404.569Z" fill="#1A2E35"/>
<path d="M200.026 116.905C198.113 115.181 195.153 114.646 193.705 112.486C192.119 110.107 193.101 106.739 191.826 104.199C190.785 102.101 188.475 100.975 186.958 99.1935C184.78 96.6362 184.441 93.033 184.292 89.6769C183.924 81.4189 184.114 73.0114 182.102 65.012C180.091 57.0126 175.459 49.151 167.994 45.5823L140.249 45.1111C136.163 48.1971 133.927 53.2025 132.956 58.2309C131.985 63.2593 132.123 68.4141 131.876 73.5287C131.629 78.6432 130.939 83.8728 128.491 88.3667C126.767 91.5446 124.227 94.2169 122.428 97.3546C120.629 100.492 119.635 103.975 120.009 107.48C120.382 110.986 122.279 114.411 125.33 116.175C128.577 118.054 132.64 117.899 136.249 116.905C140.065 115.876 147.972 118.773 150.702 115.911C152.265 114.273 155.299 111.578 157.598 108.831L181.108 158.695C183.338 162.982 189.895 163.338 193.705 160.367C197.515 157.396 199.021 152.322 199.452 147.495C199.883 142.667 199.452 137.771 200.417 133.036C200.992 130.255 202.02 127.577 202.336 124.755C202.652 121.933 202.124 118.813 200.026 116.905Z" fill="#2C2C2C"/>
<path d="M72.1617 76.7125L38.7733 60.0011L32.1818 68.7073C32.1818 68.7073 65.6507 96.8663 69.1447 97.2053C71.61 92.8838 72.4088 85.6659 72.1617 76.7125Z" fill="#FFB380"/>
<path d="M24.3144 53.1569C22.8793 52.9963 21.432 52.9751 19.9929 53.0937C15.4644 53.7201 0.453991 51.272 0.453991 51.272L0 52.6914C0 55.2545 13.6427 58.3634 13.6427 58.3634L9.84988 62.7367C9.42047 63.2288 9.16589 63.8491 9.1258 64.5009L8.37298 77.546L9.67748 77.5115C11.8555 76.9943 12.0221 73.6267 12.0221 73.6267C14.3208 72.5464 26.6131 70.9258 29.837 70.9258C31.8957 70.8546 33.8584 70.0377 35.3596 68.6271L38.7559 60.007C38.7559 60.007 24.9925 53.2316 24.3144 53.1569Z" fill="#FFB380"/>
<path d="M26.5439 63.6445C26.5726 63.6445 26.3945 63.9433 25.9692 64.3456C25.348 64.9078 24.632 65.3554 23.8544 65.6673C22.7057 66.126 21.5022 66.4331 20.2742 66.5811C18.9065 66.7765 17.4008 66.8799 15.878 67.2017C14.4474 67.4611 13.0974 68.0515 11.9357 68.9257C11.467 69.2613 11.0722 69.6894 10.7757 70.1836C10.4791 70.6779 10.2872 71.2277 10.2117 71.7991C10.1796 72.1782 10.2693 72.5575 10.4678 72.8821C10.6662 73.2066 10.963 73.4594 11.3151 73.6036C11.5899 73.6891 11.8784 73.7222 12.1656 73.7013C12.1656 73.7013 11.8725 73.9599 11.2518 73.8047C10.8882 73.7096 10.5605 73.5097 10.3094 73.23C9.98271 72.835 9.81111 72.3345 9.82665 71.8221C9.87851 71.1825 10.0657 70.5613 10.3758 69.9996C10.6859 69.4378 11.1118 68.9484 11.6254 68.5637C12.8271 67.6024 14.2455 66.9494 15.7573 66.6615C17.3376 66.334 18.8548 66.242 20.2052 66.0869C21.3972 65.9631 22.5712 65.7048 23.705 65.3168C24.7326 64.9107 25.6905 64.3465 26.5439 63.6445Z" fill="#FF8B2E"/>
<path d="M17.6941 62.1963C17.8263 62.2422 17.2574 63.8628 15.7345 65.265C15.1348 65.8257 14.4526 66.2909 13.7116 66.6442L13.8151 66.4948C13.6599 67.2247 13.522 67.6442 13.4415 67.6442C13.3611 67.6442 13.3553 67.1672 13.4128 66.4259V66.3397L13.5105 66.2764C14.1668 65.8576 14.7842 65.3806 15.3552 64.8513C16.7976 63.5525 17.5504 62.1273 17.6941 62.1963Z" fill="#FF8B2E"/>
<path d="M23.0272 61.4493C23.0272 61.524 22.4008 61.4493 21.6422 60.8746C21.2572 60.616 20.8434 60.3 20.3607 59.9782C19.8322 59.6766 19.2434 59.496 18.6367 59.4495C15.9127 59.0644 13.7232 58.6334 13.7405 58.484C13.7577 58.3346 15.9874 58.5242 18.7114 58.9093C19.3963 58.9618 20.0577 59.1829 20.6365 59.5529C21.0699 59.8653 21.4844 60.203 21.8778 60.5643C22.5329 61.185 23.0444 61.3746 23.0272 61.4493Z" fill="#FF8B2E"/>
<path d="M165.712 181.148C165.712 181.148 181.499 194.268 182.74 203.077C183.981 211.887 186.441 231.208 186.441 231.208L180.826 298.68L179.7 385.03L153.392 384.639L143.203 243.46L129.301 299.059L127.48 380.122L98.4299 380.789L92.9647 301.059L109.659 186.584L165.712 181.148Z" fill="#3A3A3A"/>
<path d="M137.76 189.204C137.732 189.141 138.427 189.095 138.944 189.894C139.09 190.126 139.182 190.388 139.213 190.661C139.244 190.934 139.213 191.21 139.122 191.469C138.976 191.78 138.745 192.045 138.456 192.232C138.167 192.419 137.831 192.521 137.486 192.526C137.142 192.532 136.803 192.44 136.508 192.262C136.213 192.085 135.974 191.827 135.818 191.52C135.72 191.264 135.681 190.988 135.705 190.714C135.729 190.441 135.815 190.176 135.956 189.94C136.444 189.124 137.145 189.147 137.105 189.21C137.065 189.273 136.588 189.417 136.283 190.112C136.201 190.302 136.158 190.506 136.158 190.713C136.158 190.92 136.201 191.124 136.283 191.313C136.407 191.519 136.583 191.689 136.793 191.806C137.003 191.922 137.24 191.982 137.48 191.978C137.72 191.975 137.955 191.908 138.162 191.786C138.368 191.663 138.539 191.488 138.657 191.279C138.731 191.087 138.764 190.882 138.755 190.676C138.746 190.47 138.695 190.269 138.605 190.084C138.283 189.394 137.726 189.285 137.76 189.204Z" fill="#2C2C2C"/>
<path d="M124.526 197.577C124.394 197.577 124.129 195.313 124.802 192.606C125.474 189.9 126.732 188.009 126.847 188.067C126.962 188.124 125.957 190.107 125.33 192.733C124.704 195.359 124.704 197.572 124.526 197.577Z" fill="#2C2C2C"/>
<path d="M121.923 198.026C121.785 198.026 121.405 195.52 121.848 192.423C122.29 189.325 123.348 187.004 123.474 187.061C123.601 187.119 122.808 189.475 122.394 192.503C121.98 195.532 122.089 198.02 121.923 198.026Z" fill="#2C2C2C"/>
<path d="M112.147 201.985C112.534 202.297 112.966 202.547 113.429 202.727C113.933 202.872 114.465 202.884 114.975 202.761C115.594 202.589 116.156 202.254 116.601 201.79C117.406 200.89 117.953 199.791 118.187 198.606C118.255 198.088 118.392 197.582 118.595 197.101C118.698 197.622 118.688 198.158 118.567 198.675C118.428 199.981 117.874 201.208 116.986 202.175C116.472 202.713 115.81 203.087 115.084 203.25C114.487 203.373 113.868 203.317 113.303 203.089C112.326 202.681 112.061 201.997 112.147 201.985Z" fill="#2C2C2C"/>
<path d="M151.984 187.917C152.087 187.917 152.208 189.193 153.035 191.055C154.093 193.493 155.897 195.533 158.187 196.88C160.478 198.228 163.137 198.814 165.781 198.555C166.875 198.42 167.961 198.228 169.034 197.98C168.79 198.159 168.515 198.293 168.224 198.376C167.45 198.661 166.646 198.853 165.827 198.951C163.085 199.328 160.296 198.769 157.91 197.366C155.525 195.962 153.682 193.796 152.679 191.216C152.373 190.45 152.155 189.652 152.03 188.837C151.958 188.536 151.942 188.224 151.984 187.917Z" fill="#2C2C2C"/>
<path d="M150.978 193.509C150.84 193.566 150.128 192.061 149.392 190.147C148.656 188.234 148.168 186.642 148.312 186.584C148.455 186.527 149.162 188.038 149.898 189.952C150.633 191.865 151.139 193.457 150.978 193.509Z" fill="#2C2C2C"/>
<path d="M148.386 195.33C148.254 195.388 147.38 193.744 146.662 191.561C145.944 189.377 145.72 187.538 145.863 187.498C146.007 187.457 146.495 189.222 147.185 191.394C147.875 193.566 148.53 195.267 148.386 195.33Z" fill="#2C2C2C"/>
<path d="M146.156 232.707C146.016 232.805 145.858 232.875 145.691 232.914C145.216 233.055 144.716 233.093 144.226 233.023C143.324 232.873 142.472 232.509 141.741 231.961C141.01 231.413 140.421 230.697 140.025 229.874C138.916 227.834 138.496 225.15 137.783 222.283C137.071 219.415 136.433 216.191 135.784 212.824C134.473 206.094 133.554 199.951 132.985 195.497C132.703 193.267 132.502 191.474 132.41 190.21C132.364 189.636 132.324 189.164 132.29 188.768C132.266 188.6 132.266 188.43 132.29 188.262C132.35 188.421 132.389 188.587 132.405 188.756C132.468 189.147 132.542 189.618 132.629 190.187C132.824 191.515 133.083 193.29 133.404 195.445C134.071 199.882 135.048 206.002 136.353 212.72C137.008 216.082 137.674 219.271 138.306 222.168C138.939 225.064 139.387 227.736 140.398 229.69C140.76 230.478 141.3 231.172 141.977 231.714C142.653 232.257 143.447 232.634 144.295 232.816C144.916 232.902 145.549 232.865 146.156 232.707Z" fill="#2C2C2C"/>
<path d="M174.471 305.185C174.24 305.389 173.978 305.556 173.695 305.679C172.963 306.082 172.209 306.445 171.437 306.765C166.316 308.928 160.746 309.812 155.208 309.34C154.373 309.275 153.542 309.164 152.719 309.006C152.412 308.98 152.111 308.902 151.829 308.776C151.829 308.685 153.133 308.863 155.231 308.955C160.702 309.207 166.168 308.34 171.293 306.409C173.258 305.673 174.431 305.104 174.471 305.185Z" fill="#375A64"/>
<path d="M173.126 307.546C172.386 308.134 171.578 308.628 170.718 309.018C168.699 310.067 166.593 310.941 164.425 311.632C162.26 312.338 160.04 312.861 157.788 313.196C156.86 313.373 155.915 313.441 154.972 313.397C154.972 313.31 156.024 313.15 157.725 312.822C162.149 311.968 166.455 310.586 170.551 308.707C172.126 307.955 173.086 307.449 173.126 307.546Z" fill="#375A64"/>
<path d="M162.391 102.039C162.391 102.039 141.369 96.3954 141.369 96.6769H138.818L136.519 134.22L145.139 145.271L153.983 137.03L168.488 115.595L169.298 107.147L169.678 105.458L162.391 102.039Z" fill="#FFB380"/>
<path d="M165.328 103.44C165.328 103.44 158.822 113.21 154.012 116.537C149.202 119.864 142.151 117.686 140.674 115.325C139.197 112.963 139.243 111.652 139.243 111.652L138.841 96.5443L130.795 97.4867C130.795 97.4867 116.193 141.461 116.084 148.121C115.975 154.782 112.808 185.676 112.808 185.676C112.808 185.676 121.084 188.084 126.847 187.526C132.611 186.969 158.385 184.239 158.385 184.239L165.724 181.182L172.206 106.641L165.328 103.44Z" fill="#E1E1E1"/>
<path d="M102.211 92.3611L82.9081 81.8158C80.5462 74.9197 72.7996 71.0867 68.0585 74.6554L72.0812 76.6782C72.0812 76.6782 72.8283 94.4299 69.1389 97.2055L64.4553 93.8667C64.4553 93.8667 61.898 103.458 64.6565 106.596C67.4149 109.733 72.2019 109.653 72.2019 109.653L75.1385 106.596C76.7582 112.433 80.4981 117.456 85.6263 120.681C94.1774 125.985 109.837 127.439 113.291 132.243L122.285 127.284L123.612 95.585L102.211 92.3611Z" fill="#D4F0FF"/>
<path d="M139.071 94.7626L134.967 95.7396L130.784 95.5442C130.784 95.5442 112.481 132.076 111.279 137.673C110.078 143.271 107.354 165.694 107.354 165.694C107.354 165.694 102.625 176.36 100.631 180.182C98.6367 184.004 86.7755 213.622 86.7755 213.622C86.7755 213.622 85.3445 223.621 89.6488 224.282C93.9531 224.943 97.9069 223.236 101.188 224.564C103.176 225.37 105.243 225.967 107.354 226.345L110.412 210.726C110.412 210.726 114.934 192.67 116.084 187.572C117.233 182.475 120.239 172.01 120.566 167.855C120.894 163.7 120.4 151.575 121.066 148.253C121.733 144.932 126.549 143.265 128.376 140.782C130.203 138.3 135.358 125.335 135.847 118.853C136.335 112.371 139.071 94.7626 139.071 94.7626Z" fill="#D4F0FF"/>
<path d="M111.291 106.141C111.385 106.476 111.43 106.823 111.423 107.17C111.475 107.837 111.527 108.796 111.578 109.986C111.682 112.503 111.814 115.733 111.958 119.25C112.101 122.767 112.389 126.146 112.705 128.479C113.021 130.812 113.383 132.243 113.279 132.266C113.116 131.96 112.994 131.633 112.917 131.295C112.661 130.388 112.456 129.467 112.302 128.536C111.822 125.47 111.519 122.379 111.395 119.278C111.216 115.652 111.176 112.382 111.17 109.992C111.17 108.906 111.17 107.969 111.17 107.176C111.163 106.827 111.204 106.479 111.291 106.141Z" fill="#1A2E35"/>
<path d="M134.979 95.74C135.012 96.244 134.999 96.7499 134.939 97.2514C134.87 98.2169 134.738 99.6133 134.473 101.332C133.76 105.796 132.686 110.195 131.261 114.486C130.56 116.681 129.83 118.767 129.14 120.687L128.727 120.405C130.395 118.971 132.356 117.918 134.473 117.319L134.605 117.284L134.686 117.382C135.221 118.093 135.538 118.943 135.6 119.83C135.665 120.48 135.642 121.135 135.531 121.778C135.469 122.183 135.369 122.582 135.232 122.968C135.196 123.108 135.136 123.24 135.054 123.359C135.002 123.359 135.203 122.784 135.312 121.75C135.386 121.125 135.386 120.495 135.312 119.871C135.222 119.057 134.908 118.285 134.404 117.641L134.611 117.704C132.575 118.335 130.693 119.386 129.089 120.79L128.353 121.434L128.675 120.514C129.347 118.595 130.066 116.491 130.767 114.319C132.173 110.048 133.293 105.688 134.117 101.268C134.427 99.5443 134.617 98.1824 134.755 97.2457C134.779 96.7375 134.854 96.2331 134.979 95.74Z" fill="#1A2E35"/>
<path d="M102.211 225.61C102.197 225.519 102.197 225.426 102.211 225.335C102.246 225.122 102.292 224.858 102.349 224.53C102.493 223.783 102.694 222.754 102.924 221.444L105.222 210.14L113.05 172.873C114.538 165.586 115.923 158.644 117.021 152.294C117.53 149.276 118.251 146.298 119.176 143.381C120.008 140.839 121.098 138.39 122.428 136.071C124.381 132.744 126.595 129.577 129.048 126.6C129.905 125.537 130.583 124.727 131.043 124.175L131.577 123.56C131.634 123.485 131.699 123.418 131.772 123.359C131.731 123.443 131.681 123.522 131.623 123.595L131.129 124.244L129.301 126.732C126.922 129.748 124.765 132.932 122.848 136.26C121.558 138.569 120.502 141.001 119.693 143.518C118.796 146.423 118.097 149.386 117.601 152.386C116.532 158.742 115.159 165.695 113.67 172.982C110.676 187.556 107.78 200.704 105.688 210.221C104.642 214.944 103.792 218.783 103.194 221.49C102.895 222.789 102.663 223.81 102.499 224.553L102.303 225.346C102.282 225.437 102.252 225.526 102.211 225.61Z" fill="#1A2E35"/>
<path d="M111.418 136.628C111.475 136.484 113.406 137.099 115.739 137.996C118.072 138.892 119.917 139.72 119.865 139.881C119.814 140.041 117.877 139.409 115.544 138.507C113.211 137.605 111.366 136.772 111.418 136.628Z" fill="#375A64"/>
<path d="M130.795 95.5448C130.795 95.723 124.342 115.819 122.75 119.629C121.158 123.439 113.32 132.272 113.32 132.272L112.061 124.485L122.313 95.5448H130.795Z" fill="#FF9900"/>
<path d="M124.382 116.083C124.239 116.083 124.096 116.065 123.957 116.031L116.417 114.181C116.177 114.124 115.952 114.019 115.754 113.871C115.557 113.724 115.391 113.538 115.268 113.325C115.147 113.115 115.072 112.882 115.048 112.642C115.023 112.401 115.049 112.158 115.124 111.928L116.239 108.354C116.375 107.918 116.674 107.551 117.073 107.33C117.472 107.108 117.941 107.049 118.383 107.164L126.037 109.187C126.273 109.25 126.494 109.361 126.685 109.513C126.876 109.665 127.034 109.855 127.149 110.071C127.263 110.286 127.333 110.523 127.352 110.766C127.371 111.01 127.341 111.255 127.261 111.486L126.055 114.934C125.927 115.274 125.699 115.566 125.399 115.772C125.1 115.978 124.745 116.086 124.382 116.083ZM117.963 108.158C117.809 108.157 117.658 108.205 117.534 108.296C117.41 108.388 117.318 108.517 117.274 108.664L116.153 112.239C116.122 112.333 116.111 112.433 116.121 112.532C116.131 112.631 116.162 112.727 116.21 112.813C116.26 112.899 116.326 112.973 116.405 113.032C116.484 113.092 116.574 113.134 116.67 113.158L124.204 115.014C124.379 115.059 124.565 115.035 124.723 114.949C124.882 114.863 125.002 114.72 125.06 114.549L126.267 111.101C126.301 111.008 126.315 110.908 126.308 110.809C126.301 110.71 126.274 110.614 126.227 110.526C126.18 110.439 126.115 110.362 126.037 110.301C125.959 110.239 125.869 110.195 125.773 110.17L118.147 108.17C118.085 108.166 118.024 108.17 117.963 108.181V108.158Z" fill="white"/>
<path d="M129.382 96.5442C129.244 96.4925 129.209 96.2281 129.313 95.9695C129.416 95.7109 129.606 95.5213 129.75 95.573C129.893 95.6247 129.922 95.8891 129.824 96.1477C129.727 96.4063 129.525 96.5787 129.382 96.5442Z" fill="#1A2E35"/>
<path d="M128.658 98.4924C128.514 98.4407 128.479 98.1763 128.583 97.9177C128.686 97.6591 128.876 97.4695 129.02 97.5212C129.163 97.5729 129.198 97.8373 129.094 98.0959C128.991 98.3545 128.795 98.5441 128.658 98.4924Z" fill="#1A2E35"/>
<path d="M127.934 100.464C127.79 100.412 127.756 100.148 127.859 99.8892C127.962 99.6306 128.152 99.4352 128.296 99.4869C128.439 99.5386 128.468 99.803 128.37 100.062C128.273 100.32 128.072 100.516 127.934 100.464Z" fill="#1A2E35"/>
<path d="M127.21 102.435C127.072 102.383 127.037 102.119 127.135 101.86C127.232 101.602 127.428 101.406 127.572 101.458C127.715 101.51 127.75 101.774 127.646 102.033C127.543 102.291 127.353 102.487 127.21 102.435Z" fill="#1A2E35"/>
<path d="M126.497 104.406C126.353 104.36 126.319 104.096 126.416 103.831C126.514 103.567 126.71 103.383 126.853 103.435C126.997 103.486 127.031 103.745 126.934 104.009C126.836 104.274 126.641 104.458 126.497 104.406Z" fill="#1A2E35"/>
<path d="M125.79 106.389C125.646 106.337 125.612 106.073 125.709 105.814C125.807 105.555 125.997 105.36 126.14 105.406C126.284 105.452 126.319 105.722 126.221 105.981C126.123 106.239 125.928 106.44 125.79 106.389Z" fill="#1A2E35"/>
<path d="M125.089 108.371C124.945 108.319 124.911 108.061 125.003 107.796C125.095 107.532 125.296 107.342 125.44 107.388C125.583 107.434 125.618 107.704 125.52 107.963C125.422 108.222 125.233 108.423 125.089 108.371Z" fill="#1A2E35"/>
<path d="M124.405 110.337C124.262 110.291 124.221 110.026 124.313 109.762C124.405 109.498 124.601 109.302 124.744 109.354C124.888 109.406 124.928 109.664 124.83 109.929C124.733 110.193 124.543 110.411 124.405 110.337Z" fill="#1A2E35"/>
<path d="M123.738 112.359C123.595 112.307 123.555 112.049 123.647 111.784C123.738 111.52 123.928 111.319 124.072 111.371C124.215 111.422 124.256 111.675 124.164 111.945C124.072 112.215 123.882 112.405 123.738 112.359Z" fill="#1A2E35"/>
<path d="M123.055 114.359C122.911 114.308 122.877 114.043 122.968 113.785C123.06 113.526 123.262 113.325 123.405 113.377C123.549 113.428 123.583 113.687 123.486 113.951C123.388 114.216 123.198 114.399 123.055 114.359Z" fill="#1A2E35"/>
<path d="M122.33 116.325C122.187 116.267 122.158 116.003 122.256 115.75C122.353 115.497 122.555 115.302 122.698 115.354C122.842 115.405 122.871 115.67 122.767 115.928C122.664 116.187 122.468 116.377 122.33 116.325Z" fill="#1A2E35"/>
<path d="M121.555 118.279C121.417 118.221 121.394 117.957 121.497 117.704C121.601 117.451 121.808 117.267 121.951 117.319C122.095 117.371 122.118 117.641 122.009 117.894C121.9 118.146 121.698 118.336 121.555 118.279Z" fill="#1A2E35"/>
<path d="M120.733 120.215C120.595 120.152 120.578 119.888 120.693 119.64C120.808 119.393 121.015 119.209 121.153 119.267C121.291 119.324 121.308 119.589 121.193 119.842C121.078 120.094 120.871 120.278 120.733 120.215Z" fill="#1A2E35"/>
<path d="M119.854 122.123C119.722 122.06 119.71 121.795 119.854 121.548C119.997 121.301 120.187 121.129 120.325 121.192C120.463 121.255 120.474 121.52 120.325 121.767C120.176 122.014 119.992 122.192 119.854 122.123Z" fill="#1A2E35"/>
<path d="M118.917 124.002C118.779 123.933 118.779 123.669 118.917 123.427C119.055 123.186 119.262 123.019 119.4 123.083C119.538 123.146 119.538 123.416 119.4 123.657C119.262 123.899 119.049 124.071 118.917 124.002Z" fill="#1A2E35"/>
<path d="M117.911 125.853C117.779 125.778 117.785 125.514 117.911 125.278C118.038 125.042 118.273 124.881 118.406 124.95C118.538 125.019 118.532 125.289 118.406 125.525C118.279 125.761 118.043 125.922 117.911 125.853Z" fill="#1A2E35"/>
<path d="M116.837 127.651C116.71 127.571 116.727 127.307 116.877 127.077C117.026 126.847 117.25 126.692 117.382 126.772C117.515 126.853 117.497 127.111 117.342 127.347C117.187 127.583 116.963 127.732 116.837 127.651Z" fill="#1A2E35"/>
<path d="M116.084 128.835C115.963 128.755 115.9 128.617 115.958 128.536C116.015 128.456 116.159 128.456 116.285 128.536C116.411 128.617 116.469 128.755 116.411 128.835C116.354 128.916 116.199 128.921 116.084 128.835Z" fill="#1A2E35"/>
<path d="M112.636 124.186C112.779 124.232 112.825 124.496 112.734 124.761C112.642 125.025 112.452 125.22 112.308 125.169C112.165 125.117 112.119 124.864 112.211 124.594C112.302 124.324 112.486 124.128 112.636 124.186Z" fill="#1A2E35"/>
<path d="M113.314 122.203C113.458 122.255 113.498 122.52 113.4 122.778C113.303 123.037 113.113 123.232 112.969 123.18C112.826 123.129 112.785 122.87 112.883 122.606C112.981 122.341 113.176 122.152 113.314 122.203Z" fill="#1A2E35"/>
<path d="M114.027 120.232C114.165 120.284 114.205 120.549 114.107 120.807C114.009 121.066 113.808 121.255 113.67 121.204C113.532 121.152 113.492 120.893 113.59 120.629C113.688 120.365 113.883 120.181 114.027 120.232Z" fill="#1A2E35"/>
<path d="M114.751 118.267C114.894 118.319 114.923 118.583 114.825 118.842C114.728 119.1 114.527 119.29 114.389 119.238C114.251 119.187 114.211 118.922 114.314 118.664C114.417 118.405 114.607 118.215 114.751 118.267Z" fill="#1A2E35"/>
<path d="M115.509 116.296C115.653 116.354 115.682 116.612 115.578 116.871C115.475 117.129 115.28 117.319 115.142 117.262C115.004 117.204 114.969 116.945 115.067 116.687C115.165 116.428 115.343 116.244 115.509 116.296Z" fill="#1A2E35"/>
<path d="M116.228 114.359C116.371 114.417 116.4 114.681 116.297 114.934C116.193 115.187 115.998 115.382 115.86 115.325C115.722 115.267 115.687 115.009 115.785 114.75C115.883 114.492 116.084 114.279 116.228 114.359Z" fill="#1A2E35"/>
<path d="M116.975 112.371C117.118 112.423 117.147 112.687 117.044 112.945C116.94 113.204 116.745 113.394 116.601 113.342C116.457 113.29 116.429 113.026 116.532 112.767C116.636 112.509 116.837 112.319 116.975 112.371Z" fill="#1A2E35"/>
<path d="M117.727 110.406C117.865 110.463 117.9 110.728 117.796 110.98C117.693 111.233 117.492 111.429 117.354 111.371C117.216 111.314 117.181 111.055 117.285 110.797C117.388 110.538 117.584 110.337 117.727 110.406Z" fill="#1A2E35"/>
<path d="M118.475 108.446C118.618 108.497 118.647 108.762 118.543 109.02C118.44 109.279 118.245 109.469 118.101 109.417C117.957 109.365 117.929 109.101 118.032 108.842C118.135 108.584 118.337 108.394 118.475 108.446Z" fill="#1A2E35"/>
<path d="M119.222 106.481C119.365 106.538 119.394 106.797 119.291 107.055C119.187 107.314 118.992 107.498 118.848 107.446C118.704 107.395 118.676 107.13 118.779 106.872C118.883 106.613 119.084 106.429 119.222 106.481Z" fill="#1A2E35"/>
<path d="M119.969 104.515C120.107 104.572 120.141 104.831 120.038 105.09C119.934 105.348 119.739 105.538 119.595 105.48C119.452 105.423 119.423 105.164 119.526 104.906C119.63 104.647 119.825 104.463 119.969 104.515Z" fill="#1A2E35"/>
<path d="M120.681 102.549C120.819 102.601 120.854 102.866 120.75 103.124C120.647 103.383 120.451 103.572 120.314 103.521C120.176 103.469 120.141 103.205 120.239 102.946C120.337 102.687 120.561 102.498 120.681 102.549Z" fill="#1A2E35"/>
<path d="M121.428 100.567C121.572 100.619 121.606 100.883 121.503 101.142C121.4 101.4 121.21 101.59 121.066 101.538C120.923 101.486 120.894 101.228 120.992 100.963C121.089 100.699 121.29 100.527 121.428 100.567Z" fill="#1A2E35"/>
<path d="M122.141 98.6016C122.285 98.6533 122.319 98.9119 122.221 99.1763C122.124 99.4406 121.928 99.6303 121.79 99.5785C121.653 99.5268 121.612 99.2625 121.71 99.0039C121.808 98.7453 122.003 98.5499 122.141 98.6016Z" fill="#1A2E35"/>
<path d="M122.842 96.6191C122.98 96.6651 123.02 96.9295 122.922 97.1938C122.825 97.4582 122.635 97.6478 122.491 97.5961C122.348 97.5444 122.313 97.2858 122.411 97.0214C122.509 96.7571 122.698 96.5444 122.842 96.6191Z" fill="#1A2E35"/>
<path d="M123.233 95.4642C123.376 95.5102 123.48 95.5849 123.463 95.6309C123.445 95.6768 123.325 95.6711 123.181 95.6309C123.037 95.5906 122.934 95.5102 122.945 95.4642C122.957 95.4182 123.089 95.3952 123.233 95.4642Z" fill="#1A2E35"/>
<path d="M128.537 108.934C128.516 109.306 128.445 109.674 128.324 110.026C128.079 110.999 127.784 111.958 127.439 112.9C125.182 119.216 121.474 124.915 116.613 129.536C115.881 130.236 115.114 130.898 114.314 131.519C114.038 131.77 113.731 131.985 113.4 132.157C113.343 132.082 114.55 131.071 116.331 129.284C120.984 124.563 124.636 118.951 127.066 112.785C128.008 110.429 128.451 108.911 128.537 108.934Z" fill="#1A2E35"/>
<path d="M71.7248 74.7812C71.9167 75.0885 72.0402 75.4334 72.0869 75.7927C72.2607 76.7412 72.3587 77.702 72.38 78.666C72.4505 81.8575 72.3084 85.0502 71.9547 88.2228C71.7957 89.979 71.5386 91.7249 71.1846 93.4524C70.8924 94.8914 70.2882 96.2488 69.4146 97.4291C68.8076 98.2239 68.0195 98.8622 67.116 99.291C66.7987 99.4671 66.4442 99.5656 66.0815 99.5784C67.2826 99.0758 68.321 98.2503 69.0813 97.1935C69.8673 96.0317 70.4071 94.7214 70.6674 93.3432C70.995 91.7858 71.1789 90.0101 71.3858 88.1711C71.7651 84.476 71.9604 81.1084 71.9604 78.6775C71.973 77.7183 71.9327 76.759 71.8398 75.8042C71.7995 75.1548 71.6789 74.7985 71.7248 74.7812Z" fill="#1A2E35"/>
<path d="M79.3335 79.9367C79.4969 80.322 79.6146 80.7251 79.6841 81.1378C79.8103 81.6123 79.9082 82.094 79.9771 82.5802C80.0633 83.1549 80.1955 83.787 80.2472 84.5111C80.4281 86.1961 80.478 87.8927 80.3967 89.5855C80.2008 93.7461 79.2465 97.8359 77.5808 101.654C76.9046 103.207 76.1092 104.706 75.2016 106.136C74.8338 106.762 74.4316 107.285 74.104 107.751C73.824 108.15 73.5228 108.533 73.2018 108.9C72.9563 109.24 72.6729 109.55 72.357 109.825C72.2708 109.756 73.4144 108.383 74.8683 105.923C75.7193 104.483 76.4701 102.985 77.1153 101.441C78.7037 97.6603 79.6421 93.6385 79.8909 89.5452C79.9953 87.8761 79.9857 86.2019 79.8622 84.5341C79.6438 81.6895 79.2301 79.9539 79.3335 79.9367Z" fill="#1A2E35"/>
<path d="M174.591 107.681C174.591 107.681 182.74 110.606 186.085 114.364C189.429 118.123 200.147 170.539 200.147 170.539C200.147 170.539 205.422 174.441 206.784 179.55C207.388 181.802 205.595 186.135 205.02 187.348C203.141 191.313 192.561 192.687 187.338 192.48C182.114 192.273 174.591 183.894 174.591 183.894L175.43 169.527L174.591 107.681Z" fill="#D4F0FF"/>
<path d="M169.787 105.509C169.787 105.509 164.264 126.427 163.782 127.416C163.299 128.404 156.937 165.201 158.713 171.792C160.489 178.383 172.407 184.193 170.885 192.193C169.362 200.192 165.305 211.352 167.333 221.116C169.362 230.88 175.447 233.42 175.447 233.42L186.102 225.811C186.102 225.811 189.395 213.381 188.131 205.014C186.866 196.647 181.022 188.279 181.022 188.279C181.022 188.279 177.47 138.064 176.965 137.306C176.459 136.547 174.591 107.676 174.591 107.676L169.787 105.509Z" fill="#D4F0FF"/>
<path d="M174.574 107.676C174.604 108.109 174.59 108.544 174.534 108.974C174.459 109.813 174.333 111.015 174.114 112.497C173.689 115.468 172.884 119.531 171.816 123.991C171.172 126.64 170.511 129.122 169.925 131.272L169.758 131.881L169.477 131.306C168.822 130.002 168.936 128.697 168.684 127.674C168.431 126.651 167.937 125.795 167.247 125.537C166.979 125.428 166.688 125.388 166.401 125.421C166.114 125.454 165.839 125.559 165.603 125.726C165.287 125.979 165.247 126.232 165.207 126.215C165.167 126.197 165.207 126.157 165.207 126.042C165.264 125.881 165.358 125.735 165.483 125.617C165.729 125.4 166.029 125.253 166.351 125.191C166.674 125.129 167.007 125.155 167.316 125.266C168.172 125.537 168.793 126.49 169.04 127.565C169.287 128.64 169.27 129.944 169.873 131.053L169.425 131.111C169.971 128.933 170.574 126.456 171.252 123.83C172.333 119.399 173.195 115.365 173.712 112.428C173.948 111.038 174.143 109.871 174.287 108.94C174.333 108.509 174.43 108.085 174.574 107.676Z" fill="#1A2E35"/>
<path d="M176.574 134.726C176.638 134.911 176.675 135.105 176.683 135.3C176.741 135.737 176.804 136.283 176.89 136.944C177.051 138.375 177.241 140.449 177.413 143.012C177.781 148.144 177.907 155.247 178.068 163.08C178.166 166.999 178.304 170.729 178.516 174.114C178.631 175.803 178.741 177.412 178.878 178.918C178.936 179.671 179.022 180.378 179.034 181.113C179.012 181.794 178.953 182.473 178.856 183.148C178.652 184.274 178.563 185.417 178.591 186.561C178.633 187.41 178.961 188.221 179.522 188.86C179.736 189.082 179.977 189.275 180.24 189.434C180.417 189.571 180.61 189.684 180.815 189.774C180.995 189.844 181.167 189.934 181.327 190.044C181.129 190.012 180.936 189.956 180.752 189.877C180.526 189.805 180.312 189.702 180.114 189.572C179.827 189.418 179.562 189.224 179.327 188.998C178.696 188.341 178.314 187.486 178.246 186.578C178.184 185.412 178.246 184.243 178.43 183.09C178.512 182.43 178.558 181.767 178.568 181.102C178.568 180.435 178.453 179.694 178.384 178.947C178.229 177.441 178.103 175.832 177.976 174.137C177.729 170.74 177.58 167.005 177.482 163.08C177.321 155.241 177.258 148.139 176.988 143.024C176.867 140.461 176.735 138.386 176.637 136.955C176.597 136.289 176.563 135.743 176.534 135.3C176.525 135.108 176.539 134.915 176.574 134.726Z" fill="#1A2E35"/>
<path d="M176.574 232.598C176.487 232.555 176.404 232.503 176.327 232.443C176.166 232.328 175.93 232.156 175.637 231.92C174.772 231.226 173.949 230.481 173.172 229.69C171.934 228.439 170.795 227.094 169.764 225.668C169.084 224.781 168.599 223.761 168.339 222.674C168.103 221.457 168.001 220.218 168.034 218.978C168.129 216.158 168.477 213.352 169.074 210.594C169.362 209.106 169.712 207.577 170.057 205.997C170.235 205.215 170.408 204.416 170.546 203.612C170.592 203.198 170.638 202.79 170.678 202.37C170.718 201.951 170.81 201.526 170.89 201.106C171.224 199.422 171.649 197.727 172.109 196.003L172.821 193.394C173.107 192.544 173.299 191.665 173.396 190.773C173.467 188.929 173.025 187.101 172.12 185.492C171.199 183.807 170.074 182.242 168.77 180.832C167.449 179.398 166.203 177.898 165.035 176.338C163.905 174.785 163.088 173.029 162.627 171.166C161.759 167.471 162.161 163.816 162.517 160.448C163.293 153.69 163.989 147.604 164.575 142.472C165.161 137.34 165.661 133.278 166.006 130.364C166.178 128.967 166.322 127.864 166.419 127.071C166.471 126.721 166.511 126.439 166.54 126.221C166.549 126.121 166.57 126.022 166.603 125.927C166.616 126.027 166.616 126.127 166.603 126.226C166.603 126.45 166.563 126.732 166.534 127.083C166.462 127.879 166.356 128.981 166.218 130.387C165.919 133.26 165.488 137.427 164.96 142.518C164.431 147.61 163.753 153.742 163.023 160.5C162.678 163.867 162.305 167.471 163.15 171.039C163.598 172.84 164.393 174.536 165.488 176.033C166.646 177.579 167.881 179.066 169.189 180.487C170.519 181.929 171.668 183.529 172.609 185.251C173.558 186.948 174.018 188.876 173.936 190.819C173.905 191.3 173.824 191.775 173.695 192.239C173.565 192.676 173.438 193.112 173.316 193.549C173.068 194.428 172.833 195.273 172.591 196.152C172.132 197.876 171.706 199.554 171.367 201.215C171.287 201.629 171.212 202.037 171.155 202.445C171.097 202.853 171.063 203.284 171.017 203.698C170.867 204.531 170.689 205.33 170.511 206.117C170.155 207.686 169.799 209.209 169.5 210.715C168.892 213.443 168.525 216.22 168.402 219.013C168.36 220.224 168.446 221.435 168.661 222.628C168.899 223.669 169.356 224.648 170 225.501C171.001 226.921 172.106 228.265 173.304 229.524C174.298 230.564 175.12 231.322 175.689 231.822L176.344 232.397C176.505 232.523 176.58 232.587 176.574 232.598Z" fill="#1A2E35"/>
<path d="M178.792 252.936C169.023 252.511 158.351 254.396 151.961 261.792C146.099 268.578 146.789 278.658 147.835 287.571C148.88 296.485 150.622 306.599 158.219 311.38C162.719 314.213 168.322 314.472 173.637 314.524C191.342 314.696 209.033 313.518 226.559 311.001C232.231 310.185 238.455 308.903 241.903 304.323C244.902 300.352 244.966 294.967 244.908 289.991C244.82 282.524 244.732 275.053 244.644 267.579C244.586 262.843 244.276 257.516 240.736 254.361C237.782 251.735 233.478 251.488 229.53 251.384C212.52 250.97 195.797 252.252 178.792 252.901" fill="#FF9900"/>
<path d="M163.011 311.035C163.936 311.06 164.861 311.031 165.781 310.949C168.281 310.596 170.635 309.562 172.586 307.961C173.948 306.885 175.114 305.583 176.034 304.11C177.076 302.42 177.822 300.564 178.24 298.622C179.189 294.525 178.867 289.766 177.436 285.129C176.005 280.491 173.85 276.308 171.884 272.561C169.919 268.814 167.764 265.619 165.27 263.63C163.339 262.008 160.98 260.978 158.477 260.665C157.554 260.596 156.626 260.619 155.707 260.734C155.937 260.652 156.173 260.593 156.414 260.556C157.102 260.446 157.799 260.411 158.495 260.452C161.067 260.691 163.51 261.691 165.511 263.326C168.097 265.326 170.339 268.578 172.327 272.325C174.315 276.072 176.528 280.233 177.964 284.968C179.401 289.703 179.734 294.542 178.735 298.76C178.295 300.749 177.517 302.648 176.436 304.375C175.482 305.878 174.272 307.202 172.861 308.288C170.845 309.893 168.413 310.889 165.85 311.162C164.903 311.272 163.945 311.23 163.011 311.035Z" fill="#1A2E35"/>
<path d="M239.368 255.24C239.368 255.309 238.282 255.004 236.305 254.941C233.504 254.933 230.718 255.36 228.047 256.205C224.628 257.136 220.686 258.774 216.031 259.694C210.994 260.674 205.86 261.06 200.733 260.843C195.291 260.676 190.13 260.136 185.447 259.694C180.763 259.251 176.545 258.86 172.994 258.74C171.218 258.671 169.609 258.653 168.201 258.659C166.793 258.665 165.575 258.694 164.581 258.763L162.282 258.912C162.014 258.934 161.745 258.934 161.477 258.912C161.738 258.85 162.003 258.81 162.27 258.791L164.569 258.538C165.557 258.435 166.782 258.418 168.195 258.337C169.609 258.257 171.224 258.297 173.005 258.337C176.574 258.406 180.809 258.751 185.493 259.171C190.176 259.59 195.331 260.113 200.75 260.28C205.834 260.493 210.926 260.127 215.927 259.188C220.525 258.309 224.484 256.711 227.944 255.82C230.654 254.997 233.48 254.624 236.311 254.717C237.348 254.761 238.375 254.937 239.368 255.24Z" fill="#1A2E35"/>
<path d="M232.409 255.154C232.472 255.108 232.863 255.539 233.449 256.269C233.816 256.695 234.145 257.153 234.432 257.637C234.543 257.809 234.617 258.002 234.65 258.204C234.683 258.406 234.674 258.613 234.623 258.812C234.573 259.01 234.481 259.196 234.356 259.358C234.23 259.52 234.072 259.653 233.892 259.751C233.678 259.821 233.45 259.831 233.231 259.778C233.013 259.725 232.814 259.612 232.656 259.452C232.376 259.188 232.196 258.835 232.145 258.453C232.111 257.886 232.153 257.318 232.271 256.763C232.336 256.282 232.303 255.794 232.173 255.326C232.231 255.246 232.719 255.786 232.656 256.792C232.601 257.315 232.601 257.843 232.656 258.366C232.708 258.872 233.26 259.412 233.708 259.24C233.818 259.185 233.913 259.103 233.985 259.003C234.057 258.903 234.104 258.787 234.122 258.665C234.155 258.393 234.107 258.117 233.984 257.872C233.729 257.405 233.449 256.952 233.145 256.516C232.627 255.688 232.346 255.154 232.409 255.154Z" fill="#1A2E35"/>
<path d="M238.07 277.566C237.917 277.645 237.755 277.703 237.587 277.739L236.19 278.141C234.966 278.48 233.185 278.928 230.972 279.44C226.547 280.463 220.387 281.67 213.52 282.589C206.652 283.508 200.383 283.957 195.848 284.135C193.584 284.221 191.745 284.256 190.475 284.25H189.016C188.844 284.261 188.672 284.247 188.504 284.21C188.669 284.165 188.839 284.142 189.01 284.141L190.47 284.054L195.831 283.761C200.354 283.491 206.595 282.98 213.445 282.066C220.295 281.152 226.456 280.003 230.892 279.078L236.139 277.928L237.57 277.63C237.733 277.586 237.901 277.564 238.07 277.566Z" fill="#1A2E35"/>
<path d="M213.853 295.381C213.889 295.665 213.874 295.953 213.807 296.232C213.704 296.999 213.537 297.757 213.307 298.496C212.975 299.6 212.538 300.67 212.002 301.691C210.688 304.205 208.838 306.4 206.583 308.122C205.668 308.825 204.686 309.437 203.652 309.949C202.963 310.303 202.244 310.596 201.503 310.823C201.24 310.933 200.96 310.999 200.676 311.018C200.641 310.92 201.79 310.541 203.474 309.604C204.456 309.054 205.392 308.426 206.273 307.725C207.343 306.859 208.332 305.898 209.227 304.852C210.105 303.792 210.886 302.656 211.56 301.456C212.103 300.468 212.564 299.438 212.939 298.375C213.577 296.559 213.778 295.381 213.853 295.381Z" fill="#1A2E35"/>
<path d="M216.945 300.961C217.054 301.048 215.795 302.685 213.813 304.271C211.83 305.857 209.945 306.691 209.882 306.57C209.819 306.449 211.537 305.392 213.474 303.846C215.41 302.3 216.824 300.852 216.945 300.961Z" fill="#1A2E35"/>
<path d="M176.999 310.501C176.964 310.644 175.907 310.437 174.93 309.604C173.953 308.771 173.574 307.765 173.706 307.708C173.838 307.65 174.39 308.437 175.286 309.185C176.183 309.932 177.045 310.351 176.999 310.501Z" fill="#1A2E35"/>
<path d="M176.666 307.696C176.62 307.84 176.028 307.771 175.344 307.547C174.66 307.323 174.155 307.013 174.195 306.869C174.235 306.725 174.833 306.8 175.517 307.024C176.2 307.248 176.712 307.553 176.666 307.696Z" fill="#1A2E35"/>
<path d="M203.147 244.396C200.607 242.89 197.808 242.965 194.935 243.655C192.251 244.298 189.498 244.982 187.268 246.603C185.039 248.223 183.441 251.045 184.091 253.723H187.711C187.929 252.901 188.286 250.568 188.636 249.804C189.406 248.2 191.216 247.39 192.946 246.97C195.366 246.396 198.486 246.183 200.762 247.2C201.866 247.732 202.792 248.572 203.43 249.618C204.069 250.664 204.391 251.872 204.359 253.096L207.807 252.43C207.244 249.177 205.991 246.085 203.147 244.396Z" fill="#1A2E35"/>
<path d="M188.533 228.857C188.533 228.857 186.194 237.564 186.131 239.064C186.096 240.213 187.234 246.799 187.768 249.827C187.855 250.395 188.16 250.907 188.618 251.253C189.077 251.6 189.652 251.754 190.222 251.683C190.295 251.673 190.366 251.656 190.435 251.632C190.782 251.496 191.086 251.267 191.311 250.97C191.536 250.673 191.674 250.319 191.711 249.948C191.931 250.385 192.283 250.743 192.717 250.97C193.151 251.196 193.645 251.281 194.13 251.212C195.854 250.971 195.889 248.833 195.889 248.833C195.986 248.926 196.09 249.013 196.199 249.092C196.499 249.309 196.852 249.442 197.22 249.477C197.589 249.512 197.961 249.447 198.296 249.29C198.632 249.133 198.919 248.889 199.128 248.583C199.337 248.277 199.461 247.921 199.486 247.551L199.549 246.58C199.549 246.58 200.273 247.764 201.451 247.563C203.704 247.178 203.348 242.029 203.348 242.029L201.331 228.288L199.066 180.849C192.383 181.045 186.424 181.763 181.981 185.142L188.533 228.857Z" fill="#FFB380"/>
<path d="M186.809 243.436C186.935 243.436 187.291 244.827 187.533 246.597C187.774 248.367 187.935 249.804 187.809 249.827C187.682 249.85 187.326 248.436 187.085 246.66C186.843 244.885 186.682 243.459 186.809 243.436Z" fill="#FF8B2E"/>
<path d="M190.964 244.402C191.084 244.373 191.492 245.551 191.676 247.12C191.86 248.689 191.745 249.93 191.625 249.925C191.504 249.919 191.406 248.683 191.222 247.172C191.038 245.661 190.837 244.437 190.964 244.402Z" fill="#FF8B2E"/>
<path d="M189.912 240.919C189.958 240.804 190.36 240.879 190.676 241.235C190.992 241.592 191.027 242 190.906 242.034C190.785 242.069 190.59 241.816 190.331 241.54C190.073 241.264 189.855 241.034 189.912 240.919Z" fill="#FF8B2E"/>
<path d="M195.28 242.942C195.406 242.942 195.676 244.269 195.854 245.936C196.033 247.603 196.124 248.97 195.998 248.987C195.872 249.005 195.607 247.671 195.423 245.993C195.239 244.315 195.153 242.948 195.28 242.942Z" fill="#FF8B2E"/>
<path d="M192.785 239.23C192.785 239.178 192.883 239.046 193.153 238.972C193.516 238.877 193.902 238.929 194.228 239.115C194.552 239.299 194.794 239.599 194.906 239.954C194.981 240.224 194.906 240.397 194.871 240.403C194.837 240.408 194.578 239.828 194.004 239.512C193.429 239.196 192.831 239.351 192.785 239.23Z" fill="#FF8B2E"/>
<path d="M199.457 241.207C199.584 241.207 199.727 242.431 199.773 243.948C199.819 245.465 199.773 246.695 199.63 246.701C199.486 246.706 199.365 245.476 199.319 243.959C199.273 242.442 199.331 241.212 199.457 241.207Z" fill="#FF8B2E"/>
<path d="M196.642 237.644C196.642 237.586 196.768 237.477 197.038 237.443C197.391 237.414 197.744 237.494 198.05 237.672C198.751 238.086 199.061 238.626 198.986 238.701C198.912 238.776 198.412 238.414 197.837 238.069C197.262 237.724 196.682 237.759 196.642 237.644Z" fill="#FF8B2E"/>
<path d="M140.019 44.8869C144.76 40.2896 148.789 39.3758 153.415 39.2034C160.42 38.9506 167.896 41.1343 172.913 46.0305C177.511 50.5302 179.522 57.2079 179.47 63.6443C179.47 65.9429 178.493 67.9715 177.58 70.0518C176.666 72.1322 173.85 74.5573 171.718 75.3388C169.586 76.1204 168.845 75.3388 167.35 73.6148C166.442 72.5689 166.029 71.1897 165.626 69.8622C163.902 64.2477 161.834 58.6389 158.305 53.9495C154.777 49.2602 149.587 45.5536 143.749 44.9616" fill="#2C2C2C"/>
<path d="M135.657 56.9502C135.371 54.7366 135.617 52.4867 136.376 50.3876C137.135 48.2886 138.384 46.401 140.019 44.882C142.496 42.6293 145.737 41.3421 149.03 40.7214C153.449 39.8881 158.225 40.2215 162.155 42.3937C166.086 44.566 169.051 48.7668 169.051 53.2665C169.051 55.3066 168.477 57.3754 168.902 59.3695C169.097 60.2373 169.477 61.151 169.149 61.9728C168.97 62.3389 168.69 62.6458 168.341 62.8568C167.993 63.0678 167.591 63.1739 167.184 63.1624C166.368 63.1269 165.576 62.8793 164.885 62.444C162.466 61.0993 160.564 58.996 158.707 56.9502" fill="#2C2C2C"/>
<path d="M147.639 46.881L166.718 53.9265C167.628 54.1233 168.431 54.6536 168.969 55.4131C169.508 56.1726 169.742 57.1061 169.626 58.0297L163.172 100.601C162.731 103.51 161.344 106.192 159.224 108.233L156.995 110.382C151.903 115.279 143.312 113.457 140.944 106.802C140.797 106.434 140.701 106.047 140.657 105.653C140.623 105.324 140.608 104.994 140.611 104.664C140.574 102.482 140.767 100.301 141.185 98.159C141.548 94.3375 141.714 92.7744 141.708 92.8088C141.703 92.8433 133.801 90.6136 133.249 79.9304C132.979 74.6205 134.152 66.0808 135.341 59.1273C136.433 52.8691 141.433 45.5478 147.639 46.881Z" fill="#FFB380"/>
<path d="M136.772 66.328C136.729 66.678 136.826 67.0307 137.041 67.3101C137.256 67.5896 137.572 67.7734 137.921 67.8221C138.091 67.8543 138.265 67.8521 138.434 67.8158C138.603 67.7795 138.763 67.7097 138.904 67.6106C139.046 67.5115 139.166 67.3851 139.258 67.2388C139.349 67.0926 139.411 66.9294 139.439 66.759C139.48 66.4086 139.383 66.0559 139.168 65.7759C138.953 65.4959 138.638 65.3105 138.289 65.2591C138.119 65.2269 137.944 65.2293 137.775 65.266C137.606 65.3027 137.446 65.3729 137.305 65.4726C137.163 65.5723 137.043 65.6993 136.952 65.8463C136.86 65.9932 136.799 66.157 136.772 66.328Z" fill="#1A2E35"/>
<path d="M150.392 67.9718C150.351 68.3215 150.448 68.6735 150.663 68.9526C150.877 69.2317 151.193 69.4159 151.541 69.466C151.711 69.4981 151.885 69.496 152.054 69.4597C152.223 69.4233 152.383 69.3536 152.524 69.2545C152.665 69.1554 152.786 69.029 152.877 68.8827C152.969 68.7364 153.031 68.5733 153.058 68.4028C153.099 68.0524 153.002 67.6998 152.788 67.4198C152.573 67.1397 152.258 66.9543 151.909 66.9029C151.739 66.8708 151.564 66.8732 151.395 66.9098C151.226 66.9465 151.066 67.0168 150.924 67.1165C150.783 67.2161 150.663 67.3432 150.571 67.4901C150.48 67.6371 150.419 67.8009 150.392 67.9718Z" fill="#1A2E35"/>
<path d="M141.731 92.7799C146.67 93.3811 151.679 92.6013 156.202 90.5272C156.202 90.5272 151.892 97.4233 141.479 95.3142L141.731 92.7799Z" fill="#FF8B2E"/>
<path d="M148.719 77.1894C148.484 77.1492 148.317 78.7238 146.852 79.6949C145.386 80.6661 143.726 80.3156 143.691 80.534C143.657 80.6317 144.03 80.8845 144.737 80.9765C145.658 81.0882 146.588 80.8703 147.363 80.3616C148.107 79.8746 148.634 79.1189 148.834 78.2525C148.961 77.5802 148.84 77.1894 148.719 77.1894Z" fill="#FF8B2E"/>
<path d="M149.489 64.0983C149.581 64.5983 151.052 64.5236 152.725 64.9546C154.397 65.3856 155.713 66.1039 155.989 65.7017C156.11 65.5005 155.92 65.0178 155.414 64.4833C154.773 63.8366 153.966 63.3793 153.081 63.1616C152.218 62.9394 151.309 62.9753 150.466 63.265C149.805 63.5064 149.455 63.857 149.489 64.0983Z" fill="#1A2E35"/>
<path d="M136.956 61.9607C137.169 62.3687 138.209 62.0814 139.41 62.1905C140.611 62.2997 141.605 62.679 141.881 62.3112C142.002 62.1273 141.881 61.7366 141.479 61.3285C140.946 60.8401 140.263 60.5465 139.542 60.4953C138.821 60.4442 138.104 60.6386 137.508 61.0469C137.042 61.3917 136.864 61.7653 136.956 61.9607Z" fill="#1A2E35"/>
<path d="M164.776 75.3101C164.862 74.5285 165.96 72.7815 166.747 72.7413C168.845 72.6378 172.546 73.201 172.023 78.442C171.304 85.6139 164.259 83.4129 164.265 83.2061C164.27 82.9992 164.483 78.011 164.776 75.3101Z" fill="#FFB380"/>
<path d="M166.724 80.7121C166.758 80.7121 166.839 80.8098 167.04 80.9304C167.326 81.0863 167.662 81.1254 167.977 81.0396C168.758 80.8385 169.517 79.7006 169.701 78.4134C169.782 77.8013 169.725 77.1787 169.534 76.5917C169.489 76.361 169.389 76.1447 169.242 75.9615C169.094 75.7783 168.905 75.6336 168.689 75.54C168.55 75.4874 168.397 75.4851 168.257 75.5334C168.116 75.5816 167.997 75.6775 167.919 75.8044C167.804 75.9998 167.833 76.1434 167.793 76.1549C167.753 76.1664 167.649 76.017 167.741 75.7297C167.796 75.5532 167.912 75.4023 168.069 75.3044C168.281 75.1759 168.535 75.1367 168.775 75.1952C169.064 75.2825 169.325 75.4426 169.533 75.66C169.741 75.8774 169.89 76.1448 169.965 76.4365C170.209 77.087 170.29 77.7875 170.201 78.4766C170.011 79.9133 169.138 81.1948 168.069 81.3902C167.871 81.4264 167.668 81.4178 167.474 81.3651C167.28 81.3124 167.1 81.2169 166.948 81.0856C166.718 80.8845 166.701 80.7236 166.724 80.7121Z" fill="#FF8B2E"/>
<path d="M146.783 45.5424C146.896 47.309 147.484 49.0123 148.484 50.4728C149.484 51.9332 150.86 53.0968 152.466 53.8407C154.19 54.6108 156.322 55.0303 157.196 56.7141C158.069 58.3979 157.161 60.6276 157.966 62.3746C159.086 64.7997 162.931 65.1732 163.672 67.7363C164 68.8512 163.603 70.0924 163.948 71.1843C164.408 72.667 166.166 73.483 167.695 73.2072C168.452 73.0243 169.159 72.6779 169.768 72.1925C170.376 71.707 170.871 71.0942 171.218 70.397C171.896 68.9967 172.346 67.4971 172.551 65.9548C173.085 62.9493 173.493 59.8575 172.936 56.8577C171.787 50.5363 164.052 41.0945 157.661 40.7669" fill="#2C2C2C"/>
<path d="M158.972 43.9677C158.972 44.1401 155.943 43.6689 152.553 44.9906C149.162 46.3124 147.191 48.6168 147.082 48.4846C147.393 47.9029 147.819 47.3906 148.335 46.979C150.711 44.8177 153.818 43.6369 157.029 43.6746C157.69 43.6428 158.35 43.7424 158.972 43.9677Z" fill="#8E8E8E"/>
<path d="M151.03 42.6514C151.093 42.795 149.449 43.3467 148.225 44.9501C147.001 46.5534 146.84 48.2717 146.685 48.2717C146.622 48.2717 146.559 47.8349 146.685 47.1223C146.866 46.2168 147.253 45.3653 147.817 44.6345C148.382 43.9037 149.107 43.3135 149.938 42.91C150.564 42.6341 151.012 42.5882 151.03 42.6514Z" fill="#8E8E8E"/>
<path d="M199.94 171.332C199.94 171.424 198.756 171.332 196.86 171.361C194.395 171.444 191.95 171.819 189.573 172.476C187.206 173.142 184.918 174.059 182.746 175.211C181.068 176.096 180.091 176.757 180.039 176.682C179.987 176.608 180.24 176.458 180.666 176.108C181.27 175.651 181.901 175.231 182.556 174.849C184.717 173.576 187.035 172.592 189.452 171.924C191.87 171.248 194.372 170.921 196.883 170.953C197.64 170.962 198.397 171.019 199.147 171.125C199.421 171.153 199.688 171.222 199.94 171.332Z" fill="#1A2E35"/>
<path d="M144.404 77.1779C143.329 76.9998 142.444 77.0055 141.617 76.1837C140.789 75.3619 140.398 74.1034 140.939 73.1322C141.066 72.919 141.25 72.7453 141.47 72.6307C141.69 72.516 141.938 72.4648 142.186 72.4828L143.231 72.546L145.082 67.1154" stroke="#FF8B2E" stroke-width="0.792738" stroke-miterlimit="10" stroke-linecap="round"/>
<path d="M352.182 196.716C352.182 196.716 347.556 197.152 345.355 202.549C345.355 202.549 348.01 213.295 356.688 213.398C356.688 213.398 358.193 212.64 361.544 205.054L352.182 196.716Z" fill="#FFBF9D"/>
<path d="M368.75 137.053L375.738 148.185L352.176 196.716L361.17 205.571L394.8 158.891C396.072 157.125 396.911 155.084 397.251 152.934C397.59 150.784 397.42 148.585 396.754 146.512L389.628 124.382L368.75 137.053Z" fill="#FFBF9D"/>
<path d="M313.8 241.454L317.696 295.812C317.696 295.812 315.547 259.447 315.064 250.735C314.581 242.023 313.8 241.454 313.8 241.454Z" fill="#2C2C2C"/>
<path d="M355.538 113.785C355.705 113.676 358.009 117.382 360.411 122.164C361.561 124.434 362.618 126.491 363.52 128.261C364.313 129.818 364.808 130.784 364.733 130.83C364.566 130.933 362.262 127.232 359.854 122.451L356.751 116.354C355.958 114.779 355.463 113.814 355.538 113.785Z" fill="#1A2E35"/>
<path d="M287.796 91.5161C287.98 91.608 285.871 95.1135 284.923 99.9695C283.974 104.825 284.503 108.865 284.296 108.877C284.227 108.877 283.98 107.9 283.865 106.256C283.594 101.945 284.462 97.6385 286.382 93.7688C287.124 92.2976 287.733 91.4758 287.796 91.5161Z" fill="#1A2E35"/>
<path d="M374.227 98.7111C374.227 98.826 372.876 98.8318 370.779 99.2858C369.556 99.5627 368.359 99.9473 367.204 100.435C364.372 101.63 361.834 103.429 359.768 105.705C358.927 106.634 358.169 107.636 357.504 108.699C356.354 110.521 355.923 111.791 355.814 111.75C355.842 111.432 355.923 111.121 356.056 110.831C356.334 110.013 356.692 109.224 357.124 108.475C357.749 107.349 358.491 106.291 359.337 105.32C360.385 104.14 361.558 103.078 362.837 102.153C364.133 101.252 365.524 100.497 366.986 99.9007C368.182 99.4253 369.424 99.0748 370.692 98.8548C371.544 98.6993 372.408 98.6242 373.273 98.6306C373.593 98.6014 373.916 98.6286 374.227 98.7111Z" fill="#1A2E35"/>
<path d="M363.584 100.205C363.704 100.372 360.561 101.929 358.245 105.377C355.929 108.825 355.59 112.302 355.372 112.273C355.303 112.273 355.268 111.4 355.556 110.032C356.356 106.43 358.499 103.269 361.549 101.194C362.733 100.429 363.555 100.142 363.584 100.205Z" fill="#1A2E35"/>
<path d="M281.911 98.9637C282.072 98.9235 282.94 101.9 283.342 105.687C283.744 109.474 283.549 112.583 283.388 112.583C283.227 112.583 283.13 109.52 282.722 105.774C282.314 102.027 281.733 99.0039 281.911 98.9637Z" fill="#1A2E35"/>
<path d="M282.704 115.979C282.877 115.979 283.032 121.824 283.049 129.019C283.066 136.214 282.934 142.035 282.762 142.029C282.589 142.023 282.434 136.179 282.417 128.984C282.4 121.789 282.532 115.968 282.704 115.979Z" fill="#1A2E35"/>
</svg>
