<svg width="374" height="318" viewBox="0 0 374 318" fill="none" xmlns="http://www.w3.org/2000/svg">
<path d="M173.214 149.373C173.214 149.373 186.146 171.459 199.257 143.674L201.004 141.616L196.183 155.436C196.183 155.436 183.478 167.271 176.117 161.533L173.214 149.373Z" fill="#2C2C2C"/>
<path d="M374 309.86C374 309.971 296.912 310.065 201.836 310.065C106.761 310.065 29.6508 309.971 29.6508 309.86C29.6508 309.749 106.726 309.656 201.836 309.656C296.946 309.656 374 309.749 374 309.86Z" fill="#1A2E35"/>
<path d="M221.659 273.575L228.972 297.266L238.135 293.53L234.608 269.087L221.659 273.575Z" fill="#FFBF9D"/>
<path d="M218.991 304.477L226.582 300.779L223.708 294.892L237.908 287.958L244.27 300.98C244.386 301.217 244.454 301.475 244.47 301.739C244.486 302.003 244.45 302.267 244.364 302.517C244.278 302.767 244.143 302.997 243.968 303.195C243.793 303.393 243.581 303.554 243.343 303.67L230.962 309.724L215.968 317.041L215.195 315.509C214.239 313.542 214.101 311.276 214.813 309.208C215.524 307.14 217.027 305.439 218.991 304.477Z" fill="#D4F0FF"/>
<path d="M216.228 317.69L245.423 303.432L244.374 301.284L215.179 315.542L216.228 317.69Z" fill="white"/>
<path d="M226.014 301.441C226.083 301.428 226.148 301.395 226.199 301.346C226.251 301.297 226.287 301.234 226.303 301.165C226.319 301.095 226.315 301.023 226.291 300.956C226.267 300.889 226.224 300.831 226.167 300.788C225.117 299.977 223.004 298.611 222.538 300.293C222.073 301.975 224.682 301.697 226.014 301.441Z" stroke="white" stroke-width="0.75" stroke-linecap="round" stroke-linejoin="round"/>
<path d="M230.215 298.683C229.19 296.881 227.269 299.302 226.372 300.621C226.31 300.713 226.286 300.826 226.305 300.935C226.324 301.044 226.385 301.141 226.475 301.206C226.519 301.241 226.57 301.266 226.624 301.281C226.679 301.295 226.735 301.299 226.791 301.292C228.336 301.091 231.235 300.472 230.206 298.683" stroke="white" stroke-width="0.75" stroke-linecap="round" stroke-linejoin="round"/>
<path d="M226.377 301.42C226.377 301.42 227.282 303.913 229.51 303.982" stroke="white" stroke-width="0.75" stroke-linecap="round" stroke-linejoin="round"/>
<path d="M234.07 298.807C234.323 299.323 234.722 299.752 235.219 300.04C235.715 300.329 236.286 300.464 236.859 300.428C237.432 300.392 237.981 300.187 238.438 299.839C238.894 299.49 239.237 299.015 239.424 298.472C239.61 297.929 239.631 297.343 239.484 296.788C239.337 296.233 239.029 295.734 238.599 295.354C238.168 294.974 237.635 294.73 237.066 294.653C236.497 294.576 235.918 294.67 235.402 294.922C235.06 295.09 234.753 295.323 234.501 295.609C234.248 295.895 234.055 296.228 233.931 296.589C233.807 296.949 233.756 297.331 233.78 297.712C233.804 298.092 233.902 298.465 234.07 298.807Z" fill="white"/>
<path d="M267.436 281.836L264.443 306.453L254.764 304.4L253.893 279.723L267.436 281.836Z" fill="#FFBF9D"/>
<path d="M251.771 298.688L251.63 313.178C251.627 313.442 251.677 313.704 251.775 313.949C251.874 314.194 252.019 314.417 252.204 314.606C252.389 314.795 252.609 314.945 252.852 315.049C253.095 315.153 253.356 315.207 253.62 315.21L267.414 315.347L284.099 315.513V313.805C284.11 312.721 283.908 311.646 283.503 310.64C283.099 309.634 282.5 308.718 281.741 307.943C280.982 307.169 280.078 306.552 279.081 306.127C278.083 305.702 277.012 305.478 275.927 305.467L267.5 305.386L267.568 298.858L251.771 298.688Z" fill="#D4F0FF"/>
<path d="M284.111 313.817L251.623 313.494L251.599 315.884L284.088 316.208L284.111 313.817Z" fill="white"/>
<path d="M268.294 305.758C268.224 305.778 268.151 305.777 268.082 305.756C268.013 305.734 267.951 305.693 267.906 305.637C267.86 305.581 267.832 305.512 267.825 305.441C267.818 305.369 267.833 305.296 267.867 305.232C268.464 304.05 269.784 301.907 270.928 303.226C272.072 304.545 269.604 305.412 268.294 305.758Z" stroke="white" stroke-width="0.75" stroke-linecap="round" stroke-linejoin="round"/>
<path d="M263.299 305.07C263.448 303.004 266.223 304.362 267.602 305.169C267.677 305.209 267.737 305.271 267.776 305.347C267.815 305.422 267.831 305.507 267.821 305.591C267.812 305.676 267.777 305.755 267.722 305.82C267.667 305.884 267.594 305.931 267.512 305.954C266.031 306.437 263.149 307.124 263.299 305.07Z" stroke="white" stroke-width="0.75" stroke-linecap="round" stroke-linejoin="round"/>
<path d="M267.948 305.873C267.948 305.873 268.2 308.511 266.24 309.553" stroke="white" stroke-width="0.75" stroke-linecap="round" stroke-linejoin="round"/>
<path d="M257.15 302.906C257.783 302.792 258.435 302.868 259.024 303.125C259.613 303.381 260.113 303.807 260.46 304.347C260.807 304.888 260.987 305.519 260.975 306.162C260.963 306.804 260.762 307.429 260.395 307.957C260.028 308.484 259.514 308.892 258.916 309.127C258.318 309.362 257.663 309.415 257.035 309.278C256.408 309.141 255.834 308.822 255.388 308.359C254.942 307.897 254.643 307.312 254.529 306.68C254.453 306.26 254.46 305.829 254.551 305.412C254.641 304.995 254.813 304.599 255.057 304.249C255.3 303.898 255.61 303.599 255.97 303.369C256.329 303.138 256.73 302.981 257.15 302.906Z" fill="white"/>
<path d="M269.937 142.824L269.878 156.832L265.86 211.391C265.86 211.391 268.085 237.861 269.455 252.804C270.65 265.787 268.507 288.381 268.507 288.381L247.075 291.6L236.743 217.103L232.089 170.084L226.112 144.43L269.937 142.824Z" fill="#3A3A3A"/>
<path d="M209.295 140.549L198.766 207.856L216.036 281.73L216.685 285.248L237.208 282.191L228.96 215.208L239.3 143.119L209.295 140.549Z" fill="#3A3A3A"/>
<path d="M249.017 149.429C248.906 149.454 248.706 148.946 248.561 148.297C248.415 147.648 248.39 147.102 248.501 147.08C248.612 147.059 248.817 147.563 248.958 148.212C249.098 148.861 249.128 149.399 249.017 149.429Z" fill="#2C2C2C"/>
<path d="M251.4 150.257C251.297 150.291 250.904 149.335 250.725 148.084C250.546 146.833 250.648 145.804 250.755 145.809C250.862 145.813 250.951 146.812 251.131 148.024C251.31 149.237 251.511 150.223 251.4 150.257Z" fill="#2C2C2C"/>
<path d="M222.312 149.428C222.21 149.463 221.885 148.767 221.744 147.84C221.603 146.914 221.676 146.154 221.787 146.154C221.898 146.154 222 146.884 222.146 147.776C222.291 148.668 222.432 149.386 222.312 149.428Z" fill="#2C2C2C"/>
<path d="M224.737 149.429C224.626 149.45 224.387 148.695 224.203 147.747C224.02 146.799 223.956 146.005 224.067 145.984C224.178 145.962 224.417 146.718 224.601 147.666C224.784 148.614 224.844 149.403 224.737 149.429Z" fill="#2C2C2C"/>
<path d="M233.413 161.955C233.413 161.955 233.434 162.032 233.34 162.113C233.267 162.165 233.181 162.194 233.091 162.198C233.002 162.202 232.913 162.18 232.836 162.134C232.729 162.053 232.642 161.948 232.58 161.829C232.518 161.709 232.483 161.577 232.478 161.443C232.435 161.14 232.388 160.824 232.337 160.486C232.145 159.073 231.91 157.114 231.658 154.936C231.406 152.759 231.231 150.808 231.094 149.386C230.987 148.62 230.949 147.845 230.979 147.072C231.18 147.819 231.314 148.582 231.38 149.352C231.577 150.765 231.807 152.725 232.059 154.902C232.311 157.08 232.486 159.031 232.623 160.452C232.712 161.153 232.644 161.801 232.922 162.002C232.975 162.041 233.037 162.065 233.102 162.072C233.167 162.08 233.233 162.07 233.293 162.045C233.413 162.006 233.413 161.951 233.413 161.955Z" fill="#2C2C2C"/>
<path d="M235.761 148.093C235.761 148.067 235.876 148.029 236.094 148.063C236.288 148.106 236.471 148.19 236.631 148.309C236.79 148.428 236.923 148.579 237.02 148.753C237.117 148.926 237.177 149.119 237.194 149.317C237.212 149.515 237.188 149.715 237.123 149.903C237.012 150.183 236.824 150.425 236.581 150.601C236.337 150.777 236.048 150.88 235.748 150.898C235.446 150.902 235.149 150.815 234.898 150.647C234.646 150.479 234.451 150.239 234.339 149.958C234.237 149.739 234.195 149.496 234.217 149.254C234.238 149.013 234.323 148.782 234.463 148.584C234.554 148.453 234.672 148.343 234.809 148.26C234.946 148.178 235.099 148.125 235.257 148.106C235.479 148.106 235.59 148.157 235.586 148.178C235.407 148.204 235.236 148.268 235.084 148.365C234.931 148.462 234.801 148.591 234.702 148.742C234.613 148.905 234.566 149.087 234.566 149.273C234.566 149.459 234.613 149.642 234.702 149.805C234.791 150.009 234.938 150.183 235.125 150.305C235.311 150.427 235.529 150.492 235.752 150.492C235.976 150.477 236.191 150.401 236.375 150.273C236.559 150.146 236.706 149.97 236.798 149.766C236.867 149.594 236.892 149.408 236.868 149.224C236.845 149.04 236.776 148.865 236.666 148.716C236.256 148.148 235.739 148.148 235.761 148.093Z" fill="#2C2C2C"/>
<path d="M216.109 146.76C216.312 147.226 216.398 147.735 216.361 148.242C216.362 149.479 216.009 150.69 215.344 151.732C214.679 152.775 213.73 153.605 212.608 154.125C211.754 154.518 211.165 154.552 211.156 154.522C211.148 154.492 211.69 154.309 212.475 153.869C213.501 153.311 214.369 152.502 214.997 151.518C215.626 150.534 215.995 149.407 216.07 148.242C216.139 147.337 216.045 146.773 216.109 146.76Z" fill="#2C2C2C"/>
<path d="M267.858 158.326C267.657 158.452 267.434 158.54 267.201 158.587C266.573 158.754 265.923 158.819 265.275 158.779C263.115 158.614 261.093 157.651 259.605 156.076C258.177 154.494 257.152 152.59 256.617 150.526C256.438 149.91 256.295 149.284 256.19 148.652C256.134 148.421 256.114 148.184 256.13 147.947C256.199 147.947 256.382 148.921 256.877 150.441C257.473 152.424 258.5 154.252 259.883 155.794C261.311 157.298 263.22 158.252 265.28 158.493C266.881 158.638 267.841 158.241 267.858 158.326Z" fill="#2C2C2C"/>
<path d="M191.974 113.194L199.215 80.7212L212.236 97.7262L206.908 120.299L191.974 113.194Z" fill="#FFBF9D"/>
<path d="M273.336 102.38L267.026 88.9613L270.714 144.156C270.595 145.326 268.622 147.098 267.448 147.094L210.208 146.568C209.937 146.569 209.668 146.512 209.42 146.402C209.172 146.292 208.949 146.131 208.766 145.93C208.584 145.729 208.445 145.492 208.36 145.235C208.274 144.977 208.244 144.704 208.27 144.434C209.039 135.869 209.999 96.9708 211.848 81.5454L211.156 105.736L189.515 91.365C190.501 90.8954 194.083 81.8613 194.433 80.8281C196.802 73.8263 200.658 62.2946 206.66 59.4085C209.393 58.0978 211.084 57.5727 214.102 57.3208C218.901 56.9237 225.04 56.1595 229.019 56.3345C235.71 56.6206 240.974 55.8393 248.232 56.2022L256.771 56.9707C258.009 57.15 262.603 57.8032 264.494 57.8459C269.446 57.9526 278.096 65.7315 280.765 69.9112C285.534 77.3827 291.011 91.6511 291.011 91.6511L273.336 102.38Z" fill="#FF9900"/>
<path d="M174.106 109.019C174.465 109.19 190.522 122.907 196.376 125.162C196.555 125.23 196.73 125.29 196.905 125.349C198.902 125.972 201.062 125.792 202.929 124.85C204.796 123.907 206.223 122.275 206.908 120.299C206.908 120.299 206.46 115.346 201.956 112.644C197.451 109.941 176.681 101.116 176.681 101.116L174.106 109.019Z" fill="#FFBF9D"/>
<path d="M247.523 22.2862C247.728 23.4615 247.777 24.6588 247.668 25.8469L246.221 44.2438L246.494 56.6251L245.849 61.2531C245.827 62.6752 245.246 64.0314 244.233 65.029C243.219 66.0267 241.854 66.5858 240.431 66.5856L235.735 66.3679C234.996 66.368 234.265 66.217 233.587 65.9242C232.908 65.6313 232.297 65.2028 231.79 64.6649C231.284 64.1271 230.892 63.4913 230.64 62.7966C230.389 62.1019 230.282 61.3631 230.326 60.6255L230.535 57.2569L230.386 49.508C230.386 49.508 219.499 48.5644 219.426 41.1869C219.388 37.6305 219.908 30.3127 220.459 23.6823C220.693 20.8105 221.824 18.0848 223.691 15.8906" fill="#FFBF9D"/>
<path d="M230.39 49.4439C233.795 49.5144 237.143 48.5691 240.009 46.7285C240.009 46.7285 237.746 52.3513 230.386 51.6682L230.39 49.4439Z" fill="#FF9A6C"/>
<path d="M222.641 28.882C222.637 29.1574 222.742 29.4232 222.932 29.6227C223.121 29.8221 223.382 29.9394 223.657 29.9494C223.791 29.9598 223.926 29.9435 224.053 29.9013C224.181 29.8591 224.299 29.792 224.4 29.7038C224.501 29.6155 224.584 29.508 224.644 29.3874C224.703 29.2669 224.738 29.1357 224.746 29.0016C224.747 28.7268 224.642 28.4622 224.453 28.2633C224.263 28.0643 224.004 27.9464 223.73 27.9342C223.596 27.9238 223.461 27.9401 223.333 27.9823C223.206 28.0245 223.088 28.0916 222.987 28.1798C222.885 28.2681 222.802 28.3756 222.743 28.4962C222.684 28.6167 222.649 28.7479 222.641 28.882Z" fill="#2C2C2C"/>
<path d="M233.357 29.3776C233.354 29.6523 233.457 29.9175 233.646 30.1168C233.835 30.3161 234.095 30.4339 234.369 30.445C234.503 30.4554 234.638 30.4391 234.765 30.3969C234.893 30.3548 235.011 30.2876 235.112 30.1994C235.213 30.1111 235.296 30.0036 235.356 29.883C235.415 29.7625 235.45 29.6313 235.458 29.4972C235.461 29.2225 235.358 28.9573 235.169 28.758C234.98 28.5587 234.72 28.4409 234.446 28.4298C234.312 28.4194 234.177 28.4357 234.05 28.4779C233.922 28.5201 233.804 28.5872 233.703 28.6754C233.601 28.7637 233.519 28.8712 233.459 28.9918C233.4 29.1123 233.365 29.2435 233.357 29.3776Z" fill="#2C2C2C"/>
<path d="M232.405 36.7593C232.221 36.7593 232.213 37.9804 231.158 38.8513C230.104 39.7223 228.793 39.5814 228.785 39.7564C228.785 39.8333 229.075 39.9955 229.638 40.0126C230.359 40.0227 231.06 39.7795 231.619 39.3252C232.148 38.8839 232.485 38.2549 232.559 37.5705C232.623 37.0582 232.486 36.7551 232.405 36.7593Z" fill="#FF9A6C"/>
<path d="M232.917 23.1309C233.028 23.4383 234.16 23.2931 235.479 23.4596C236.798 23.6261 237.883 23.9848 238.041 23.7115C238.122 23.5792 237.934 23.2846 237.503 22.99C236.923 22.6259 236.268 22.3983 235.588 22.3243C234.908 22.2503 234.219 22.332 233.575 22.5631C233.118 22.7424 232.87 22.9857 232.917 23.1309Z" fill="#2C2C2C"/>
<path d="M222.487 24.0577C222.684 24.3138 223.465 24.0577 224.404 24.0577C225.343 24.0577 226.138 24.2327 226.321 23.9638C226.402 23.8357 226.278 23.5752 225.933 23.3319C225.468 23.0321 224.922 22.883 224.37 22.9049C223.819 22.9133 223.285 23.094 222.842 23.4215C222.509 23.6649 222.398 23.9339 222.487 24.0577Z" fill="#2C2C2C"/>
<path d="M244.744 28.229C244.867 28.1735 249.803 26.7049 249.666 31.747C249.53 36.7892 244.513 35.6151 244.513 35.47C244.513 35.3248 244.744 28.229 244.744 28.229Z" fill="#FFBF9D"/>
<path d="M246.084 33.6001C246.106 33.6001 246.17 33.6641 246.315 33.7367C246.417 33.7849 246.528 33.8124 246.641 33.8175C246.753 33.8226 246.866 33.8053 246.972 33.7666C247.51 33.5872 247.984 32.7547 248.031 31.8453C248.058 31.4077 247.985 30.9697 247.818 30.5645C247.775 30.4057 247.695 30.2597 247.583 30.1392C247.472 30.0186 247.332 29.9272 247.177 29.8729C247.077 29.8389 246.968 29.8433 246.871 29.8851C246.774 29.9269 246.696 30.0032 246.652 30.0991C246.579 30.2358 246.609 30.3382 246.584 30.3468C246.558 30.3553 246.477 30.2614 246.524 30.0522C246.555 29.9279 246.627 29.8179 246.729 29.7405C246.871 29.6396 247.047 29.5983 247.22 29.6252C247.426 29.6725 247.616 29.7714 247.773 29.9126C247.93 30.0538 248.048 30.2326 248.116 30.4322C248.318 30.8747 248.409 31.3597 248.381 31.8453C248.321 32.8614 247.775 33.8007 247.041 33.98C246.905 34.0165 246.762 34.0216 246.624 33.995C246.485 33.9683 246.355 33.9107 246.242 33.8263C246.088 33.7281 246.067 33.6086 246.084 33.6001Z" fill="#FF9A6C"/>
<path d="M170.332 101.185C170.281 101.185 170.204 100.416 170.413 99.1993C170.464 98.865 170.535 98.5342 170.627 98.2088C170.751 97.8275 170.935 97.4686 171.173 97.1457C171.433 96.7908 171.742 96.4745 172.091 96.2064C172.477 95.9042 172.937 95.7111 173.423 95.6471C173.919 95.5769 174.425 95.6714 174.862 95.9161C175.25 96.1621 175.565 96.5069 175.776 96.9152C176.106 97.5671 176.342 98.263 176.476 98.9815C176.728 100.19 176.711 100.954 176.664 100.958C176.617 100.963 176.514 100.211 176.198 99.0499C176.031 98.3731 175.781 97.7193 175.455 97.103C175.266 96.7624 174.99 96.477 174.657 96.2747C174.296 96.0753 173.878 96.0017 173.47 96.0655C172.657 96.2261 171.939 96.6999 171.472 97.3848C171.06 97.9382 170.792 98.5851 170.691 99.2676C170.417 100.429 170.392 101.185 170.332 101.185Z" fill="#1A2E35"/>
<path d="M217.565 15.4119C218.44 14.0415 220.169 13.4864 221.936 13.8152C220.361 10.6729 220.177 7.31288 221.714 4.57192C224.618 -0.521487 232.478 -1.50772 239.27 2.36463C242.02 3.88948 244.296 6.14215 245.849 8.87548C246.262 9.14934 246.654 9.4548 247.019 9.78914C248.398 8.7474 250.644 8.77302 252.569 10.0069C254.918 11.5012 255.883 14.1781 254.734 15.984C254.696 16.0396 254.644 16.078 254.606 16.1335C256.22 17.8028 256.467 20.5609 255.059 22.7767C254.335 23.9256 253.228 24.7804 251.933 25.1889C253.376 26.6875 253.842 28.6941 252.928 30.1542C251.797 31.9773 248.962 32.259 246.601 30.7904C244.24 29.3217 243.245 26.6533 244.376 24.8132C244.55 24.5478 244.765 24.3115 245.013 24.113C244.513 23.2156 244.085 22.2806 243.732 21.3165C239.992 23.844 234.062 23.7885 228.763 20.7701C228.336 20.5224 227.909 20.2492 227.482 19.9717H226.411C226.327 20.264 226.202 20.5429 226.039 20.7999C224.814 22.7254 221.919 23.0755 219.571 21.5812C217.223 20.087 216.335 17.3375 217.565 15.4119Z" fill="#2C2C2C"/>
<path d="M227.952 28.9463L226.214 34.6886C226.194 34.7504 226.188 34.8159 226.197 34.8803C226.206 34.9447 226.229 35.0062 226.266 35.0601C226.526 35.4657 227.354 36.3409 229.545 35.8798" stroke="#FF9A6C" stroke-miterlimit="10"/>
<path d="M193.062 108.306L203.078 113.429C203.078 113.429 199.684 110.368 193.062 108.306Z" fill="#FF8B2E"/>
<path d="M176.1 161.533C173.074 157.523 171.394 152.658 171.301 147.636C171.199 139.327 170.328 101.364 170.328 101.364H176.685L176.1 161.533Z" fill="#3A3A3A"/>
<path d="M195.189 155.995C195.189 155.995 202.592 153.737 201.687 133.367C200.782 112.998 201.443 97.5042 201.443 97.5042H196.401L195.709 145.031L195.189 155.995Z" fill="#3A3A3A"/>
<path d="M196.67 96.834C196.615 96.834 196.542 96.1423 196.67 95.0237C196.741 94.3608 196.909 93.7119 197.17 93.0982C197.329 92.7188 197.566 92.377 197.865 92.0949C198.222 91.7943 198.681 91.6416 199.146 91.668C199.576 91.7146 199.987 91.8732 200.337 92.1279C200.687 92.3826 200.964 92.7245 201.14 93.1196C201.432 93.7199 201.628 94.3625 201.721 95.0237C201.883 96.138 201.802 96.834 201.755 96.834C201.708 96.834 201.67 96.1466 201.439 95.075C201.312 94.4557 201.101 93.8567 200.811 93.2946C200.656 92.9612 200.417 92.6736 200.118 92.4596C199.819 92.2457 199.469 92.1127 199.104 92.0736C198.742 92.0528 198.385 92.1686 198.105 92.398C197.844 92.639 197.633 92.9292 197.486 93.2519C197.224 93.8293 197.038 94.4376 196.93 95.0622C196.76 96.1466 196.73 96.834 196.67 96.834Z" fill="#3A3A3A"/>
<path d="M175.088 160.444C175.053 160.248 175.037 160.049 175.041 159.85C175.041 159.423 175.016 158.851 174.999 158.143C174.973 156.614 174.943 154.475 174.9 151.854C174.862 146.504 174.806 139.182 174.742 131.096C174.678 123.01 174.713 115.683 174.704 110.334C174.704 107.708 174.73 105.573 174.734 104.045C174.734 103.332 174.76 102.764 174.764 102.337C174.76 102.137 174.773 101.937 174.802 101.74C174.834 101.937 174.849 102.137 174.845 102.337C174.845 102.764 174.875 103.336 174.892 104.045C174.913 105.573 174.947 107.712 174.986 110.334C175.029 115.683 175.084 123.005 175.144 131.092C175.204 139.178 175.178 146.5 175.186 151.85C175.186 154.471 175.161 156.61 175.152 158.138C175.152 158.851 175.131 159.419 175.122 159.846C175.129 160.046 175.117 160.246 175.088 160.444Z" fill="#8E8E8E"/>
<path d="M172.586 153.463C172.475 153.463 172.253 141.876 172.095 127.587C171.937 113.297 171.895 101.701 172.006 101.701C172.117 101.701 172.339 113.284 172.497 127.582C172.655 141.881 172.697 153.463 172.586 153.463Z" fill="#8E8E8E"/>
<path d="M200.871 147.858C200.76 147.858 200.619 136.475 200.559 122.429C200.5 108.383 200.559 96.9961 200.653 96.9961C200.747 96.9961 200.905 108.383 200.965 122.429C201.025 136.475 200.986 147.858 200.871 147.858Z" fill="#8E8E8E"/>
<path d="M196.931 154.33C196.902 154.139 196.892 153.946 196.901 153.754C196.901 153.327 196.901 152.785 196.901 152.097C196.901 150.616 196.935 148.549 196.96 146.013C197.05 140.839 197.17 133.764 197.306 125.947C197.443 118.13 197.648 111.055 197.767 105.881C197.844 103.345 197.908 101.278 197.955 99.797C197.981 99.1096 198.006 98.5631 198.024 98.1447C198.024 97.9515 198.042 97.7587 198.075 97.5684C198.106 97.7588 198.116 97.9521 198.105 98.1447C198.105 98.5717 198.105 99.1139 198.105 99.8013C198.105 101.283 198.071 103.349 198.049 105.885C197.96 111.06 197.836 118.138 197.703 125.951C197.571 133.764 197.358 140.847 197.238 146.018C197.161 148.549 197.097 150.616 197.054 152.097C197.024 152.785 196.999 153.335 196.982 153.75C196.982 153.944 196.964 154.138 196.931 154.33Z" fill="#8E8E8E"/>
<path d="M173.829 93.619C173.829 93.8111 173.538 107.708 173.983 108.045C174.427 108.383 177.68 108.434 178.773 107.883L179.306 107.213L199.898 106.969L199.552 92.0265L193.092 92.3425L191.85 90.6048C191.69 90.3835 191.476 90.2064 191.229 90.09C190.982 89.9735 190.709 89.9215 190.437 89.9388L182.837 90.4255L182.124 93.2519L180.084 93.2988L180.16 91.6978C180.16 91.6978 173.901 90.1779 173.829 93.619Z" fill="#3A3A3A"/>
<path d="M179.712 107.093C179.579 106.352 179.518 105.6 179.528 104.848C179.473 103.46 179.452 101.539 179.507 99.4213C179.563 97.3037 179.678 95.3824 179.802 93.9991C179.825 93.2483 179.924 92.5017 180.096 91.7705C180.156 91.7705 180.135 92.6244 180.096 94.0162C180.045 95.5361 179.985 97.3848 179.921 99.4298C179.857 101.475 179.853 103.328 179.823 104.848C179.793 106.231 179.772 107.093 179.712 107.093Z" fill="#8E8E8E"/>
<path d="M193.908 101.287C193.861 101.287 194.002 100.741 193.951 99.7629C193.867 98.3835 193.324 97.0716 192.409 96.0357C191.742 95.2748 190.894 94.6932 189.944 94.3442C188.994 93.9952 187.971 93.8898 186.97 94.0376C185.789 94.203 184.685 94.7208 183.802 95.5234C182.846 96.376 182.187 97.5123 181.923 98.7659C181.659 100.02 181.803 101.325 182.333 102.491C182.82 103.581 183.621 104.499 184.635 105.13C185.492 105.668 186.471 105.983 187.481 106.047C188.492 106.11 189.502 105.919 190.42 105.492C191.675 104.913 192.7 103.93 193.331 102.7C193.758 101.846 193.861 101.274 193.908 101.287C193.904 101.422 193.883 101.555 193.844 101.684C193.764 102.059 193.639 102.423 193.472 102.769C192.872 104.074 191.837 105.131 190.544 105.757C189.653 106.195 188.671 106.414 187.679 106.398C186.534 106.378 185.415 106.053 184.438 105.454C183.355 104.792 182.496 103.819 181.975 102.662C181.398 101.417 181.238 100.019 181.519 98.6754C181.801 97.3322 182.509 96.1159 183.537 95.2075C184.482 94.3591 185.66 93.8159 186.919 93.6491C188.051 93.4904 189.206 93.6379 190.262 94.0761C191.176 94.463 191.986 95.0597 192.627 95.818C193.56 96.9101 194.084 98.2927 194.109 99.7288C194.119 100.113 194.086 100.496 194.01 100.873C193.995 101.015 193.961 101.154 193.908 101.287Z" fill="#8E8E8E"/>
<path d="M187.82 104.152C190.114 104.152 191.974 102.292 191.974 99.9979C191.974 97.7036 190.114 95.8438 187.82 95.8438C185.525 95.8438 183.666 97.7036 183.666 99.9979C183.666 102.292 185.525 104.152 187.82 104.152Z" fill="#8E8E8E"/>
<path d="M188.477 90.5546L184.288 90.8704L184.431 92.7734L188.621 92.4577L188.477 90.5546Z" fill="#8E8E8E"/>
<path opacity="0.5" d="M199.663 96.7827L199.898 106.97H196.521L196.504 108.306L200.764 108.045V96.7827H199.663Z" fill="#232323"/>
<path opacity="0.5" d="M176.676 108.285C176.676 108.285 174.418 108.332 173.983 108.046L173.82 106.91L170.345 107.589C170.554 108.055 170.886 108.456 171.305 108.749C171.723 109.042 172.213 109.217 172.723 109.254L176.664 109.549L176.676 108.285Z" fill="#232323"/>
<path d="M169.534 96.5649C169.534 96.5649 168.232 94.5369 168.232 94.3917C168.232 94.2466 168.232 92.8462 168.885 92.6071C169.538 92.368 171.323 92.3638 171.323 92.3638L176.147 94.9254C176.147 94.9254 176.753 96.8552 175.438 96.9278C175.438 96.9278 178.897 97.8201 178.944 98.738C178.99 99.6559 178.944 100.476 178.944 100.476C178.944 100.476 180.199 100.429 180.054 101.33C179.908 102.23 179.861 102.828 179.426 102.828C178.74 102.938 178.064 103.1 177.402 103.311C177.402 103.311 178.316 104.275 177.159 105.334C176.438 105.984 175.58 106.463 174.648 106.735L170.704 107.516C170.452 107.647 170.162 107.684 169.886 107.621C169.61 107.557 169.365 107.398 169.196 107.17C169.015 106.951 168.883 106.695 168.81 106.42C168.736 106.146 168.722 105.858 168.769 105.578C168.769 105.578 168.479 104.566 168.236 103.648C167.992 102.73 168.816 101.812 168.816 101.812C168.573 101.644 168.385 101.409 168.274 101.135C168.163 100.861 168.135 100.56 168.193 100.271C168.428 99.3058 168.479 97.7091 169.781 97.1797L169.534 96.5649Z" fill="#FFBF9D"/>
<path d="M177.372 103.503C177.372 103.618 175.601 103.93 173.41 104.357C171.22 104.784 169.448 105.185 169.418 105.07C169.389 104.955 171.126 104.395 173.334 103.96C175.541 103.524 177.36 103.392 177.372 103.503Z" fill="#FF9A6C"/>
<path d="M179.11 100.724C179.11 100.86 176.975 100.724 174.414 100.771C171.852 100.818 169.82 101.497 169.781 101.394C170.169 101.132 170.604 100.949 171.062 100.856C172.148 100.556 173.266 100.391 174.392 100.365C175.51 100.331 176.628 100.372 177.74 100.489C178.206 100.497 178.668 100.577 179.11 100.724Z" fill="#FF9A6C"/>
<path d="M175.148 97.0048C175.148 97.1158 174.153 97.2012 172.924 97.1884C171.694 97.1756 170.704 97.0817 170.708 96.9707C170.712 96.8597 171.703 96.7743 172.928 96.7828C174.153 96.7914 175.148 96.9152 175.148 97.0048Z" fill="#FF9A6C"/>
<path d="M173.778 97.0133C173.778 97.1201 172.851 97.1457 171.848 96.6675C170.845 96.1893 170.268 95.4678 170.354 95.3867C170.439 95.3056 171.084 95.8563 172.019 96.2875C172.954 96.7187 173.79 96.9151 173.778 97.0133Z" fill="#FF9A6C"/>
<path d="M266.962 89.2515L264.49 84.3289L268.345 111.277L266.962 89.2515Z" fill="#F47E2F"/>
<path d="M211.28 77.7712L213.539 82.1047L210.085 105.766L211.28 77.7712Z" fill="#F47E2F"/>
<path d="M90.5155 275.24L85.3068 296.01L76.4606 294.055L77.2632 271.034L90.5155 275.24Z" fill="#FFB380"/>
<path d="M75.9654 312.806L84.4615 312.939C85.1736 312.971 85.8695 312.72 86.3963 312.239C86.923 311.759 87.2376 311.089 87.2708 310.377L88.1247 291.592L74.279 291.216L73.8947 299.755L68.5793 299.52C66.3629 299.42 64.1977 300.205 62.5597 301.701C60.9216 303.198 59.9449 305.283 59.8441 307.5L59.6477 312.093L75.9654 312.806Z" fill="#2C2C2C"/>
<path d="M59.588 312.969L87.1086 313.955L87.2495 310.847L59.7288 309.861L59.588 312.969Z" fill="#999595"/>
<path d="M72.9854 293.53L76.9175 293.525" stroke="#999595" stroke-width="0.75" stroke-linecap="round" stroke-linejoin="round"/>
<path d="M72.934 298.589L76.3666 298.529" stroke="#999595" stroke-width="0.75" stroke-linecap="round" stroke-linejoin="round"/>
<path d="M78.3435 306.97C77.8227 306.449 77.468 305.786 77.3242 305.064C77.1805 304.342 77.2542 303.593 77.5359 302.913C77.8177 302.232 78.2948 301.651 78.9071 301.242C79.5193 300.833 80.2392 300.614 80.9756 300.614C81.7119 300.614 82.4318 300.833 83.044 301.242C83.6563 301.651 84.1335 302.232 84.4152 302.913C84.6969 303.593 84.7706 304.342 84.6269 305.064C84.4831 305.786 84.1284 306.449 83.6076 306.97C83.2622 307.316 82.852 307.591 82.4003 307.778C81.9487 307.965 81.4645 308.062 80.9756 308.062C80.4866 308.062 80.0024 307.965 79.5508 307.778C79.0991 307.591 78.6889 307.316 78.3435 306.97Z" fill="#999595"/>
<path d="M72.7591 296.139L76.6955 296.135" stroke="#999595" stroke-width="0.75" stroke-linecap="round" stroke-linejoin="round"/>
<path d="M133.069 273.297L128.53 294.221L119.624 292.548L119.688 269.519L133.069 273.297Z" fill="#FFB380"/>
<path d="M120.107 313.711L128.603 313.583C129.316 313.593 130.003 313.318 130.513 312.821C131.024 312.324 131.317 311.645 131.327 310.932L131.587 292.147L117.737 292.202L117.618 300.741L112.298 300.668C110.079 300.638 107.939 301.489 106.348 303.036C104.758 304.583 103.846 306.698 103.815 308.917L103.751 313.507L120.107 313.711Z" fill="#2C2C2C"/>
<path d="M103.738 314.382L131.275 314.514L131.322 311.402L103.78 311.269L103.738 314.382Z" fill="#999595"/>
<path d="M116.529 294.533L120.461 294.409" stroke="#999595" stroke-width="0.75" stroke-linecap="round" stroke-linejoin="round"/>
<path d="M116.636 299.597L120.064 299.431" stroke="#999595" stroke-width="0.75" stroke-linecap="round" stroke-linejoin="round"/>
<path d="M122.301 307.824C121.764 307.32 121.389 306.668 121.223 305.95C121.057 305.233 121.107 304.482 121.368 303.794C121.628 303.105 122.087 302.509 122.687 302.081C123.286 301.653 123.999 301.412 124.735 301.389C125.471 301.367 126.198 301.563 126.822 301.953C127.447 302.343 127.942 302.91 128.244 303.581C128.547 304.253 128.643 304.999 128.522 305.725C128.4 306.452 128.066 307.126 127.561 307.662C127.227 308.018 126.825 308.305 126.38 308.506C125.934 308.707 125.453 308.818 124.965 308.834C124.476 308.849 123.99 308.767 123.533 308.594C123.076 308.421 122.657 308.159 122.301 307.824Z" fill="#999595"/>
<path d="M116.384 297.15L120.316 297.022" stroke="#999595" stroke-width="0.75" stroke-linecap="round" stroke-linejoin="round"/>
<path d="M299.162 283.599C297.859 285.452 295.319 284.838 294.162 283.702C293.005 282.566 292.501 280.927 292.053 279.36C291.028 275.778 289.995 272.025 290.772 268.383C290.957 267.276 291.445 266.242 292.181 265.395C292.551 264.977 293.025 264.664 293.555 264.487C294.085 264.311 294.653 264.278 295.2 264.391C296.48 264.729 297.262 265.98 297.834 267.167C299.51 270.673 300.385 274.509 300.395 278.395C300.395 280.205 300.182 282.101 299.162 283.591" fill="#FF735D"/>
<path d="M299.162 283.599C297.859 285.452 295.319 284.838 294.162 283.702C293.005 282.566 292.501 280.927 292.053 279.36C291.028 275.778 289.995 272.025 290.772 268.383C290.957 267.276 291.445 266.242 292.181 265.395C292.551 264.977 293.025 264.664 293.555 264.487C294.085 264.311 294.653 264.278 295.2 264.391C296.48 264.729 297.262 265.98 297.834 267.167C299.51 270.673 300.385 274.509 300.395 278.395C300.395 280.205 300.182 282.101 299.162 283.591" fill="#D0F219"/>
<path d="M294.265 292.992C292.13 291.895 289.641 291.745 287.28 292.138C285.999 292.347 284.688 292.723 283.826 293.675C282.963 294.627 282.797 296.301 283.787 297.121C284.425 297.553 285.194 297.75 285.961 297.676C287.809 297.654 289.858 297.334 291.331 298.448C292.185 299.08 292.732 300.156 293.739 300.451C294.243 300.568 294.77 300.519 295.243 300.309C295.715 300.099 296.106 299.741 296.357 299.289C296.835 298.368 296.943 297.299 296.66 296.301C296.543 295.602 296.266 294.939 295.85 294.365C295.435 293.791 294.892 293.321 294.265 292.992Z" fill="#6AF219"/>
<path d="M302.714 286.267C301.305 284.59 301.04 282.147 301.668 280.051C302.295 277.955 303.721 276.17 305.356 274.714C307.288 273.004 309.534 271.688 311.97 270.838C312.911 270.458 313.923 270.286 314.937 270.334C315.443 270.365 315.934 270.518 316.367 270.782C316.8 271.045 317.162 271.41 317.422 271.845C318.113 273.169 317.447 274.774 316.726 276.081C315.453 278.386 314.003 280.588 312.388 282.668C311.086 284.338 309.6 285.986 307.619 286.741C305.638 287.497 303.589 287.403 302.543 286.028" fill="#B9F219"/>
<path d="M299.2 311.598C299.13 311.319 299.089 311.033 299.08 310.745C299.025 310.134 298.948 309.361 298.863 308.443C298.749 307.31 298.576 306.182 298.346 305.066C298.047 303.708 297.639 302.375 297.125 301.083C296.623 299.789 295.94 298.573 295.097 297.471C294.411 296.579 293.536 295.85 292.535 295.336C291.854 294.997 291.124 294.768 290.371 294.657C290.082 294.648 289.796 294.607 289.517 294.534C289.801 294.505 290.087 294.505 290.371 294.534C291.153 294.592 291.918 294.791 292.629 295.123C293.687 295.625 294.615 296.364 295.34 297.283C296.219 298.4 296.928 299.64 297.445 300.963C297.966 302.276 298.371 303.632 298.658 305.015C298.867 306.144 299.01 307.285 299.085 308.431C299.157 309.408 299.183 310.198 299.196 310.745C299.227 311.028 299.228 311.314 299.2 311.598Z" fill="#1A2E35"/>
<path d="M299.042 309.826C299.018 309.697 299.01 309.565 299.021 309.434C299.021 309.139 299.021 308.772 299.021 308.315C299.021 307.346 299.021 305.941 298.974 304.204C298.893 300.733 298.602 295.942 298.03 290.674C297.458 285.405 296.694 280.666 295.994 277.264C295.831 276.41 295.665 275.645 295.507 274.975C295.349 274.305 295.229 273.72 295.106 273.267C294.982 272.815 294.918 272.465 294.85 272.179C294.809 272.054 294.786 271.925 294.781 271.794C294.838 271.912 294.883 272.035 294.914 272.162L295.238 273.233C295.383 273.699 295.528 274.275 295.695 274.941C295.861 275.607 296.053 276.376 296.237 277.225C297.188 281.658 297.901 286.139 298.372 290.648C298.944 295.925 299.2 300.732 299.226 304.212C299.226 305.954 299.226 307.359 299.162 308.332C299.132 308.789 299.11 309.156 299.089 309.451C299.09 309.577 299.074 309.704 299.042 309.826Z" fill="#1A2E35"/>
<path d="M299.029 300.566C299.001 300.177 299.001 299.786 299.029 299.396C299.072 298.649 299.179 297.56 299.392 296.233C299.977 292.767 300.981 289.385 302.381 286.161C303.723 282.902 305.647 279.915 308.059 277.345C308.477 276.904 308.924 276.49 309.395 276.107C309.6 275.936 309.779 275.761 309.963 275.624L310.48 275.27C310.79 275.033 311.12 274.823 311.466 274.642C311.521 274.719 310.07 275.569 308.238 277.516C305.902 280.106 304.025 283.076 302.688 286.298C301.92 288.056 301.268 289.863 300.737 291.707C300.229 293.415 299.883 294.96 299.635 296.275C299.388 297.59 299.251 298.666 299.166 299.409C299.153 299.798 299.107 300.185 299.029 300.566Z" fill="#1A2E35"/>
<path d="M148.908 86.8519C147.487 85.5711 145.288 85.174 144.212 83.5687C143.034 81.8012 143.764 79.2993 142.816 77.4122C142.043 75.8539 140.327 75.0171 139.2 73.6936C137.581 71.7937 137.33 69.1168 137.219 66.6234C136.945 60.4883 137.086 54.2421 135.592 48.2991C134.098 42.3561 130.656 36.5156 125.111 33.8643L104.498 33.5142C101.462 35.8068 99.8015 39.5255 99.08 43.2612C98.3584 46.997 98.4609 50.8266 98.2773 54.6264C98.0937 58.4262 97.5814 62.3113 95.7626 65.65C94.4818 68.011 92.5947 69.9963 91.2584 72.3274C89.9221 74.6585 89.1835 77.2457 89.461 79.8501C89.7385 82.4544 91.1474 84.999 93.4144 86.3097C95.8267 87.7058 98.8451 87.5905 101.526 86.8519C104.361 86.0877 110.236 88.2394 112.264 86.1133C113.425 84.8965 115.679 82.8941 117.387 80.8534L134.853 117.899C136.51 121.084 141.381 121.349 144.212 119.141C147.042 116.934 148.161 113.164 148.481 109.578C148.801 105.992 148.481 102.354 149.199 98.8361C149.625 96.7697 150.39 94.7802 150.625 92.6839C150.859 90.5876 150.467 88.2693 148.908 86.8519Z" fill="#2C2C2C"/>
<path d="M53.914 56.9921L29.1087 44.5767L24.2117 51.0448C24.2117 51.0448 49.0767 71.9649 51.6725 72.2168C53.5041 69.0062 54.0975 63.6438 53.914 56.9921Z" fill="#FFB380"/>
<path d="M18.3668 39.4917C17.3006 39.3723 16.2254 39.3566 15.1562 39.4447C11.7919 39.9101 0.640201 38.0913 0.640201 38.0913L0.302917 39.1459C0.302917 41.05 10.4385 43.3598 10.4385 43.3598L7.62069 46.6088C7.30166 46.9744 7.11252 47.4352 7.08274 47.9195L6.52345 57.611L7.4926 57.5854C9.11071 57.2012 9.23452 54.6993 9.23452 54.6993C10.9423 53.8967 20.0746 52.6927 22.4697 52.6927C23.9992 52.6398 25.4573 52.0329 26.5726 50.9849L29.0958 44.5808C29.0958 44.5808 18.8706 39.5472 18.3668 39.4917Z" fill="#FFB380"/>
<path d="M20.0232 47.2834C20.0446 47.2834 19.9122 47.5055 19.5963 47.8043C19.1348 48.222 18.6028 48.5545 18.0251 48.7863C17.1717 49.127 16.2776 49.3552 15.3653 49.4651C14.3492 49.6103 13.2306 49.6871 12.0992 49.9262C11.0364 50.1189 10.0334 50.5575 9.17038 51.207C8.8222 51.4563 8.52888 51.7744 8.30857 52.1415C8.08825 52.5087 7.94564 52.9172 7.88955 53.3417C7.86574 53.6233 7.93239 53.9052 8.07982 54.1463C8.22725 54.3874 8.44776 54.5752 8.70928 54.6823C8.9135 54.7459 9.12784 54.7705 9.34115 54.7549C9.34115 54.7549 9.12341 54.947 8.66232 54.8318C8.39215 54.7611 8.14869 54.6126 7.96213 54.4048C7.71944 54.1113 7.59196 53.7395 7.6035 53.3588C7.64203 52.8837 7.78109 52.4221 8.01147 52.0048C8.24185 51.5875 8.5583 51.2239 8.93983 50.9381C9.83261 50.2239 10.8864 49.7387 12.0095 49.5249C13.1836 49.2815 14.3107 49.2132 15.3141 49.0979C16.1996 49.006 17.0718 48.8141 17.9141 48.5258C18.6776 48.2241 19.3892 47.805 20.0232 47.2834Z" fill="#FF8B2E"/>
<path d="M13.4484 46.2074C13.5466 46.2415 13.1239 47.4455 11.9925 48.4872C11.547 48.9038 11.0402 49.2493 10.4897 49.5119L10.5665 49.4009C10.4513 49.9431 10.3488 50.2548 10.289 50.2548C10.2292 50.2548 10.225 49.9004 10.2677 49.3496V49.2856L10.3403 49.2386C10.8279 48.9275 11.2865 48.5731 11.7107 48.1798C12.7824 47.2149 13.3416 46.1561 13.4484 46.2074Z" fill="#FF8B2E"/>
<path d="M17.4104 45.6526C17.4104 45.7081 16.945 45.6526 16.3814 45.2256C16.0954 45.0335 15.788 44.7987 15.4294 44.5596C15.0367 44.3356 14.5993 44.2014 14.1485 44.1668C12.1248 43.8807 10.4982 43.5605 10.511 43.4495C10.5238 43.3385 12.1803 43.4794 14.204 43.7655C14.7129 43.8045 15.2043 43.9688 15.6343 44.2436C15.9562 44.4757 16.2642 44.7266 16.5565 44.9951C17.0432 45.4562 17.4232 45.5971 17.4104 45.6526Z" fill="#FF8B2E"/>
<path d="M123.416 134.58C123.416 134.58 135.144 144.327 136.066 150.872C136.988 157.417 138.815 171.771 138.815 171.771L134.644 221.898L133.807 286.05L114.262 285.76L106.692 180.873L96.3646 222.18L95.0112 282.404L73.4293 282.899L69.3691 223.666L81.7718 138.619L123.416 134.58Z" fill="#3A3A3A"/>
<path d="M102.649 140.565C102.628 140.519 103.144 140.484 103.529 141.078C103.637 141.25 103.705 141.445 103.728 141.648C103.751 141.85 103.728 142.055 103.661 142.248C103.552 142.479 103.381 142.676 103.166 142.815C102.951 142.954 102.701 143.029 102.446 143.033C102.19 143.037 101.938 142.969 101.719 142.837C101.5 142.705 101.322 142.514 101.206 142.286C101.133 142.095 101.105 141.891 101.122 141.687C101.14 141.484 101.204 141.287 101.309 141.112C101.671 140.506 102.192 140.523 102.162 140.57C102.133 140.617 101.778 140.723 101.552 141.24C101.49 141.381 101.459 141.533 101.459 141.686C101.459 141.84 101.49 141.992 101.552 142.132C101.644 142.285 101.774 142.411 101.93 142.498C102.086 142.585 102.262 142.629 102.441 142.626C102.619 142.624 102.794 142.574 102.947 142.483C103.101 142.392 103.228 142.262 103.315 142.107C103.37 141.964 103.395 141.811 103.388 141.659C103.382 141.506 103.344 141.356 103.277 141.219C103.038 140.706 102.623 140.625 102.649 140.565Z" fill="#2C2C2C"/>
<path d="M92.8167 146.786C92.7185 146.786 92.5221 145.104 93.0216 143.093C93.5211 141.082 94.4561 139.677 94.5415 139.72C94.6269 139.763 93.8798 141.236 93.4144 143.187C92.949 145.138 92.949 146.782 92.8167 146.786Z" fill="#2C2C2C"/>
<path d="M90.8827 147.119C90.7802 147.119 90.4984 145.258 90.8272 142.957C91.1559 140.655 91.9415 138.93 92.0354 138.973C92.1293 139.016 91.5402 140.766 91.2328 143.016C90.9254 145.266 91.0065 147.115 90.8827 147.119Z" fill="#2C2C2C"/>
<path d="M83.6204 150.061C83.9074 150.293 84.2286 150.478 84.5725 150.612C84.9466 150.72 85.3424 150.729 85.721 150.637C86.1812 150.51 86.5986 150.26 86.9292 149.916C87.5269 149.247 87.9338 148.43 88.1076 147.55C88.1578 147.166 88.2597 146.789 88.4107 146.432C88.4869 146.819 88.4797 147.218 88.3894 147.602C88.2862 148.572 87.8747 149.483 87.2153 150.202C86.8332 150.601 86.3415 150.879 85.8021 151C85.3588 151.092 84.8983 151.05 84.4786 150.881C83.7528 150.577 83.5564 150.069 83.6204 150.061Z" fill="#2C2C2C"/>
<path d="M113.216 139.609C113.293 139.609 113.382 140.557 113.997 141.94C114.783 143.752 116.123 145.267 117.825 146.268C119.526 147.269 121.502 147.705 123.467 147.512C124.279 147.412 125.086 147.269 125.883 147.085C125.702 147.218 125.498 147.318 125.281 147.38C124.707 147.591 124.109 147.734 123.501 147.807C121.464 148.087 119.392 147.672 117.619 146.629C115.847 145.586 114.478 143.977 113.733 142.06C113.506 141.491 113.344 140.898 113.25 140.292C113.197 140.069 113.185 139.837 113.216 139.609Z" fill="#2C2C2C"/>
<path d="M112.469 143.764C112.366 143.806 111.837 142.688 111.29 141.266C110.744 139.844 110.381 138.662 110.488 138.619C110.595 138.576 111.12 139.699 111.666 141.121C112.213 142.542 112.588 143.725 112.469 143.764Z" fill="#2C2C2C"/>
<path d="M110.543 145.117C110.445 145.159 109.796 143.938 109.262 142.316C108.729 140.693 108.562 139.327 108.669 139.297C108.776 139.267 109.139 140.578 109.651 142.192C110.163 143.806 110.65 145.07 110.543 145.117Z" fill="#2C2C2C"/>
<path d="M108.887 172.885C108.782 172.958 108.665 173.01 108.541 173.039C108.188 173.144 107.817 173.171 107.452 173.12C106.783 173.009 106.15 172.738 105.606 172.331C105.063 171.924 104.626 171.392 104.331 170.78C103.507 169.265 103.196 167.271 102.666 165.14C102.137 163.01 101.663 160.615 101.18 158.113C100.207 153.113 99.5239 148.549 99.1013 145.241C98.8921 143.584 98.7426 142.252 98.6743 141.313C98.6402 140.886 98.6103 140.536 98.5847 140.241C98.5671 140.117 98.5671 139.99 98.5847 139.865C98.6295 139.983 98.6583 140.107 98.67 140.233C98.717 140.523 98.7725 140.873 98.8366 141.296C98.9817 142.282 99.1738 143.601 99.4129 145.202C99.9082 148.498 100.634 153.045 101.603 158.036C102.09 160.534 102.585 162.903 103.055 165.055C103.524 167.207 103.857 169.192 104.609 170.644C104.877 171.229 105.279 171.744 105.781 172.147C106.284 172.551 106.874 172.831 107.503 172.966C107.965 173.03 108.435 173.002 108.887 172.885Z" fill="#2C2C2C"/>
<path d="M129.922 226.731C129.75 226.882 129.556 227.006 129.346 227.098C128.802 227.398 128.242 227.667 127.668 227.905C123.864 229.512 119.726 230.168 115.611 229.818C114.991 229.77 114.374 229.687 113.762 229.57C113.534 229.55 113.31 229.493 113.101 229.399C113.101 229.331 114.07 229.463 115.628 229.531C119.693 229.719 123.753 229.075 127.561 227.64C129.021 227.094 129.892 226.671 129.922 226.731Z" fill="#375A64"/>
<path d="M128.923 228.485C128.374 228.921 127.773 229.288 127.134 229.578C125.634 230.358 124.07 231.007 122.459 231.521C120.851 232.045 119.201 232.434 117.528 232.682C116.839 232.814 116.137 232.864 115.436 232.832C115.436 232.767 116.217 232.648 117.481 232.405C120.768 231.77 123.967 230.744 127.01 229.348C128.18 228.788 128.893 228.413 128.923 228.485Z" fill="#375A64"/>
<path d="M120.948 75.8076C120.948 75.8076 105.33 71.615 105.33 71.8242H103.435L101.727 99.7163L108.131 107.926L114.702 101.804L125.478 85.8791L126.08 79.6031L126.361 78.3479L120.948 75.8076Z" fill="#FFB380"/>
<path d="M123.129 76.8489C123.129 76.8489 118.296 84.1069 114.723 86.5789C111.149 89.0508 105.911 87.4327 104.814 85.678C103.716 83.9233 103.751 82.9499 103.751 82.9499L103.452 71.7256L97.4746 72.4258C97.4746 72.4258 86.626 105.095 86.5449 110.044C86.4638 114.992 84.1113 137.944 84.1113 137.944C84.1113 137.944 90.2593 139.733 94.5415 139.319C98.8237 138.905 117.972 136.877 117.972 136.877L123.424 134.605L128.24 79.2269L123.129 76.8489Z" fill="#E1E1E1"/>
<path d="M76.2386 68.6176L61.8977 60.7833C60.1429 55.66 54.3878 52.8123 50.8655 55.4636L53.8541 56.9664C53.8541 56.9664 54.4091 70.1546 51.6681 72.2167L48.1886 69.7362C48.1886 69.7362 46.2887 76.8619 48.338 79.193C50.3873 81.5241 53.9437 81.4643 53.9437 81.4643L56.1254 79.193C57.3287 83.5298 60.1072 87.2613 63.9171 89.6573C70.27 93.5979 81.9041 94.6781 84.47 98.2473L91.1516 94.5628L92.1379 71.0128L76.2386 68.6176Z" fill="#D4F0FF"/>
<path d="M103.623 70.4019L100.574 71.1277L97.4661 70.9825C97.4661 70.9825 83.868 98.1231 82.9757 102.282C82.0834 106.44 80.0597 123.099 80.0597 123.099C80.0597 123.099 76.546 131.023 75.0645 133.862C73.583 136.702 64.7709 158.706 64.7709 158.706C64.7709 158.706 63.7078 166.135 66.9056 166.626C70.1034 167.117 73.0408 165.849 75.4786 166.835C76.9556 167.434 78.4909 167.877 80.0597 168.159L82.331 156.554C82.331 156.554 85.691 143.14 86.5449 139.353C87.3988 135.566 89.6317 127.791 89.8751 124.704C90.1184 121.618 89.7512 112.609 90.2465 110.142C90.7417 107.674 94.3195 106.436 95.6772 104.591C97.0349 102.747 100.865 93.1151 101.227 88.2992C101.59 83.4833 103.623 70.4019 103.623 70.4019Z" fill="#D4F0FF"/>
<path d="M82.9843 78.8555C83.0541 79.1041 83.0872 79.3615 83.0825 79.6197C83.1209 80.1149 83.1593 80.8279 83.1977 81.7117C83.2746 83.5817 83.3728 85.9811 83.4795 88.594C83.5863 91.2069 83.7997 93.7173 84.0345 95.4507C84.2694 97.184 84.5383 98.2471 84.4615 98.2642C84.3402 98.0367 84.2497 97.7941 84.1925 97.5427C84.002 96.8687 83.8495 96.1845 83.7357 95.4934C83.3791 93.2155 83.1538 90.9191 83.0611 88.6153C82.9288 85.9213 82.8989 83.492 82.8946 81.716C82.8946 80.9091 82.8946 80.2131 82.8946 79.624C82.8892 79.3649 82.9193 79.1063 82.9843 78.8555Z" fill="#1A2E35"/>
<path d="M100.583 71.1282C100.608 71.5026 100.598 71.8785 100.553 72.251C100.502 72.9683 100.403 74.0058 100.207 75.2823C99.6772 78.5991 98.879 81.8673 97.8205 85.055C97.2996 86.6859 96.7574 88.2357 96.2451 89.6617L95.9377 89.4525C97.1773 88.3871 98.6342 87.6047 100.207 87.1598L100.305 87.1342L100.365 87.2068C100.762 87.7346 100.998 88.3664 101.044 89.0255C101.092 89.5081 101.075 89.995 100.993 90.4729C100.947 90.7738 100.872 91.0697 100.771 91.3566C100.744 91.4605 100.699 91.5588 100.638 91.647C100.6 91.647 100.749 91.22 100.83 90.4515C100.885 89.9878 100.885 89.5192 100.83 89.0554C100.764 88.4513 100.53 87.8778 100.156 87.3989L100.31 87.4459C98.7965 87.9145 97.3987 88.6955 96.2066 89.7385L95.6602 90.2167L95.8992 89.5336C96.3988 88.1076 96.9324 86.545 97.4533 84.9312C98.4983 81.7584 99.3298 78.5192 99.9424 75.2353C100.173 73.9545 100.314 72.9427 100.416 72.2468C100.434 71.8692 100.49 71.4945 100.583 71.1282Z" fill="#1A2E35"/>
<path d="M76.2387 167.613C76.2284 167.545 76.2284 167.476 76.2387 167.408C76.2643 167.25 76.2985 167.053 76.3412 166.81C76.4479 166.255 76.5973 165.491 76.7681 164.517L78.4759 156.119L84.2908 128.432C85.3966 123.019 86.4255 117.861 87.241 113.143C87.6198 110.902 88.1548 108.689 88.842 106.522C89.4604 104.634 90.2701 102.814 91.2585 101.091C92.7092 98.6192 94.3538 96.2664 96.1768 94.0549C96.813 93.2651 97.3168 92.6631 97.6583 92.2532L98.0554 91.7964C98.0975 91.7409 98.1462 91.6907 98.2005 91.647C98.1699 91.7091 98.1327 91.7678 98.0895 91.822L97.7223 92.3045L96.3647 94.1531C94.5973 96.3935 92.9949 98.7593 91.5701 101.232C90.6123 102.947 89.8272 104.754 89.2262 106.624C88.5598 108.782 88.0405 110.983 87.6722 113.212C86.8781 117.934 85.8577 123.1 84.7519 128.513C82.5275 139.341 80.3757 149.109 78.8217 156.179C78.0446 159.689 77.4128 162.541 76.9688 164.551C76.7467 165.516 76.5745 166.275 76.4522 166.827L76.307 167.416C76.2916 167.484 76.2687 167.55 76.2387 167.613Z" fill="#1A2E35"/>
<path d="M83.0782 101.505C83.1209 101.398 84.5555 101.855 86.2888 102.521C88.0222 103.187 89.3927 103.802 89.3543 103.921C89.3158 104.041 87.8771 103.571 86.1437 102.901C84.4103 102.231 83.0398 101.611 83.0782 101.505Z" fill="#375A64"/>
<path d="M97.4747 70.9829C97.4747 71.1153 92.6801 86.0454 91.4975 88.876C90.3149 91.7066 84.4914 98.2687 84.4914 98.2687L83.5564 92.4837L91.173 70.9829H97.4747Z" fill="#FF9900"/>
<path d="M92.71 86.2416C92.6035 86.2412 92.4975 86.2283 92.3941 86.2032L86.7926 84.8284C86.6145 84.7861 86.4468 84.7079 86.3 84.5985C86.1532 84.4891 86.0302 84.3509 85.9387 84.1923C85.8492 84.0365 85.7934 83.8637 85.775 83.6849C85.7566 83.5062 85.776 83.3256 85.832 83.1548L86.6603 80.4993C86.7612 80.1755 86.983 79.9031 87.2795 79.7385C87.5761 79.5739 87.9246 79.5299 88.2527 79.6155L93.9396 81.1183C94.1149 81.1653 94.2786 81.2478 94.4206 81.3607C94.5627 81.4736 94.68 81.6145 94.7652 81.7747C94.8505 81.9348 94.902 82.1108 94.9164 82.2917C94.9308 82.4725 94.9078 82.6545 94.849 82.8261L93.9524 85.3877C93.8579 85.6403 93.6879 85.8576 93.4657 86.0104C93.2435 86.1631 92.9797 86.2438 92.71 86.2416ZM87.9411 80.3541C87.8265 80.3529 87.7147 80.3888 87.6223 80.4566C87.5299 80.5243 87.462 80.6202 87.4287 80.7298L86.5962 83.3854C86.5734 83.4556 86.5654 83.5298 86.5728 83.6033C86.5801 83.6768 86.6026 83.748 86.6389 83.8123C86.6757 83.8758 86.7249 83.9311 86.7836 83.9751C86.8423 84.0191 86.9092 84.0509 86.9805 84.0685L92.5777 85.4475C92.7077 85.4804 92.8454 85.4631 92.9633 85.399C93.0812 85.3349 93.1706 85.2287 93.2138 85.1017L94.1104 82.54C94.1356 82.4708 94.146 82.3969 94.1409 82.3234C94.1357 82.2498 94.1152 82.1782 94.0805 82.1131C94.0454 82.0482 93.9974 81.9912 93.9394 81.9457C93.8813 81.9002 93.8146 81.867 93.7432 81.8484L88.0777 80.3626C88.032 80.3595 87.986 80.3623 87.9411 80.3712V80.3541Z" fill="white"/>
<path d="M96.4243 71.7254C96.3219 71.687 96.2963 71.4906 96.3731 71.2985C96.45 71.1064 96.5909 70.9655 96.6976 71.0039C96.8043 71.0423 96.8257 71.2387 96.7531 71.4308C96.6805 71.623 96.5311 71.751 96.4243 71.7254Z" fill="#1A2E35"/>
<path d="M95.8864 73.1729C95.7796 73.1345 95.754 72.9381 95.8309 72.746C95.9077 72.5539 96.0486 72.413 96.1553 72.4514C96.2621 72.4898 96.2877 72.6862 96.2108 72.8784C96.134 73.0705 95.9888 73.2114 95.8864 73.1729Z" fill="#1A2E35"/>
<path d="M95.3485 74.6375C95.2418 74.5991 95.2162 74.4027 95.293 74.2106C95.3699 74.0185 95.5108 73.8733 95.6175 73.9117C95.7242 73.9501 95.7456 74.1465 95.673 74.3387C95.6004 74.5308 95.451 74.6759 95.3485 74.6375Z" fill="#1A2E35"/>
<path d="M94.8106 76.1019C94.7081 76.0634 94.6825 75.8671 94.7551 75.6749C94.8276 75.4828 94.9728 75.3376 95.0795 75.3761C95.1863 75.4145 95.2119 75.6109 95.135 75.803C95.0582 75.9951 94.9173 76.1403 94.8106 76.1019Z" fill="#1A2E35"/>
<path d="M94.2811 77.5661C94.1744 77.532 94.1488 77.3356 94.2214 77.1392C94.294 76.9428 94.4391 76.8062 94.5459 76.8446C94.6526 76.883 94.6782 77.0752 94.6056 77.2716C94.533 77.468 94.3879 77.6046 94.2811 77.5661Z" fill="#1A2E35"/>
<path d="M93.7559 79.0393C93.6492 79.0008 93.6236 78.8045 93.6962 78.6123C93.7688 78.4202 93.9096 78.275 94.0164 78.3092C94.1231 78.3434 94.1487 78.544 94.0761 78.7361C94.0036 78.9283 93.8584 79.0777 93.7559 79.0393Z" fill="#1A2E35"/>
<path d="M93.2352 80.512C93.1284 80.4736 93.1028 80.2815 93.1711 80.0851C93.2395 79.8887 93.3889 79.7478 93.4956 79.782C93.6023 79.8161 93.628 80.0168 93.5554 80.2089C93.4828 80.401 93.3419 80.5505 93.2352 80.512Z" fill="#1A2E35"/>
<path d="M92.7271 81.9723C92.6204 81.9382 92.5905 81.7418 92.6588 81.5454C92.7271 81.349 92.8723 81.2039 92.979 81.2423C93.0857 81.2807 93.1156 81.4728 93.043 81.6692C92.9705 81.8656 92.8296 82.0279 92.7271 81.9723Z" fill="#1A2E35"/>
<path d="M92.2318 83.4748C92.1251 83.4363 92.0952 83.2442 92.1635 83.0478C92.2318 82.8514 92.3727 82.702 92.4794 82.7404C92.5862 82.7789 92.616 82.9667 92.5477 83.1674C92.4794 83.368 92.3385 83.5089 92.2318 83.4748Z" fill="#1A2E35"/>
<path d="M91.7238 84.9607C91.617 84.9223 91.5914 84.7259 91.6597 84.5338C91.728 84.3417 91.8775 84.1922 91.9842 84.2307C92.0909 84.2691 92.1166 84.4612 92.044 84.6576C91.9714 84.854 91.8305 84.9906 91.7238 84.9607Z" fill="#1A2E35"/>
<path d="M91.1858 86.4211C91.079 86.3784 91.0577 86.182 91.1303 85.9942C91.2029 85.8063 91.3523 85.6611 91.459 85.6996C91.5658 85.738 91.5871 85.9344 91.5103 86.1265C91.4334 86.3186 91.2882 86.4595 91.1858 86.4211Z" fill="#1A2E35"/>
<path d="M90.6094 87.8726C90.507 87.8299 90.4899 87.6335 90.5667 87.4456C90.6436 87.2578 90.7973 87.1212 90.904 87.1596C91.0108 87.198 91.0278 87.3987 90.9467 87.5865C90.8656 87.7744 90.7162 87.9153 90.6094 87.8726Z" fill="#1A2E35"/>
<path d="M89.9989 89.3114C89.8964 89.2645 89.8836 89.0681 89.969 88.8845C90.0544 88.7009 90.2081 88.5643 90.3106 88.607C90.413 88.6497 90.4258 88.8461 90.3404 89.0339C90.2551 89.2218 90.1014 89.3584 89.9989 89.3114Z" fill="#1A2E35"/>
<path d="M89.3457 90.7287C89.2475 90.6818 89.2389 90.4854 89.3457 90.3018C89.4524 90.1182 89.5933 89.9901 89.6958 90.0371C89.7982 90.0841 89.8068 90.2805 89.6958 90.464C89.5848 90.6476 89.4481 90.78 89.3457 90.7287Z" fill="#1A2E35"/>
<path d="M88.6497 92.1248C88.5473 92.0735 88.5473 91.8771 88.6497 91.6978C88.7522 91.5185 88.9059 91.3947 89.0084 91.4416C89.1108 91.4886 89.1108 91.6893 89.0084 91.8686C88.9059 92.0479 88.7479 92.176 88.6497 92.1248Z" fill="#1A2E35"/>
<path d="M87.9026 93.4996C87.8044 93.4441 87.8087 93.2477 87.9026 93.0727C87.9965 92.8976 88.1716 92.7781 88.2698 92.8293C88.368 92.8806 88.3637 93.0812 88.2698 93.2563C88.1759 93.4313 88.0008 93.5509 87.9026 93.4996Z" fill="#1A2E35"/>
<path d="M87.1042 94.8359C87.0103 94.7762 87.0231 94.5798 87.1341 94.409C87.2451 94.2382 87.4116 94.1229 87.5098 94.1827C87.608 94.2425 87.5952 94.4346 87.4799 94.6097C87.3646 94.7847 87.1981 94.8957 87.1042 94.8359Z" fill="#1A2E35"/>
<path d="M86.545 95.7153C86.4553 95.6556 86.4084 95.5531 86.4511 95.4933C86.4938 95.4335 86.6005 95.4335 86.6944 95.4933C86.7884 95.5531 86.8311 95.6556 86.7884 95.7153C86.7457 95.7751 86.6304 95.7794 86.545 95.7153Z" fill="#1A2E35"/>
<path d="M83.9834 92.2614C84.0901 92.2955 84.1243 92.4919 84.0559 92.6883C83.9876 92.8847 83.8467 93.0299 83.74 92.9915C83.6333 92.953 83.5991 92.7652 83.6674 92.5645C83.7357 92.3639 83.8724 92.2187 83.9834 92.2614Z" fill="#1A2E35"/>
<path d="M84.4871 90.7886C84.5939 90.827 84.6237 91.0234 84.5512 91.2155C84.4786 91.4076 84.3377 91.5528 84.231 91.5144C84.1242 91.4759 84.0943 91.2838 84.1669 91.0874C84.2395 90.891 84.3847 90.7501 84.4871 90.7886Z" fill="#1A2E35"/>
<path d="M85.0165 89.3241C85.119 89.3625 85.1489 89.5589 85.0763 89.7511C85.0037 89.9432 84.8543 90.0841 84.7518 90.0456C84.6493 90.0072 84.6195 89.8151 84.692 89.6187C84.7646 89.4223 84.9098 89.2857 85.0165 89.3241Z" fill="#1A2E35"/>
<path d="M85.5544 87.864C85.6612 87.9024 85.6825 88.0988 85.6099 88.2909C85.5374 88.4831 85.3879 88.624 85.2855 88.5855C85.183 88.5471 85.1531 88.3507 85.23 88.1586C85.3068 87.9665 85.4477 87.8256 85.5544 87.864Z" fill="#1A2E35"/>
<path d="M86.1181 86.3998C86.2248 86.4425 86.2461 86.6346 86.1693 86.8267C86.0924 87.0189 85.9473 87.1598 85.8448 87.1171C85.7423 87.0744 85.7167 86.8823 85.7893 86.6901C85.8619 86.498 85.9942 86.3614 86.1181 86.3998Z" fill="#1A2E35"/>
<path d="M86.6516 84.9611C86.7584 85.0038 86.7797 85.2002 86.7029 85.388C86.626 85.5759 86.4808 85.721 86.3784 85.6783C86.2759 85.6356 86.2503 85.4435 86.3229 85.2514C86.3955 85.0593 86.5449 84.9013 86.6516 84.9611Z" fill="#1A2E35"/>
<path d="M87.2067 83.4836C87.3135 83.5221 87.3348 83.7185 87.258 83.9106C87.1811 84.1027 87.036 84.2436 86.9292 84.2052C86.8225 84.1667 86.8011 83.9704 86.878 83.7782C86.9548 83.5861 87.1043 83.4452 87.2067 83.4836Z" fill="#1A2E35"/>
<path d="M87.766 82.0236C87.8685 82.0663 87.8941 82.2627 87.8172 82.4505C87.7404 82.6384 87.591 82.7836 87.4885 82.7409C87.386 82.6982 87.3604 82.506 87.4373 82.3139C87.5141 82.1218 87.6593 81.9724 87.766 82.0236Z" fill="#1A2E35"/>
<path d="M88.321 80.5676C88.4277 80.606 88.4491 80.8024 88.3722 80.9946C88.2954 81.1867 88.1502 81.3276 88.0435 81.2891C87.9368 81.2507 87.9154 81.0543 87.9923 80.8622C88.0691 80.6701 88.2185 80.5292 88.321 80.5676Z" fill="#1A2E35"/>
<path d="M88.8761 79.1076C88.9829 79.1503 89.0042 79.3424 88.9273 79.5345C88.8505 79.7266 88.7053 79.8633 88.5986 79.8248C88.4919 79.7864 88.4705 79.59 88.5474 79.3979C88.6242 79.2058 88.7737 79.0691 88.8761 79.1076Z" fill="#1A2E35"/>
<path d="M89.431 77.6471C89.5335 77.6898 89.5591 77.8819 89.4823 78.0741C89.4054 78.2662 89.2603 78.4071 89.1535 78.3644C89.0468 78.3217 89.0255 78.1296 89.1023 77.9374C89.1792 77.7453 89.3243 77.6087 89.431 77.6471Z" fill="#1A2E35"/>
<path d="M89.9605 76.187C90.063 76.2254 90.0886 76.4218 90.0118 76.6139C89.9349 76.8061 89.7897 76.947 89.6873 76.9085C89.5848 76.8701 89.5592 76.6737 89.6318 76.4816C89.7044 76.2895 89.8709 76.1486 89.9605 76.187Z" fill="#1A2E35"/>
<path d="M90.5155 74.714C90.6223 74.7525 90.6479 74.9489 90.571 75.141C90.4942 75.3331 90.3533 75.474 90.2466 75.4356C90.1398 75.3971 90.1185 75.205 90.1911 75.0086C90.2636 74.8122 90.4131 74.6842 90.5155 74.714Z" fill="#1A2E35"/>
<path d="M91.045 73.254C91.1517 73.2924 91.1773 73.4845 91.1047 73.6809C91.0322 73.8773 90.887 74.0182 90.7845 73.9798C90.6821 73.9414 90.6522 73.745 90.7248 73.5529C90.7973 73.3607 90.9425 73.2156 91.045 73.254Z" fill="#1A2E35"/>
<path d="M91.5658 71.7813C91.6683 71.8154 91.6982 72.0118 91.6256 72.2082C91.553 72.4046 91.4121 72.5455 91.3054 72.5071C91.1986 72.4686 91.173 72.2765 91.2456 72.0801C91.3182 71.8837 91.4591 71.7258 91.5658 71.7813Z" fill="#1A2E35"/>
<path d="M91.8561 70.9232C91.9628 70.9574 92.0397 71.0129 92.0269 71.047C92.0141 71.0812 91.9244 71.0769 91.8177 71.047C91.7109 71.0171 91.6341 70.9574 91.6426 70.9232C91.6512 70.889 91.7494 70.872 91.8561 70.9232Z" fill="#1A2E35"/>
<path d="M95.7968 80.9306C95.7813 81.2069 95.7282 81.4799 95.6389 81.7418C95.4567 82.4643 95.2373 83.1768 94.9814 83.8765C93.3045 88.5692 90.5494 92.8028 86.9378 96.2364C86.3942 96.7564 85.8242 97.248 85.23 97.7094C85.0252 97.896 84.797 98.0553 84.5512 98.1833C84.5085 98.1278 85.4051 97.3764 86.7286 96.0486C90.1857 92.5418 92.8984 88.3725 94.7039 83.7911C95.404 82.0407 95.7328 80.9135 95.7968 80.9306Z" fill="#1A2E35"/>
<path d="M53.5893 55.5571C53.7319 55.7854 53.8237 56.0417 53.8583 56.3085C53.9874 57.0132 54.0603 57.727 54.0761 58.4432C54.1284 60.8143 54.0229 63.1862 53.7601 65.5433C53.642 66.848 53.451 68.1451 53.188 69.4284C52.9709 70.4975 52.522 71.506 51.873 72.3829C51.422 72.9733 50.8365 73.4476 50.1653 73.7662C49.9296 73.897 49.6662 73.9701 49.3968 73.9796C50.2891 73.6063 51.0605 72.993 51.6254 72.2078C52.2093 71.3447 52.6103 70.3712 52.8038 69.3473C53.0471 68.1903 53.1838 66.8711 53.3375 65.5048C53.6192 62.7596 53.7644 60.2577 53.7644 58.4518C53.7737 57.7391 53.7438 57.0265 53.6747 56.3171C53.6449 55.8346 53.5552 55.5699 53.5893 55.5571Z" fill="#1A2E35"/>
<path d="M59.2421 59.3872C59.3635 59.6734 59.4509 59.9729 59.5026 60.2795C59.5963 60.6321 59.6691 60.9899 59.7203 61.3511C59.7843 61.7781 59.8825 62.2477 59.921 62.7857C60.0553 64.0375 60.0924 65.2979 60.032 66.5555C59.8864 69.6466 59.1775 72.6851 57.94 75.5213C57.4376 76.6753 56.8467 77.7887 56.1724 78.8514C55.8992 79.3168 55.6003 79.7053 55.357 80.0511C55.1489 80.3475 54.9252 80.6326 54.6867 80.905C54.5043 81.1573 54.2937 81.3879 54.0591 81.5924C53.995 81.5412 54.8446 80.5208 55.9248 78.6935C56.557 77.6231 57.1148 76.5104 57.5941 75.3633C58.7742 72.5546 59.4714 69.5666 59.6563 66.5257C59.7338 65.2856 59.7267 64.0418 59.6349 62.8027C59.4727 60.6894 59.1653 59.4 59.2421 59.3872Z" fill="#1A2E35"/>
<path d="M130.012 79.9995C130.012 79.9995 136.066 82.1726 138.551 84.9648C141.035 87.757 148.998 126.698 148.998 126.698C148.998 126.698 152.917 129.597 153.929 133.393C154.377 135.066 153.045 138.285 152.618 139.186C151.222 142.132 143.362 143.153 139.481 142.999C135.6 142.845 130.012 136.62 130.012 136.62L130.635 125.947L130.012 79.9995Z" fill="#D4F0FF"/>
<path d="M126.443 78.386C126.443 78.386 122.34 93.9266 121.981 94.661C121.622 95.3953 116.896 122.732 118.215 127.629C119.535 132.526 128.389 136.843 127.258 142.786C126.127 148.729 123.112 157.02 124.62 164.274C126.127 171.527 130.648 173.414 130.648 173.414L138.563 167.762C138.563 167.762 141.01 158.527 140.07 152.311C139.131 146.095 134.789 139.878 134.789 139.878C134.789 139.878 132.151 102.572 131.775 102.009C131.399 101.445 130.012 79.9955 130.012 79.9955L126.443 78.386Z" fill="#D4F0FF"/>
<path d="M129.999 79.9954C130.021 80.3172 130.011 80.6404 129.969 80.9603C129.914 81.5836 129.82 82.4759 129.657 83.5774C129.342 85.7847 128.744 88.8032 127.95 92.1162C127.472 94.0844 126.981 95.9288 126.545 97.5256L126.421 97.9781L126.212 97.5512C125.725 96.582 125.811 95.6129 125.623 94.8529C125.435 94.093 125.068 93.4568 124.556 93.2647C124.357 93.1839 124.14 93.1545 123.927 93.1791C123.714 93.2037 123.51 93.2816 123.334 93.4056C123.1 93.5934 123.07 93.7813 123.04 93.7685C123.01 93.7557 123.04 93.7258 123.04 93.6404C123.082 93.5204 123.153 93.4121 123.245 93.3245C123.428 93.1631 123.651 93.0538 123.89 93.0079C124.13 92.9621 124.377 92.9815 124.607 93.064C125.243 93.2647 125.704 93.9734 125.888 94.7718C126.071 95.5702 126.058 96.5393 126.507 97.3633L126.174 97.406C126.579 95.7879 127.028 93.9478 127.531 91.9967C128.334 88.705 128.974 85.7078 129.359 83.5262C129.534 82.493 129.679 81.6263 129.786 80.9346C129.82 80.6144 129.892 80.2992 129.999 79.9954Z" fill="#1A2E35"/>
<path d="M131.485 100.092C131.532 100.229 131.559 100.373 131.566 100.518C131.609 100.843 131.656 101.249 131.72 101.74C131.839 102.803 131.98 104.344 132.108 106.248C132.381 110.061 132.475 115.338 132.595 121.157C132.667 124.069 132.77 126.839 132.928 129.354C133.013 130.609 133.094 131.805 133.197 132.923C133.24 133.483 133.304 134.008 133.312 134.554C133.296 135.06 133.252 135.565 133.18 136.066C133.029 136.902 132.963 137.752 132.983 138.602C133.014 139.233 133.258 139.835 133.675 140.309C133.834 140.474 134.013 140.618 134.209 140.736C134.34 140.837 134.484 140.922 134.636 140.988C134.77 141.04 134.897 141.108 135.016 141.189C134.869 141.166 134.725 141.124 134.589 141.065C134.421 141.011 134.262 140.935 134.115 140.839C133.901 140.724 133.704 140.58 133.53 140.412C133.061 139.924 132.778 139.289 132.727 138.614C132.681 137.748 132.727 136.879 132.864 136.023C132.925 135.533 132.959 135.04 132.966 134.546C132.966 134.05 132.881 133.5 132.83 132.945C132.714 131.826 132.62 130.631 132.527 129.371C132.343 126.848 132.232 124.073 132.159 121.157C132.04 115.333 131.993 110.056 131.792 106.257C131.703 104.352 131.604 102.811 131.532 101.748C131.502 101.253 131.476 100.847 131.455 100.518C131.448 100.376 131.458 100.232 131.485 100.092Z" fill="#1A2E35"/>
<path d="M131.485 172.804C131.42 172.772 131.358 172.733 131.301 172.689C131.182 172.603 131.007 172.475 130.789 172.3C130.146 171.785 129.535 171.231 128.957 170.644C128.038 169.714 127.191 168.715 126.425 167.655C125.92 166.996 125.56 166.238 125.367 165.431C125.192 164.527 125.116 163.606 125.14 162.685C125.211 160.59 125.469 158.505 125.913 156.456C126.127 155.351 126.387 154.215 126.643 153.041C126.776 152.46 126.904 151.867 127.006 151.269C127.04 150.962 127.074 150.659 127.104 150.347C127.134 150.035 127.202 149.719 127.262 149.408C127.51 148.157 127.826 146.897 128.167 145.616L128.697 143.678C128.909 143.046 129.052 142.394 129.124 141.731C129.176 140.361 128.848 139.003 128.176 137.808C127.491 136.556 126.655 135.393 125.687 134.345C124.706 133.28 123.78 132.166 122.912 131.006C122.073 129.853 121.465 128.548 121.123 127.164C120.478 124.419 120.777 121.703 121.042 119.202C121.618 114.181 122.135 109.659 122.57 105.847C123.006 102.034 123.377 99.0158 123.633 96.8512C123.761 95.8137 123.868 94.994 123.941 94.4048C123.979 94.1444 124.009 93.9352 124.03 93.7729C124.037 93.6987 124.053 93.6256 124.077 93.5552C124.087 93.6289 124.087 93.7035 124.077 93.7772C124.077 93.9437 124.047 94.1529 124.026 94.4133C123.972 95.0053 123.894 95.8237 123.791 96.8682C123.569 99.0029 123.249 102.098 122.856 105.881C122.463 109.664 121.96 114.219 121.417 119.24C121.161 121.742 120.884 124.419 121.511 127.07C121.845 128.408 122.435 129.668 123.249 130.78C124.109 131.929 125.027 133.033 125.999 134.089C126.987 135.161 127.84 136.349 128.539 137.628C129.244 138.889 129.586 140.322 129.525 141.765C129.502 142.122 129.442 142.475 129.346 142.82C129.249 143.144 129.155 143.469 129.064 143.793C128.88 144.447 128.705 145.074 128.526 145.727C128.184 147.008 127.869 148.255 127.617 149.489C127.557 149.796 127.501 150.099 127.459 150.402C127.416 150.705 127.39 151.026 127.356 151.333C127.245 151.952 127.113 152.546 126.98 153.131C126.716 154.296 126.451 155.427 126.229 156.546C125.778 158.573 125.505 160.636 125.414 162.711C125.382 163.61 125.446 164.511 125.606 165.397C125.783 166.17 126.122 166.898 126.601 167.531C127.345 168.586 128.165 169.585 129.055 170.52C129.794 171.293 130.405 171.856 130.827 172.228L131.314 172.655C131.433 172.748 131.489 172.795 131.485 172.804Z" fill="#1A2E35"/>
<path d="M133.133 187.913C125.875 187.597 117.946 188.998 113.199 194.492C108.844 199.535 109.356 207.023 110.133 213.645C110.91 220.267 112.204 227.781 117.848 231.333C121.191 233.438 125.354 233.63 129.303 233.669C142.456 233.796 155.6 232.922 168.62 231.051C172.834 230.445 177.458 229.493 180.019 226.09C182.248 223.14 182.295 219.14 182.252 215.442C182.187 209.895 182.121 204.345 182.056 198.792C182.013 195.274 181.783 191.316 179.153 188.972C176.958 187.021 173.76 186.837 170.827 186.761C158.19 186.453 145.766 187.405 133.133 187.888" fill="#FF9900"/>
<path d="M121.409 231.077C122.096 231.096 122.783 231.074 123.467 231.013C125.324 230.751 127.072 229.983 128.522 228.793C129.534 227.994 130.401 227.026 131.083 225.932C131.858 224.676 132.412 223.298 132.723 221.855C133.427 218.811 133.188 215.276 132.125 211.831C131.062 208.385 129.461 205.277 128.001 202.493C126.541 199.71 124.94 197.336 123.087 195.859C121.652 194.653 119.9 193.888 118.04 193.656C117.354 193.605 116.665 193.622 115.983 193.707C116.153 193.646 116.329 193.602 116.508 193.575C117.019 193.493 117.537 193.467 118.053 193.498C119.965 193.675 121.78 194.418 123.266 195.632C125.187 197.118 126.852 199.535 128.33 202.318C129.807 205.102 131.451 208.193 132.518 211.711C133.585 215.229 133.833 218.824 133.09 221.958C132.763 223.435 132.186 224.846 131.382 226.129C130.673 227.245 129.775 228.229 128.727 229.036C127.229 230.228 125.422 230.969 123.518 231.171C122.815 231.253 122.102 231.221 121.409 231.077Z" fill="#1A2E35"/>
<path d="M178.137 189.625C178.137 189.676 177.33 189.45 175.861 189.403C173.78 189.397 171.71 189.714 169.726 190.342C167.186 191.034 164.257 192.251 160.799 192.934C157.057 193.663 153.242 193.949 149.433 193.788C145.39 193.664 141.556 193.263 138.077 192.934C134.597 192.605 131.463 192.315 128.825 192.225C127.506 192.174 126.31 192.161 125.264 192.165C124.218 192.17 123.313 192.191 122.575 192.242L120.867 192.353C120.668 192.369 120.468 192.369 120.269 192.353C120.463 192.307 120.66 192.277 120.858 192.264L122.566 192.076C123.3 191.999 124.21 191.986 125.26 191.926C126.31 191.867 127.51 191.897 128.833 191.926C131.485 191.978 134.631 192.234 138.111 192.545C141.59 192.857 145.42 193.246 149.446 193.369C153.223 193.528 157.006 193.256 160.722 192.558C164.137 191.905 167.079 190.718 169.649 190.056C171.662 189.445 173.762 189.168 175.865 189.237C176.636 189.27 177.399 189.4 178.137 189.625Z" fill="#1A2E35"/>
<path d="M172.966 189.561C173.013 189.527 173.304 189.847 173.739 190.39C174.011 190.706 174.256 191.046 174.469 191.406C174.552 191.534 174.607 191.677 174.631 191.827C174.656 191.978 174.649 192.131 174.611 192.279C174.574 192.426 174.506 192.564 174.412 192.685C174.319 192.805 174.202 192.904 174.068 192.977C173.909 193.029 173.739 193.036 173.577 192.996C173.415 192.957 173.267 192.874 173.15 192.755C172.942 192.558 172.808 192.296 172.77 192.012C172.745 191.591 172.776 191.169 172.864 190.757C172.912 190.4 172.887 190.037 172.791 189.689C172.834 189.63 173.197 190.031 173.15 190.778C173.109 191.167 173.109 191.559 173.15 191.948C173.188 192.324 173.598 192.725 173.931 192.597C174.013 192.556 174.084 192.495 174.137 192.421C174.191 192.347 174.226 192.261 174.239 192.17C174.264 191.968 174.228 191.763 174.136 191.581C173.947 191.234 173.739 190.897 173.513 190.573C173.129 189.958 172.919 189.561 172.966 189.561Z" fill="#1A2E35"/>
<path d="M177.172 206.212C177.058 206.271 176.938 206.314 176.813 206.34L175.776 206.639C174.866 206.891 173.543 207.224 171.899 207.604C168.612 208.364 164.035 209.261 158.933 209.944C153.831 210.627 149.173 210.96 145.804 211.092C144.122 211.156 142.756 211.182 141.813 211.178H140.728C140.601 211.186 140.473 211.176 140.348 211.148C140.471 211.114 140.597 211.097 140.724 211.096L141.808 211.032L145.792 210.815C149.152 210.614 153.788 210.234 158.877 209.555C163.966 208.876 168.543 208.022 171.839 207.335L175.737 206.481L176.8 206.259C176.921 206.227 177.046 206.211 177.172 206.212Z" fill="#1A2E35"/>
<path d="M159.18 219.447C159.207 219.658 159.196 219.872 159.146 220.079C159.07 220.649 158.946 221.212 158.775 221.761C158.528 222.582 158.204 223.377 157.806 224.135C156.829 226.003 155.455 227.633 153.78 228.913C153.1 229.435 152.37 229.889 151.602 230.27C151.09 230.533 150.556 230.75 150.005 230.919C149.81 231.001 149.602 231.05 149.391 231.064C149.365 230.992 150.219 230.71 151.47 230.014C152.199 229.605 152.895 229.139 153.549 228.618C154.344 227.975 155.079 227.26 155.744 226.483C156.396 225.696 156.976 224.852 157.477 223.96C157.88 223.226 158.223 222.461 158.502 221.672C158.975 220.323 159.125 219.447 159.18 219.447Z" fill="#1A2E35"/>
<path d="M161.477 223.593C161.558 223.657 160.623 224.874 159.151 226.052C157.678 227.23 156.277 227.85 156.23 227.76C156.183 227.67 157.46 226.885 158.899 225.736C160.337 224.588 161.388 223.512 161.477 223.593Z" fill="#1A2E35"/>
<path d="M131.801 230.68C131.775 230.787 130.989 230.633 130.264 230.014C129.538 229.395 129.256 228.648 129.354 228.605C129.452 228.562 129.862 229.147 130.528 229.702C131.194 230.257 131.835 230.569 131.801 230.68Z" fill="#1A2E35"/>
<path d="M131.553 228.597C131.519 228.703 131.079 228.652 130.571 228.486C130.063 228.319 129.687 228.089 129.717 227.982C129.747 227.875 130.191 227.931 130.699 228.097C131.207 228.264 131.587 228.49 131.553 228.597Z" fill="#1A2E35"/>
<path d="M151.226 181.569C149.339 180.45 147.26 180.506 145.126 181.018C143.132 181.496 141.087 182.004 139.43 183.208C137.774 184.412 136.587 186.509 137.069 188.498H139.759C139.921 187.888 140.186 186.154 140.446 185.586C141.018 184.395 142.363 183.793 143.648 183.482C145.446 183.055 147.764 182.897 149.455 183.652C150.275 184.048 150.963 184.671 151.437 185.448C151.911 186.225 152.151 187.123 152.127 188.033L154.689 187.538C154.271 185.121 153.34 182.824 151.226 181.569Z" fill="#1A2E35"/>
<path d="M140.369 170.025C140.369 170.025 138.632 176.493 138.585 177.607C138.559 178.461 139.405 183.354 139.802 185.604C139.866 186.026 140.093 186.406 140.433 186.663C140.774 186.921 141.201 187.036 141.625 186.983C141.678 186.975 141.731 186.962 141.783 186.944C142.041 186.844 142.266 186.674 142.433 186.453C142.601 186.232 142.704 185.969 142.73 185.694C142.894 186.019 143.155 186.284 143.478 186.453C143.8 186.621 144.168 186.684 144.528 186.633C145.809 186.453 145.834 184.865 145.834 184.865C145.907 184.934 145.984 184.999 146.065 185.057C146.288 185.219 146.55 185.318 146.824 185.344C147.098 185.37 147.374 185.322 147.623 185.205C147.872 185.088 148.086 184.907 148.241 184.68C148.397 184.452 148.488 184.188 148.507 183.913L148.554 183.192C148.554 183.192 149.092 184.071 149.967 183.922C151.641 183.636 151.376 179.81 151.376 179.81L149.877 169.602L148.195 134.358C143.23 134.503 138.803 135.037 135.502 137.547L140.369 170.025Z" fill="#FFB380"/>
<path d="M139.089 180.856C139.183 180.856 139.447 181.889 139.627 183.204C139.806 184.519 139.925 185.586 139.831 185.604C139.738 185.621 139.473 184.57 139.294 183.251C139.114 181.932 138.995 180.873 139.089 180.856Z" fill="#FF8B2E"/>
<path d="M142.175 181.573C142.265 181.552 142.568 182.427 142.705 183.593C142.841 184.758 142.756 185.681 142.666 185.676C142.577 185.672 142.504 184.754 142.368 183.631C142.231 182.508 142.081 181.599 142.175 181.573Z" fill="#FF8B2E"/>
<path d="M141.394 178.986C141.428 178.9 141.727 178.956 141.962 179.221C142.197 179.485 142.222 179.788 142.133 179.814C142.043 179.84 141.898 179.652 141.706 179.447C141.514 179.242 141.351 179.071 141.394 178.986Z" fill="#FF8B2E"/>
<path d="M145.382 180.489C145.476 180.489 145.676 181.475 145.809 182.713C145.941 183.951 146.009 184.967 145.915 184.98C145.821 184.993 145.625 184.002 145.488 182.756C145.352 181.509 145.288 180.493 145.382 180.489Z" fill="#FF8B2E"/>
<path d="M143.529 177.731C143.529 177.693 143.601 177.594 143.802 177.539C144.072 177.469 144.358 177.507 144.6 177.646C144.841 177.782 145.021 178.005 145.104 178.269C145.16 178.47 145.104 178.598 145.079 178.602C145.053 178.606 144.861 178.175 144.434 177.94C144.007 177.705 143.563 177.821 143.529 177.731Z" fill="#FF8B2E"/>
<path d="M148.486 179.199C148.579 179.199 148.686 180.109 148.72 181.236C148.755 182.363 148.72 183.277 148.614 183.281C148.507 183.285 148.417 182.372 148.383 181.245C148.349 180.117 148.392 179.204 148.486 179.199Z" fill="#FF8B2E"/>
<path d="M146.394 176.552C146.394 176.51 146.488 176.429 146.688 176.403C146.95 176.381 147.213 176.441 147.44 176.574C147.96 176.881 148.191 177.282 148.136 177.338C148.08 177.393 147.709 177.125 147.282 176.868C146.855 176.612 146.424 176.638 146.394 176.552Z" fill="#FF8B2E"/>
<path d="M104.327 33.3479C107.849 29.9324 110.842 29.2535 114.279 29.1254C119.483 28.9376 125.038 30.56 128.765 34.1975C132.181 37.5404 133.675 42.5015 133.637 47.2832C133.637 48.991 132.911 50.4981 132.232 52.0436C131.553 53.5891 129.461 55.3908 127.877 55.9715C126.293 56.5521 125.742 55.9715 124.632 54.6907C123.958 53.9136 123.65 52.889 123.352 51.9027C122.071 47.7315 120.534 43.5646 117.912 40.0807C115.291 36.5969 111.436 33.8431 107.098 33.4034" fill="#2C2C2C"/>
<path d="M101.087 42.31C100.874 40.6655 101.057 38.994 101.621 37.4345C102.184 35.8751 103.112 34.4727 104.327 33.3443C106.167 31.6707 108.575 30.7143 111.022 30.2532C114.305 29.6342 117.853 29.8818 120.773 31.4956C123.693 33.1095 125.896 36.2304 125.896 39.5733C125.896 41.089 125.469 42.626 125.785 44.1075C125.93 44.7521 126.212 45.431 125.969 46.0415C125.836 46.3135 125.628 46.5415 125.369 46.6982C125.11 46.855 124.811 46.9338 124.509 46.9253C123.903 46.8989 123.314 46.7149 122.801 46.3916C121.003 45.3925 119.59 43.8299 118.211 42.31" fill="#2C2C2C"/>
<path d="M109.988 34.8294L124.163 40.0637C124.839 40.2099 125.435 40.6039 125.835 41.1681C126.235 41.7323 126.409 42.4259 126.323 43.1121L121.529 74.7398C121.201 76.9009 120.17 78.8936 118.595 80.4096L116.939 82.0064C113.156 85.6439 106.773 84.2905 105.014 79.3465C104.905 79.0727 104.834 78.7855 104.801 78.4926C104.776 78.2487 104.764 78.0035 104.767 77.7583C104.739 76.1368 104.883 74.5169 105.194 72.9253C105.463 70.0862 105.587 68.9249 105.582 68.9505C105.578 68.9761 99.7076 67.3196 99.2977 59.3828C99.0971 55.4378 99.968 49.0935 100.852 43.9275C101.663 39.2781 105.377 33.8389 109.988 34.8294Z" fill="#FFB380"/>
<path d="M101.915 49.2769C101.883 49.5369 101.955 49.7989 102.115 50.0065C102.274 50.2142 102.509 50.3508 102.769 50.3869C102.895 50.4108 103.024 50.4092 103.15 50.3822C103.275 50.3552 103.394 50.3034 103.499 50.2298C103.604 50.1562 103.693 50.0623 103.761 49.9536C103.83 49.8449 103.875 49.7237 103.896 49.5971C103.926 49.3367 103.854 49.0748 103.695 48.8667C103.535 48.6587 103.301 48.5209 103.042 48.4827C102.916 48.4589 102.786 48.4606 102.66 48.4879C102.534 48.5151 102.416 48.5673 102.31 48.6414C102.205 48.7155 102.116 48.8099 102.048 48.919C101.98 49.0282 101.935 49.1499 101.915 49.2769Z" fill="#1A2E35"/>
<path d="M112.033 50.4983C112.003 50.7581 112.075 51.0196 112.235 51.2269C112.394 51.4343 112.628 51.5712 112.887 51.6083C113.013 51.6322 113.143 51.6306 113.268 51.6037C113.394 51.5767 113.512 51.5248 113.617 51.4512C113.722 51.3776 113.812 51.2837 113.88 51.175C113.948 51.0663 113.994 50.9451 114.014 50.8185C114.045 50.5582 113.973 50.2962 113.813 50.0882C113.654 49.8801 113.42 49.7424 113.16 49.7042C113.034 49.6803 112.904 49.6821 112.779 49.7093C112.653 49.7366 112.534 49.7888 112.429 49.8628C112.324 49.9369 112.235 50.0313 112.167 50.1404C112.099 50.2496 112.053 50.3713 112.033 50.4983Z" fill="#1A2E35"/>
<path d="M105.599 68.929C109.269 69.3756 112.99 68.7963 116.35 67.2554C116.35 67.2554 113.148 72.3787 105.411 70.8118L105.599 68.929Z" fill="#FF8B2E"/>
<path d="M110.791 57.3463C110.616 57.3164 110.492 58.4862 109.403 59.2077C108.315 59.9293 107.081 59.6688 107.055 59.8311C107.03 59.9036 107.307 60.0915 107.832 60.1598C108.516 60.2428 109.207 60.081 109.783 59.703C110.336 59.3412 110.728 58.7798 110.876 58.1361C110.97 57.6366 110.881 57.3463 110.791 57.3463Z" fill="#FF8B2E"/>
<path d="M111.363 47.6206C111.431 47.9921 112.524 47.9366 113.767 48.2568C115.009 48.577 115.987 49.1106 116.192 48.8118C116.281 48.6624 116.141 48.3037 115.765 47.9067C115.288 47.4262 114.689 47.0864 114.031 46.9247C113.39 46.7596 112.715 46.7863 112.089 47.0016C111.598 47.1809 111.337 47.4413 111.363 47.6206Z" fill="#1A2E35"/>
<path d="M102.051 46.0326C102.209 46.3357 102.982 46.1223 103.874 46.2034C104.767 46.2845 105.505 46.5663 105.71 46.293C105.8 46.1564 105.71 45.8661 105.411 45.563C105.016 45.2001 104.509 44.9819 103.973 44.9439C103.437 44.906 102.904 45.0504 102.461 45.3538C102.115 45.6099 101.983 45.8874 102.051 46.0326Z" fill="#1A2E35"/>
<path d="M122.72 55.95C122.784 55.3694 123.599 54.0715 124.184 54.0416C125.743 53.9647 128.492 54.3831 128.103 58.2768C127.57 63.6051 122.336 61.9699 122.34 61.8162C122.344 61.6625 122.502 57.9566 122.72 55.95Z" fill="#FFB380"/>
<path d="M124.167 59.9633C124.193 59.9633 124.252 60.0359 124.402 60.1255C124.615 60.2413 124.864 60.2704 125.098 60.2067C125.678 60.0572 126.242 59.2119 126.379 58.2555C126.439 57.8008 126.397 57.3383 126.255 56.9021C126.221 56.7307 126.147 56.5701 126.037 56.4339C125.928 56.2978 125.787 56.1904 125.627 56.1208C125.524 56.0818 125.41 56.08 125.306 56.1159C125.201 56.1517 125.113 56.223 125.055 56.3172C124.97 56.4624 124.991 56.5691 124.961 56.5777C124.931 56.5862 124.854 56.4752 124.923 56.2617C124.963 56.1306 125.05 56.0185 125.166 55.9458C125.323 55.8503 125.512 55.8212 125.691 55.8647C125.905 55.9295 126.099 56.0484 126.254 56.21C126.409 56.3715 126.519 56.5702 126.575 56.7869C126.756 57.2701 126.817 57.7906 126.75 58.3025C126.609 59.3698 125.96 60.3219 125.166 60.4671C125.019 60.494 124.868 60.4876 124.724 60.4485C124.58 60.4093 124.447 60.3383 124.334 60.2408C124.163 60.0914 124.15 59.9718 124.167 59.9633Z" fill="#FF8B2E"/>
<path d="M109.352 33.835C109.436 35.1474 109.873 36.4128 110.616 37.4979C111.359 38.5829 112.381 39.4473 113.575 40C114.855 40.5721 116.439 40.8838 117.088 42.1347C117.737 43.3857 117.063 45.0422 117.66 46.3401C118.493 48.1418 121.349 48.4193 121.9 50.3234C122.143 51.1517 121.849 52.0739 122.105 52.8851C122.446 53.9866 123.753 54.5929 124.889 54.3879C125.451 54.252 125.976 53.9947 126.428 53.6341C126.881 53.2734 127.248 52.8181 127.506 52.3002C128.009 51.2598 128.344 50.1457 128.496 48.9999C128.893 46.767 129.196 44.4701 128.782 42.2415C127.928 37.5451 122.182 30.5305 117.434 30.2871" fill="#2C2C2C"/>
<path d="M118.408 32.6649C118.408 32.793 116.158 32.4429 113.639 33.4249C111.12 34.4068 109.655 36.1189 109.574 36.0207C109.805 35.5885 110.122 35.2079 110.505 34.9021C112.27 33.2964 114.578 32.4192 116.965 32.4472C117.455 32.4235 117.946 32.4975 118.408 32.6649Z" fill="#8E8E8E"/>
<path d="M112.507 31.6871C112.554 31.7938 111.333 32.2037 110.424 33.3948C109.514 34.586 109.395 35.8626 109.28 35.8626C109.233 35.8626 109.186 35.5381 109.28 35.0087C109.414 34.3359 109.701 33.7033 110.121 33.1604C110.54 32.6175 111.079 32.179 111.696 31.8792C112.161 31.6743 112.494 31.6401 112.507 31.6871Z" fill="#8E8E8E"/>
<path d="M148.844 127.288C148.844 127.356 147.965 127.288 146.556 127.309C144.725 127.371 142.908 127.649 141.142 128.137C139.384 128.632 137.684 129.313 136.07 130.17C134.823 130.827 134.098 131.318 134.059 131.263C134.021 131.207 134.209 131.096 134.525 130.836C134.974 130.496 135.443 130.184 135.929 129.901C137.534 128.955 139.257 128.224 141.053 127.728C142.849 127.225 144.708 126.982 146.573 127.006C147.136 127.012 147.698 127.055 148.255 127.134C148.458 127.154 148.657 127.206 148.844 127.288Z" fill="#1A2E35"/>
<path d="M107.585 57.3378C106.786 57.2054 106.129 57.2097 105.514 56.5992C104.899 55.9887 104.609 55.0537 105.01 54.3321C105.105 54.1737 105.241 54.0447 105.405 53.9595C105.569 53.8743 105.753 53.8363 105.937 53.8497L106.714 53.8967L108.088 49.8621" stroke="#FF8B2E" stroke-width="0.5" stroke-miterlimit="10" stroke-linecap="round"/>
<path d="M261.949 146.146C261.949 146.146 258.513 146.47 256.877 150.479C256.877 150.479 258.85 158.463 265.297 158.54C265.297 158.54 266.415 157.976 268.904 152.341L261.949 146.146Z" fill="#FFBF9D"/>
<path d="M274.258 101.821L279.45 110.091L261.945 146.146L268.627 152.725L293.611 118.045C294.556 116.732 295.18 115.217 295.432 113.619C295.684 112.022 295.558 110.388 295.063 108.848L289.769 92.4067L274.258 101.821Z" fill="#FFBF9D"/>
<path d="M233.434 179.383L236.329 219.767C236.329 219.767 234.732 192.75 234.373 186.278C234.015 179.805 233.434 179.383 233.434 179.383Z" fill="#2C2C2C"/>
<path d="M264.443 84.5342C264.566 84.4531 266.278 87.2069 268.063 90.759C268.917 92.4454 269.703 93.9739 270.373 95.2889C270.962 96.4459 271.329 97.1631 271.274 97.1973C271.15 97.2741 269.438 94.5246 267.649 90.9725L265.343 86.4426C264.754 85.2728 264.387 84.5556 264.443 84.5342Z" fill="#1A2E35"/>
<path d="M214.115 67.9901C214.252 68.0584 212.685 70.6627 211.98 74.2704C211.276 77.878 211.669 80.8794 211.515 80.8879C211.464 80.8879 211.28 80.1621 211.195 78.9411C210.993 75.7381 211.638 72.5386 213.065 69.6637C213.615 68.5707 214.068 67.9602 214.115 67.9901Z" fill="#1A2E35"/>
<path d="M278.327 73.3353C278.327 73.4207 277.323 73.425 275.765 73.7622C274.857 73.968 273.968 74.2538 273.11 74.6161C271.005 75.5042 269.12 76.8402 267.585 78.5312C266.96 79.2218 266.397 79.9662 265.903 80.7555C265.049 82.1089 264.729 83.0525 264.648 83.0226C264.668 82.7863 264.729 82.5553 264.827 82.3395C265.034 81.7316 265.3 81.1453 265.621 80.589C266.085 79.7523 266.636 78.9667 267.265 78.2451C268.043 77.3688 268.915 76.58 269.865 75.8927C270.828 75.223 271.861 74.6618 272.947 74.2191C273.836 73.8659 274.759 73.6055 275.701 73.442C276.333 73.3265 276.975 73.2708 277.618 73.2755C277.856 73.2538 278.096 73.2741 278.327 73.3353Z" fill="#1A2E35"/>
<path d="M270.42 74.4452C270.509 74.5691 268.174 75.7261 266.454 78.2877C264.733 80.8494 264.481 83.4324 264.319 83.411C264.268 83.411 264.242 82.7621 264.455 81.7459C265.05 79.0702 266.642 76.7218 268.908 75.1796C269.788 74.6118 270.398 74.3983 270.42 74.4452Z" fill="#1A2E35"/>
<path d="M209.743 73.523C209.863 73.4931 210.507 75.7047 210.806 78.5182C211.105 81.3318 210.96 83.6415 210.84 83.6415C210.721 83.6415 210.648 81.3659 210.345 78.5823C210.042 75.7986 209.611 73.5529 209.743 73.523Z" fill="#1A2E35"/>
<path d="M210.332 86.1646C210.46 86.1646 210.576 90.5065 210.588 95.8518C210.601 101.197 210.503 105.522 210.375 105.518C210.247 105.514 210.131 101.172 210.119 95.8262C210.106 90.4809 210.204 86.156 210.332 86.1646Z" fill="#1A2E35"/>
</svg>
