<svg width="27" height="26" viewBox="0 0 27 26" fill="none" xmlns="http://www.w3.org/2000/svg">
<path fill-rule="evenodd" clip-rule="evenodd" d="M0 3.432C0 1.50075 1.62857 0 3.53077 0H23.4692C25.3714 0 27 1.50075 27 3.432V17.784C27 19.7152 25.3714 21.216 23.4692 21.216H6.44034L1.75698 25.7108C1.45663 25.9991 1.0135 26.08 0.630877 25.9165C0.248257 25.753 0 25.3766 0 24.96V3.432ZM3.53077 2.08C2.69143 2.08 2.07692 2.73204 2.07692 3.432V22.5228L5.30456 19.4251C5.49789 19.2396 5.75531 19.136 6.02308 19.136H23.4692C24.3086 19.136 24.9231 18.4839 24.9231 17.784V3.432C24.9231 2.73204 24.3086 2.08 23.4692 2.08H3.53077Z" fill="#2C2C2C"/>
<path d="M16.6154 10.4001C16.6154 10.9745 17.0804 11.4401 17.6539 11.4401C18.2274 11.4401 18.6924 10.9745 18.6924 10.4001C18.6924 9.82573 18.2274 9.36011 17.6539 9.36011C17.0804 9.36011 16.6154 9.82573 16.6154 10.4001Z" fill="#2C2C2C"/>
<path d="M12.4616 10.4001C12.4616 10.9745 12.9265 11.4401 13.5 11.4401C14.0736 11.4401 14.5385 10.9745 14.5385 10.4001C14.5385 9.82573 14.0736 9.36011 13.5 9.36011C12.9265 9.36011 12.4616 9.82573 12.4616 10.4001Z" fill="#2C2C2C"/>
<path d="M8.30774 10.4001C8.30774 10.9745 8.77267 11.4401 9.3462 11.4401C9.91973 11.4401 10.3847 10.9745 10.3847 10.4001C10.3847 9.82573 9.91973 9.36011 9.3462 9.36011C8.77267 9.36011 8.30774 9.82573 8.30774 10.4001Z" fill="#2C2C2C"/>
</svg>
