<svg width="29" height="26" viewBox="0 0 29 26" fill="none" xmlns="http://www.w3.org/2000/svg">
<path fill-rule="evenodd" clip-rule="evenodd" d="M0 8.15202C0 3.57761 3.71196 0 8.38281 0C10.6745 0 12.8789 0.897704 14.5 2.37023C16.1211 0.897704 18.3255 0 20.6172 0C25.288 0 29 3.57761 29 8.15202C29 10.9455 27.6971 13.4073 25.6037 15.891C23.5331 18.3476 20.592 20.9358 17.138 23.9752L17.0747 24.0309L15.1036 25.7722C14.7608 26.0751 14.243 26.076 13.8989 25.7744L11.9278 24.0463L11.9259 24.0446L11.8265 23.957C8.38779 20.9245 5.45953 18.3423 3.39606 15.8924C1.30288 13.4073 0 10.9454 0 8.15202ZM8.38281 1.7931C4.67991 1.7931 1.8125 4.60031 1.8125 8.15202C1.8125 10.3451 2.82055 12.4081 4.78851 14.7445C6.76556 17.0918 9.61065 19.6008 13.1279 22.7025L13.13 22.7043L13.1319 22.7061L14.4977 23.9035L15.8688 22.6922C19.3877 19.5957 22.2341 17.0889 24.2117 14.7426C26.1794 12.408 27.1875 10.3451 27.1875 8.15202C27.1875 4.60031 24.3201 1.7931 20.6172 1.7931C18.5198 1.7931 16.4975 2.74493 15.1844 4.24137C15.0122 4.43753 14.7626 4.55018 14.5 4.55018C14.2374 4.55018 13.9878 4.43753 13.8156 4.24137C12.5025 2.74493 10.4802 1.7931 8.38281 1.7931Z" fill="#2C2C2C"/>
</svg>
