<svg width="25" height="26" viewBox="0 0 25 26" fill="none" xmlns="http://www.w3.org/2000/svg">
<path fill-rule="evenodd" clip-rule="evenodd" d="M11.7929 0.292893C12.1834 -0.0976311 12.8166 -0.0976311 13.2071 0.292893L24.2071 11.2929C24.3946 11.4804 24.5 11.7348 24.5 12V25C24.5 25.5523 24.0523 26 23.5 26H16C15.4477 26 15 25.5523 15 25V16.5H10.5V25C10.5 25.5523 10.0523 26 9.5 26H1.5C0.947715 26 0.5 25.5523 0.5 25V12C0.5 11.7348 0.605357 11.4804 0.792893 11.2929L11.7929 0.292893ZM2.5 12.4142V24H8.5V15.5C8.5 14.9477 8.94772 14.5 9.5 14.5H16C16.5523 14.5 17 14.9477 17 15.5V24H22.5V12.4142L12.5 2.41421L2.5 12.4142Z" fill="#2C2C2C"/>
</svg>
