<svg width="24" height="26" viewBox="0 0 24 26" fill="none" xmlns="http://www.w3.org/2000/svg">
<path fill-rule="evenodd" clip-rule="evenodd" d="M4.7725 16.3525C7.17884 15.4511 10.0479 15 12 15C13.9521 15 16.8212 15.4511 19.2275 16.3525C20.4301 16.803 21.582 17.3896 22.4509 18.1394C23.3231 18.8922 24 19.894 24 21.1429V23C24 24.6569 22.6569 26 21 26H3C1.34314 26 0 24.6569 0 23V21.1429C0 19.894 0.67691 18.8922 1.54913 18.1394C2.41799 17.3896 3.56988 16.803 4.7725 16.3525ZM2.85583 19.6535C2.23918 20.1857 2 20.6817 2 21.1429V23C2 23.5523 2.44772 24 3 24H21C21.5523 24 22 23.5523 22 23V21.1429C22 20.6817 21.7608 20.1857 21.1442 19.6535C20.5242 19.1185 19.6144 18.6331 18.5259 18.2254C16.3501 17.4103 13.7192 17 12 17C10.2808 17 7.64991 17.4103 5.47407 18.2254C4.38559 18.6331 3.47584 19.1185 2.85583 19.6535Z" fill="#2C2C2C"/>
<path fill-rule="evenodd" clip-rule="evenodd" d="M5 6.5C5 2.90897 7.90897 0 11.5 0C15.091 0 18 2.90897 18 6.5C18 10.091 15.091 13 11.5 13C7.90897 13 5 10.091 5 6.5ZM11.5 2C9.01353 2 7 4.01353 7 6.5C7 8.98647 9.01353 11 11.5 11C13.9865 11 16 8.98647 16 6.5C16 4.01353 13.9865 2 11.5 2Z" fill="#2C2C2C"/>
</svg>
