<svg width="28" height="26" viewBox="0 0 28 26" fill="none" xmlns="http://www.w3.org/2000/svg">
<path fill-rule="evenodd" clip-rule="evenodd" d="M5.59997 1.0376H25.5111C26.88 1.0376 28 2.11093 28 3.42278V17.7339C28 19.0457 26.88 20.1191 25.5111 20.1191H8.08886L3.11108 24.8895V3.42278C3.11108 2.11093 4.23108 1.0376 5.59997 1.0376Z" fill="#FF9900" fill-opacity="0.2"/>
<path fill-rule="evenodd" clip-rule="evenodd" d="M0 3.42271C0 1.49697 1.62634 0.000488281 3.52593 0.000488281H23.437C25.3366 0.000488281 26.963 1.49696 26.963 3.42271V17.7338C26.963 19.6596 25.3366 21.156 23.437 21.156H6.4315L1.75457 25.6381C1.45463 25.9255 1.01211 26.0063 0.630012 25.8432C0.247917 25.6801 0 25.3048 0 24.8894V3.42271ZM3.52593 2.07456C2.68774 2.07456 2.07407 2.72475 2.07407 3.42271V22.4592L5.29728 19.3703C5.49034 19.1853 5.74741 19.082 6.01481 19.082H23.437C24.2752 19.082 24.8889 18.4318 24.8889 17.7338V3.42271C24.8889 2.72475 24.2752 2.07456 23.437 2.07456H3.52593Z" fill="#FF9900"/>
<path d="M16.5926 10.3708C16.5926 10.9435 17.0569 11.4078 17.6296 11.4078C18.2023 11.4078 18.6666 10.9435 18.6666 10.3708C18.6666 9.79804 18.2023 9.33374 17.6296 9.33374C17.0569 9.33374 16.5926 9.79804 16.5926 10.3708Z" fill="#FF9900"/>
<path d="M12.4444 10.3708C12.4444 10.9435 12.9087 11.4078 13.4814 11.4078C14.0542 11.4078 14.5185 10.9435 14.5185 10.3708C14.5185 9.79804 14.0542 9.33374 13.4814 9.33374C12.9087 9.33374 12.4444 9.79804 12.4444 10.3708Z" fill="#FF9900"/>
<path d="M8.29626 10.3708C8.29626 10.9435 8.76056 11.4078 9.3333 11.4078C9.90604 11.4078 10.3703 10.9435 10.3703 10.3708C10.3703 9.79804 9.90604 9.33374 9.3333 9.33374C8.76056 9.33374 8.29626 9.79804 8.29626 10.3708Z" fill="#FF9900"/>
</svg>
