<svg width="30" height="26" viewBox="0 0 30 26" fill="none" xmlns="http://www.w3.org/2000/svg">
<path d="M22.575 1.00049C20.226 1.00049 17.9715 2.05989 16.5 3.734C15.0285 2.05989 12.774 1.00049 10.425 1.00049C6.267 1.00049 3 4.16561 3 8.19395C3 13.1378 7.59 17.1662 14.5425 23.2871L16.5 25.0005L18.4575 23.2741C25.41 17.1662 30 13.1378 30 8.19395C30 4.16561 26.733 1.00049 22.575 1.00049Z" fill="#FF9900" fill-opacity="0.2"/>
<path fill-rule="evenodd" clip-rule="evenodd" d="M0 8.15251C0 3.5781 3.71196 0.000488281 8.38281 0.000488281C10.6745 0.000488281 12.8789 0.898192 14.5 2.37072C16.1211 0.898192 18.3255 0.000488281 20.6172 0.000488281C25.288 0.000488281 29 3.5781 29 8.15251C29 10.9459 27.6971 13.4078 25.6037 15.8915C23.5331 18.3481 20.592 20.9363 17.138 23.9756L17.0747 24.0314L15.1036 25.7727C14.7608 26.0756 14.243 26.0765 13.8989 25.7749L11.9278 24.0468L11.9259 24.0451L11.8265 23.9575C8.38779 20.925 5.45953 18.3427 3.39606 15.8929C1.30288 13.4077 0 10.9459 0 8.15251ZM8.38281 1.79359C4.67991 1.79359 1.8125 4.6008 1.8125 8.15251C1.8125 10.3456 2.82055 12.4085 4.78851 14.745C6.76556 17.0923 9.61065 19.6013 13.1279 22.703L13.13 22.7048L13.1319 22.7066L14.4977 23.904L15.8688 22.6927C19.3877 19.5962 22.2341 17.0894 24.2117 14.7431C26.1794 12.4085 27.1875 10.3456 27.1875 8.15251C27.1875 4.6008 24.3201 1.79359 20.6172 1.79359C18.5198 1.79359 16.4975 2.74541 15.1844 4.24186C15.0122 4.43801 14.7626 4.55067 14.5 4.55067C14.2374 4.55067 13.9878 4.43801 13.8156 4.24186C12.5025 2.74541 10.4802 1.79359 8.38281 1.79359Z" fill="#FF9900"/>
</svg>
