<svg width="26" height="26" viewBox="0 0 26 26" fill="none" xmlns="http://www.w3.org/2000/svg">
<path d="M11.5 25.0005H3.5V12.0005L14.5 1.00049L25.5 12.0005V25.0005H18V15.5005H11.5V25.0005Z" fill="#FF9900" fill-opacity="0.2"/>
<path fill-rule="evenodd" clip-rule="evenodd" d="M11.7929 0.293382C12.1834 -0.0971428 12.8166 -0.0971428 13.2071 0.293382L24.2071 11.2934C24.3946 11.4809 24.5 11.7353 24.5 12.0005V25.0005C24.5 25.5528 24.0523 26.0005 23.5 26.0005H16C15.4477 26.0005 15 25.5528 15 25.0005V16.5005H10.5V25.0005C10.5 25.5528 10.0523 26.0005 9.5 26.0005H1.5C0.947715 26.0005 0.5 25.5528 0.5 25.0005V12.0005C0.5 11.7353 0.605357 11.4809 0.792893 11.2934L11.7929 0.293382ZM2.5 12.4147V24.0005H8.5V15.5005C8.5 14.9482 8.94772 14.5005 9.5 14.5005H16C16.5523 14.5005 17 14.9482 17 15.5005V24.0005H22.5V12.4147L12.5 2.4147L2.5 12.4147Z" fill="#FF9900"/>
</svg>
