<svg width="25" height="26" viewBox="0 0 25 26" fill="none" xmlns="http://www.w3.org/2000/svg">
<path d="M3 21.1433C3 17.7233 10.3287 16.0005 14 16.0005C17.6713 16.0005 25 17.7233 25 21.1433V23.0005C25 24.1051 24.1046 25.0005 23 25.0005H5C3.89543 25.0005 3 24.1051 3 23.0005V21.1433Z" fill="#FF9900" fill-opacity="0.2"/>
<path d="M8 6.50049C8 3.46174 10.4612 1.00049 13.5 1.00049C16.5388 1.00049 19 3.46174 19 6.50049C19 9.53924 16.5388 12.0005 13.5 12.0005C10.4612 12.0005 8 9.53924 8 6.50049Z" fill="#FF9900" fill-opacity="0.2"/>
<path fill-rule="evenodd" clip-rule="evenodd" d="M4.7725 16.353C7.17884 15.4516 10.0479 15.0005 12 15.0005C13.9521 15.0005 16.8212 15.4516 19.2275 16.353C20.4301 16.8034 21.582 17.3901 22.4509 18.1399C23.3231 18.8926 24 19.8945 24 21.1433V23.0005C24 24.6573 22.6569 26.0005 21 26.0005H3C1.34314 26.0005 0 24.6573 0 23.0005V21.1433C0 19.8945 0.67691 18.8926 1.54913 18.1399C2.41799 17.3901 3.56988 16.8034 4.7725 16.353ZM2.85583 19.654C2.23918 20.1862 2 20.6822 2 21.1433V23.0005C2 23.5528 2.44772 24.0005 3 24.0005H21C21.5523 24.0005 22 23.5528 22 23.0005V21.1433C22 20.6822 21.7608 20.1862 21.1442 19.654C20.5242 19.1189 19.6144 18.6336 18.5259 18.2259C16.3501 17.4108 13.7192 17.0005 12 17.0005C10.2808 17.0005 7.64991 17.4108 5.47407 18.2259C4.38559 18.6336 3.47584 19.1189 2.85583 19.654Z" fill="#FF9900"/>
<path fill-rule="evenodd" clip-rule="evenodd" d="M5 6.50049C5 2.90945 7.90897 0.000488281 11.5 0.000488281C15.091 0.000488281 18 2.90945 18 6.50049C18 10.0915 15.091 13.0005 11.5 13.0005C7.90897 13.0005 5 10.0915 5 6.50049ZM11.5 2.00049C9.01353 2.00049 7 4.01402 7 6.50049C7 8.98695 9.01353 11.0005 11.5 11.0005C13.9865 11.0005 16 8.98695 16 6.50049C16 4.01402 13.9865 2.00049 11.5 2.00049Z" fill="#FF9900"/>
</svg>
