<svg width="27" height="27" viewBox="0 0 27 27" fill="none" xmlns="http://www.w3.org/2000/svg">
<path d="M19.3328 9.20686C19.3328 13.7828 15.6233 17.4923 11.0473 17.4923C6.47137 17.4923 2.76184 13.7828 2.76184 9.20686C2.76184 4.63092 6.47137 0.921387 11.0473 0.921387C15.6233 0.921387 19.3328 4.63092 19.3328 9.20686Z" fill="#FF9900" fill-opacity="0.2"/>
<path d="M18.7935 19.5567C18.0745 18.8377 18.0745 17.6719 18.7935 16.9528C19.5126 16.2338 20.6783 16.2338 21.3974 16.9528L27 22.5555L24.3961 25.1593L18.7935 19.5567Z" fill="#FF9900" fill-opacity="0.2"/>
<path fill-rule="evenodd" clip-rule="evenodd" d="M9.20609 1.84171C5.13858 1.84171 1.84122 5.13907 1.84122 9.20657C1.84122 13.2741 5.13858 16.5714 9.20609 16.5714C13.2736 16.5714 16.571 13.2741 16.571 9.20657C16.571 5.13907 13.2736 1.84171 9.20609 1.84171ZM0 9.20657C0 4.12219 4.12171 0.000488281 9.20609 0.000488281C14.2905 0.000488281 18.4122 4.12219 18.4122 9.20657C18.4122 14.291 14.2905 18.4127 9.20609 18.4127C4.12171 18.4127 0 14.291 0 9.20657Z" fill="#FF9900"/>
<path fill-rule="evenodd" clip-rule="evenodd" d="M16.3804 17.683L14.0789 15.3815L15.3808 14.0796L17.6823 16.3811L16.3804 17.683Z" fill="#FF9900"/>
<path fill-rule="evenodd" clip-rule="evenodd" d="M16.3013 20.2071C15.2227 19.1285 15.2227 17.3798 16.3013 16.3013C17.3799 15.2227 19.1285 15.2227 20.2071 16.3013L25.8097 21.9039C26.1693 22.2634 26.1693 22.8463 25.8097 23.2058L23.2059 25.8097C23.0332 25.9824 22.799 26.0794 22.5549 26.0794C22.3107 26.0794 22.0766 25.9824 21.9039 25.8097L16.3013 20.2071ZM17.6032 17.6032C17.2437 17.9627 17.2437 18.5456 17.6032 18.9052L22.5549 23.8568L23.8568 22.5549L18.9052 17.6032C18.5456 17.2437 17.9628 17.2437 17.6032 17.6032Z" fill="#FF9900"/>
</svg>
