<svg width="27" height="27" viewBox="0 0 27 27" fill="none" xmlns="http://www.w3.org/2000/svg">
<path fill-rule="evenodd" clip-rule="evenodd" d="M9.20609 1.84122C5.13858 1.84122 1.84122 5.13858 1.84122 9.20609C1.84122 13.2736 5.13858 16.571 9.20609 16.571C13.2736 16.571 16.571 13.2736 16.571 9.20609C16.571 5.13858 13.2736 1.84122 9.20609 1.84122ZM0 9.20609C0 4.12171 4.12171 0 9.20609 0C14.2905 0 18.4122 4.12171 18.4122 9.20609C18.4122 14.2905 14.2905 18.4122 9.20609 18.4122C4.12171 18.4122 0 14.2905 0 9.20609Z" fill="#2C2C2C"/>
<path fill-rule="evenodd" clip-rule="evenodd" d="M16.3804 17.6826L14.0789 15.381L15.3808 14.0791L17.6823 16.3806L16.3804 17.6826Z" fill="#2C2C2C"/>
<path fill-rule="evenodd" clip-rule="evenodd" d="M16.3013 20.2066C15.2227 19.128 15.2227 17.3793 16.3013 16.3008C17.3799 15.2222 19.1285 15.2222 20.2071 16.3008L25.8097 21.9034C26.1693 22.2629 26.1693 22.8458 25.8097 23.2053L23.2059 25.8092C23.0332 25.9818 22.799 26.0788 22.5549 26.0788C22.3107 26.0788 22.0766 25.9818 21.9039 25.8092L16.3013 20.2066ZM17.6032 17.6027C17.2437 17.9622 17.2437 18.5451 17.6032 18.9046L22.5549 23.8563L23.8568 22.5544L18.9052 17.6027C18.5456 17.2432 17.9628 17.2432 17.6032 17.6027Z" fill="#2C2C2C"/>
</svg>
